SplineFontDB: 3.0
FontName: Asap-Symbol
FullName: Asap Symbol
FamilyName: Asap Symbol
Weight: Black
Copyright: Copyright (c) 2014, Omnibus-Type (www.omnibus-type.com omnibus.type@gmail.com) with Reserved Font Name 'Asap'
Version: 1.000
ItalicAngle: 0
UnderlinePosition: -50
UnderlineWidth: 50
Ascent: 800
Descent: 200
InvalidEm: 0
sfntRevision: 0x00010000
LayerCount: 2
Layer: 0 1 "Back" 1
Layer: 1 1 "Fore" 0
XUID: [1021 505 -982332716 13260773]
FSType: 8
OS2Version: 3
OS2_WeightWidthSlopeOnly: 0
OS2_UseTypoMetrics: 1
CreationTime: 1416371801
ModificationTime: 1418677301
PfmFamily: 17
TTFWeight: 900
TTFWidth: 5
LineGap: 0
VLineGap: 0
Panose: 2 15 5 4 3 2 2 6 2 3
OS2TypoAscent: 940
OS2TypoAOffset: 0
OS2TypoDescent: -212
OS2TypoDOffset: 0
OS2TypoLinegap: 48
OS2WinAscent: 988
OS2WinAOffset: 0
OS2WinDescent: 212
OS2WinDOffset: 0
HheadAscent: 988
HheadAOffset: 0
HheadDescent: -212
HheadDOffset: 0
OS2SubXSize: 650
OS2SubYSize: 600
OS2SubXOff: 0
OS2SubYOff: 75
OS2SupXSize: 650
OS2SupYSize: 600
OS2SupXOff: 0
OS2SupYOff: 350
OS2StrikeYSize: 50
OS2StrikeYPos: 313
OS2CapHeight: 0
OS2XHeight: 0
OS2Vendor: 'OMNI'
OS2CodePages: 20000001.00000000
OS2UnicodeRanges: 00000003.00000000.00000000.00000000
Lookup: 1 0 0 "'aalt' Access All Alternates lookup 0" { "'aalt' Access All Alternates lookup 0 subtable"  } ['aalt' ('DFLT' <'dflt' > 'grek' <'dflt' > 'latn' <'dflt' > ) ]
Lookup: 3 0 0 "'aalt' Access All Alternates lookup 1" { "'aalt' Access All Alternates lookup 1 subtable"  } ['aalt' ('DFLT' <'dflt' > 'grek' <'dflt' > 'latn' <'dflt' > ) ]
Lookup: 1 0 0 "'sups' Superscript lookup 2" { "'sups' Superscript lookup 2 subtable" ("superior") } ['sups' ('DFLT' <'dflt' > 'grek' <'dflt' > 'latn' <'dflt' > ) ]
Lookup: 4 0 0 "'frac' Diagonal Fractions lookup 3" { "'frac' Diagonal Fractions lookup 3 subtable"  } ['frac' ('DFLT' <'dflt' > 'grek' <'dflt' > 'latn' <'dflt' > ) ]

StartChar: .notdef
Encoding: 65536 -1 0
Width: 514
Flags: W
LayerCount: 2
Back
Fore
SplineSet
7 700 m 1,0,-1
 507 700 l 1,1,-1
 507 0 l 1,2,-1
 7 0 l 1,3,-1
 7 700 l 1,0,-1
426 650 m 1,4,-1
 86 650 l 1,5,-1
 257 395 l 1,6,-1
 426 650 l 1,4,-1
56 95 m 1,7,-1
 227 350 l 1,8,-1
 56 605 l 1,9,-1
 56 95 l 1,7,-1
456 95 m 1,10,-1
 456 605 l 1,11,-1
 287 350 l 1,12,-1
 456 95 l 1,10,-1
427 50 m 1,13,-1
 256 305 l 1,14,-1
 87 50 l 1,15,-1
 427 50 l 1,13,-1
EndSplineSet
EndChar

StartChar: A
Encoding: 65 65 2
Width: 613
Flags: W
LayerCount: 2
Back
Fore
SplineSet
374 684 m 2,1,-1
 603 32 l 2,2,3
 606 23 606 23 606 17 c 0,4,5
 606 -2 606 -2 560 -2 c 2,6,-1
 537 -2 l 2,7,8
 495 -2 495 -2 490 16 c 2,9,-1
 439 162 l 1,10,-1
 170 162 l 1,11,-1
 121 16 l 2,12,13
 114 -2 114 -2 78 -2 c 2,14,-1
 58 -2 l 2,15,16
 7 -2 7 -2 7 17 c 0,17,18
 7 23 7 23 10 33 c 2,19,-1
 240 684 l 2,20,21
 246 702 246 702 287 702 c 2,22,-1
 326 702 l 2,23,0
 368 702 368 702 374 684 c 2,1,-1
305 569 m 1,24,25
 297 527 297 527 290 508 c 2,26,-1
 205 262 l 1,27,-1
 405 262 l 1,28,-1
 321 508 l 2,29,30
 314 531 314 531 308 569 c 1,31,-1
 305 569 l 1,24,25
EndSplineSet
Substitution2: "Single Substitution lookup 14 subtable" ordfeminine
Substitution2: "'ss06' Style Set 6 lookup 13 subtable" one.ss01
Substitution2: "'ss05' Style Set 5 lookup 11 subtable" A.ss05
Substitution2: "'ss04' Style Set 4 lookup 10 subtable" A.ss04
Substitution2: "'ss03' Style Set 3 lookup 9 subtable" A.ss03
Substitution2: "'ss02' Style Set 2 lookup 8 subtable" A.ss02
Substitution2: "'ss01' Style Set 1 lookup 7 subtable" A.ss01
Substitution2: "'salt' Stylistic Alternatives lookup 6 subtable" A.ss01
AlternateSubs2: "'aalt' Access All Alternates lookup 1 subtable" ordfeminine A.ss01 A.ss02 A.ss03 A.ss04 A.ss05
Position2: "'cpsp' Capital Spacing lookup 1 subtable" dx=5 dy=0 dh=10 dv=0
EndChar

StartChar: AE
Encoding: 198 198 9
Width: 915
Flags: W
LayerCount: 2
Back
Fore
SplineSet
841 661 m 2,1,-1
 841 639 l 2,2,3
 841 600 841 600 816 600 c 2,4,-1
 474 600 l 1,5,-1
 514 408 l 1,6,-1
 788 408 l 2,7,8
 801 408 801 408 806.5 399 c 128,-1,9
 812 390 812 390 812 369 c 2,10,-1
 812 347 l 2,11,12
 812 327 812 327 806.5 317.5 c 128,-1,13
 801 308 801 308 788 308 c 2,14,-1
 535 308 l 1,15,-1
 578 100 l 1,16,-1
 817 100 l 2,17,18
 842 100 842 100 842 61 c 2,19,-1
 842 39 l 2,20,21
 842 0 842 0 817 0 c 2,22,-1
 511 0 l 2,23,24
 481 0 481 0 475 29 c 2,25,-1
 448 162 l 1,26,-1
 176 162 l 1,27,-1
 105 16 l 2,28,29
 95 -2 95 -2 62 -2 c 2,30,-1
 43 -2 l 2,31,32
 -6 -2 -6 -2 -6 17 c 0,33,34
 -6 26 -6 26 -2 34 c 2,35,-1
 319 673 l 2,36,37
 327 687 327 687 337 693.5 c 128,-1,38
 347 700 347 700 363 700 c 2,39,-1
 816 700 l 2,40,0
 841 700 841 700 841 661 c 2,1,-1
372 578 m 1,41,-1
 348 510 l 1,42,-1
 226 262 l 1,43,-1
 428 262 l 1,44,-1
 377 509 l 1,45,-1
 375 578 l 1,46,-1
 372 578 l 1,41,-1
EndSplineSet
Position2: "'cpsp' Capital Spacing lookup 1 subtable" dx=5 dy=0 dh=10 dv=0
EndChar

StartChar: B
Encoding: 66 66 10
Width: 593
Flags: W
LayerCount: 2
Back
Fore
SplineSet
478.5 652.5 m 128,-1,1
 536 605 536 605 536 523 c 0,2,3
 536 474 536 474 504 430 c 128,-1,4
 472 386 472 386 427 371 c 1,5,-1
 427 367 l 1,6,7
 450 362 450 362 482.5 342.5 c 128,-1,8
 515 323 515 323 540 287 c 128,-1,9
 565 251 565 251 565 202 c 0,10,11
 565 101 565 101 500.5 50.5 c 128,-1,12
 436 0 436 0 309 0 c 2,13,-1
 119 0 l 2,14,15
 101 0 101 0 93 8 c 128,-1,16
 85 16 85 16 85 34 c 2,17,-1
 85 666 l 2,18,19
 85 684 85 684 93 692 c 128,-1,20
 101 700 101 700 119 700 c 2,21,-1
 307 700 l 2,22,0
 421 700 421 700 478.5 652.5 c 128,-1,1
202 600 m 1,23,-1
 202 408 l 1,24,-1
 297 408 l 2,25,26
 350 408 350 408 383 436.5 c 128,-1,27
 416 465 416 465 416 507 c 0,28,29
 416 555 416 555 387 577.5 c 128,-1,30
 358 600 358 600 296 600 c 2,31,-1
 202 600 l 1,23,-1
202 308 m 1,32,-1
 202 100 l 1,33,-1
 327 100 l 2,34,35
 383 100 383 100 414 128.5 c 128,-1,36
 445 157 445 157 445 208 c 0,37,38
 445 256 445 256 410.5 282 c 128,-1,39
 376 308 376 308 310 308 c 2,40,-1
 202 308 l 1,32,-1
EndSplineSet
Substitution2: "'ss06' Style Set 6 lookup 13 subtable" two.ss01
Substitution2: "'ss05' Style Set 5 lookup 11 subtable" B.ss05
Substitution2: "'ss04' Style Set 4 lookup 10 subtable" B.ss04
Substitution2: "'ss03' Style Set 3 lookup 9 subtable" B.ss03
Substitution2: "'ss02' Style Set 2 lookup 8 subtable" B.ss02
Substitution2: "'ss01' Style Set 1 lookup 7 subtable" B.ss01
Substitution2: "'salt' Stylistic Alternatives lookup 6 subtable" B.ss01
AlternateSubs2: "'aalt' Access All Alternates lookup 1 subtable" B.ss01 B.ss02 B.ss03 B.ss04 B.ss05
Position2: "'cpsp' Capital Spacing lookup 1 subtable" dx=5 dy=0 dh=10 dv=0
EndChar

StartChar: C
Encoding: 67 67 11
Width: 619
Flags: W
LayerCount: 2
Back
Fore
SplineSet
473.5 697.5 m 128,-1,1
 520 688 520 688 549.5 672.5 c 128,-1,2
 579 657 579 657 579 641 c 0,3,4
 579 624 579 624 562 596 c 128,-1,5
 545 568 545 568 532 568 c 0,6,7
 529 568 529 568 507 578.5 c 128,-1,8
 485 589 485 589 453.5 597.5 c 128,-1,9
 422 606 422 606 380 606 c 0,10,11
 274 606 274 606 223 544 c 128,-1,12
 172 482 172 482 172 350 c 0,13,14
 172 219 172 219 222.5 156 c 128,-1,15
 273 93 273 93 377 93 c 0,16,17
 454 93 454 93 525 131 c 0,18,19
 541 139 541 139 546 139 c 0,20,21
 556 139 556 139 566 125.5 c 128,-1,22
 576 112 576 112 583.5 95 c 128,-1,23
 591 78 591 78 591 70 c 0,24,25
 591 50 591 50 559 32.5 c 128,-1,26
 527 15 527 15 477 4 c 128,-1,27
 427 -7 427 -7 377 -7 c 0,28,29
 211 -7 211 -7 131.5 80.5 c 128,-1,30
 52 168 52 168 52 351 c 0,31,32
 52 707 52 707 380 707 c 0,33,0
 427 707 427 707 473.5 697.5 c 128,-1,1
EndSplineSet
Substitution2: "'ss06' Style Set 6 lookup 13 subtable" three.ss01
Substitution2: "'ss05' Style Set 5 lookup 11 subtable" C.ss05
Substitution2: "'ss04' Style Set 4 lookup 10 subtable" C.ss04
Substitution2: "'ss03' Style Set 3 lookup 9 subtable" C.ss03
Substitution2: "'ss02' Style Set 2 lookup 8 subtable" C.ss02
Substitution2: "'ss01' Style Set 1 lookup 7 subtable" C.ss01
Substitution2: "'salt' Stylistic Alternatives lookup 6 subtable" C.ss01
AlternateSubs2: "'aalt' Access All Alternates lookup 1 subtable" C.ss01 C.ss02 C.ss03 C.ss04 C.ss05
Position2: "'cpsp' Capital Spacing lookup 1 subtable" dx=5 dy=0 dh=10 dv=0
EndChar

StartChar: Ccedilla
Encoding: 199 199 12
Width: 619
Flags: W
LayerCount: 2
Back
Fore
SplineSet
562 34 m 128,-1,1
 533 17 533 17 487 6 c 128,-1,2
 441 -5 441 -5 392 -7 c 1,3,-1
 382 -43 l 1,4,5
 413 -44 413 -44 439.5 -61 c 128,-1,6
 466 -78 466 -78 466 -117 c 0,7,8
 466 -211 466 -211 349 -211 c 0,9,10
 307 -211 307 -211 267 -198 c 128,-1,11
 227 -185 227 -185 227 -165 c 0,12,13
 227 -149 227 -149 234.5 -140 c 128,-1,14
 242 -131 242 -131 252 -131 c 0,15,16
 261 -131 261 -131 280 -138 c 0,17,18
 313 -151 313 -151 338 -151 c 0,19,20
 358 -151 358 -151 369.5 -145.5 c 128,-1,21
 381 -140 381 -140 381 -124 c 0,22,23
 381 -111 381 -111 372 -104.5 c 128,-1,24
 363 -98 363 -98 346 -92 c 0,25,26
 333 -87 333 -87 326.5 -82.5 c 128,-1,27
 320 -78 320 -78 320 -71 c 0,28,29
 320 -65 320 -65 327.5 -41 c 128,-1,30
 335 -17 335 -17 339 -6 c 1,31,32
 193 4 193 4 122.5 91.5 c 128,-1,33
 52 179 52 179 52 351 c 0,34,35
 52 707 52 707 380 707 c 0,36,37
 427 707 427 707 473.5 697.5 c 128,-1,38
 520 688 520 688 549.5 672.5 c 128,-1,39
 579 657 579 657 579 641 c 0,40,41
 579 624 579 624 562 596 c 128,-1,42
 545 568 545 568 532 568 c 0,43,44
 529 568 529 568 507 578.5 c 128,-1,45
 485 589 485 589 453.5 597.5 c 128,-1,46
 422 606 422 606 380 606 c 0,47,48
 274 606 274 606 223 544 c 128,-1,49
 172 482 172 482 172 350 c 0,50,51
 172 219 172 219 222.5 156 c 128,-1,52
 273 93 273 93 377 93 c 0,53,54
 454 93 454 93 525 131 c 0,55,56
 541 139 541 139 546 139 c 0,57,58
 556 139 556 139 566 125.5 c 128,-1,59
 576 112 576 112 583.5 95 c 128,-1,60
 591 78 591 78 591 70 c 0,61,0
 591 51 591 51 562 34 c 128,-1,1
EndSplineSet
Position2: "'cpsp' Capital Spacing lookup 1 subtable" dx=5 dy=0 dh=10 dv=0
EndChar

StartChar: D
Encoding: 68 68 13
Width: 695
Flags: W
LayerCount: 2
Back
Fore
SplineSet
561.5 613.5 m 128,-1,1
 645 527 645 527 645 350 c 256,2,3
 645 173 645 173 561.5 86.5 c 128,-1,4
 478 0 478 0 331 0 c 2,5,-1
 119 0 l 2,6,7
 101 0 101 0 93 8 c 128,-1,8
 85 16 85 16 85 34 c 2,9,-1
 85 666 l 2,10,11
 85 684 85 684 93 692 c 128,-1,12
 101 700 101 700 119 700 c 2,13,-1
 331 700 l 2,14,0
 478 700 478 700 561.5 613.5 c 128,-1,1
202 600 m 1,15,-1
 202 100 l 1,16,-1
 327 100 l 2,17,18
 419 100 419 100 471.5 161.5 c 128,-1,19
 524 223 524 223 524 350 c 0,20,21
 524 476 524 476 471.5 538 c 128,-1,22
 419 600 419 600 327 600 c 2,23,-1
 202 600 l 1,15,-1
EndSplineSet
Substitution2: "'ss06' Style Set 6 lookup 13 subtable" four.ss01
Substitution2: "'ss05' Style Set 5 lookup 11 subtable" D.ss05
Substitution2: "'ss04' Style Set 4 lookup 10 subtable" D.ss04
Substitution2: "'ss03' Style Set 3 lookup 9 subtable" D.ss03
Substitution2: "'ss02' Style Set 2 lookup 8 subtable" D.ss02
Substitution2: "'ss01' Style Set 1 lookup 7 subtable" D.ss01
Substitution2: "'salt' Stylistic Alternatives lookup 6 subtable" D.ss01
AlternateSubs2: "'aalt' Access All Alternates lookup 1 subtable" D.ss01 D.ss02 D.ss03 D.ss04 D.ss05
Position2: "'cpsp' Capital Spacing lookup 1 subtable" dx=5 dy=0 dh=10 dv=0
EndChar

StartChar: Eth
Encoding: 208 208 14
Width: 696
Flags: W
LayerCount: 2
Back
Fore
SplineSet
563 613.5 m 128,-1,1
 647 527 647 527 647 350 c 256,2,3
 647 173 647 173 563 86.5 c 128,-1,4
 479 0 479 0 332 0 c 2,5,-1
 113 0 l 2,6,7
 95 0 95 0 87 8 c 128,-1,8
 79 16 79 16 79 34 c 2,9,-1
 79 307 l 1,10,-1
 29 307 l 2,11,12
 16 307 16 307 10.5 316.5 c 128,-1,13
 5 326 5 326 5 346 c 2,14,-1
 5 368 l 2,15,16
 5 388 5 388 10.5 397.5 c 128,-1,17
 16 407 16 407 29 407 c 2,18,-1
 79 407 l 1,19,-1
 79 666 l 2,20,21
 79 684 79 684 87 692 c 128,-1,22
 95 700 95 700 113 700 c 2,23,-1
 332 700 l 2,24,0
 479 700 479 700 563 613.5 c 128,-1,1
196 600 m 1,25,-1
 196 407 l 1,26,-1
 284 407 l 2,27,28
 297 407 297 407 302.5 397.5 c 128,-1,29
 308 388 308 388 308 368 c 2,30,-1
 308 346 l 2,31,32
 308 326 308 326 302.5 316.5 c 128,-1,33
 297 307 297 307 284 307 c 2,34,-1
 196 307 l 1,35,-1
 196 100 l 1,36,-1
 328 100 l 2,37,38
 420 100 420 100 473.5 162 c 128,-1,39
 527 224 527 224 527 350 c 256,40,41
 527 476 527 476 473.5 538 c 128,-1,42
 420 600 420 600 328 600 c 2,43,-1
 196 600 l 1,25,-1
EndSplineSet
Position2: "'cpsp' Capital Spacing lookup 1 subtable" dx=5 dy=0 dh=10 dv=0
EndChar

StartChar: E
Encoding: 69 69 15
Width: 546
Flags: W
LayerCount: 2
Back
Fore
SplineSet
494.5 690.5 m 128,-1,1
 500 681 500 681 500 661 c 2,2,-1
 500 639 l 2,3,4
 500 619 500 619 494.5 609.5 c 128,-1,5
 489 600 489 600 476 600 c 2,6,-1
 202 600 l 1,7,-1
 202 408 l 1,8,-1
 447 408 l 2,9,10
 460 408 460 408 465.5 399 c 128,-1,11
 471 390 471 390 471 369 c 2,12,-1
 471 347 l 2,13,14
 471 327 471 327 465.5 317.5 c 128,-1,15
 460 308 460 308 447 308 c 2,16,-1
 202 308 l 1,17,-1
 202 100 l 1,18,-1
 477 100 l 2,19,20
 490 100 490 100 495.5 90.5 c 128,-1,21
 501 81 501 81 501 61 c 2,22,-1
 501 39 l 2,23,24
 501 19 501 19 495.5 9.5 c 128,-1,25
 490 0 490 0 477 0 c 2,26,-1
 119 0 l 2,27,28
 101 0 101 0 93 8 c 128,-1,29
 85 16 85 16 85 34 c 2,30,-1
 85 666 l 2,31,32
 85 684 85 684 93 692 c 128,-1,33
 101 700 101 700 119 700 c 2,34,-1
 476 700 l 2,35,0
 489 700 489 700 494.5 690.5 c 128,-1,1
EndSplineSet
Substitution2: "'ss06' Style Set 6 lookup 13 subtable" five.ss01
Substitution2: "'ss05' Style Set 5 lookup 11 subtable" E.ss05
Substitution2: "'ss04' Style Set 4 lookup 10 subtable" E.ss04
Substitution2: "'ss03' Style Set 3 lookup 9 subtable" E.ss03
Substitution2: "'ss02' Style Set 2 lookup 8 subtable" E.ss02
Substitution2: "'ss01' Style Set 1 lookup 7 subtable" E.ss01
Substitution2: "'salt' Stylistic Alternatives lookup 6 subtable" E.ss01
AlternateSubs2: "'aalt' Access All Alternates lookup 1 subtable" E.ss01 E.ss02 E.ss03 E.ss04 E.ss05
Position2: "'cpsp' Capital Spacing lookup 1 subtable" dx=5 dy=0 dh=10 dv=0
EndChar

StartChar: F
Encoding: 70 70 20
Width: 503
Flags: W
LayerCount: 2
Back
Fore
SplineSet
461.5 690.5 m 128,-1,1
 467 681 467 681 467 661 c 2,2,-1
 467 639 l 2,3,4
 467 619 467 619 461.5 609.5 c 128,-1,5
 456 600 456 600 443 600 c 2,6,-1
 202 600 l 1,7,-1
 202 408 l 1,8,-1
 429 408 l 2,9,10
 442 408 442 408 448 398.5 c 128,-1,11
 454 389 454 389 454 369 c 2,12,-1
 454 347 l 2,13,14
 454 326 454 326 448 317 c 128,-1,15
 442 308 442 308 429 308 c 2,16,-1
 202 308 l 1,17,-1
 202 24 l 2,18,19
 202 -2 202 -2 153 -2 c 2,20,-1
 134 -2 l 2,21,22
 85 -2 85 -2 85 24 c 2,23,-1
 85 666 l 2,24,25
 85 684 85 684 93 692 c 128,-1,26
 101 700 101 700 119 700 c 2,27,-1
 443 700 l 2,28,0
 456 700 456 700 461.5 690.5 c 128,-1,1
EndSplineSet
Substitution2: "'ss06' Style Set 6 lookup 13 subtable" six.ss01
Substitution2: "'ss05' Style Set 5 lookup 11 subtable" F.ss05
Substitution2: "'ss04' Style Set 4 lookup 10 subtable" F.ss04
Substitution2: "'ss03' Style Set 3 lookup 9 subtable" F.ss03
Substitution2: "'ss02' Style Set 2 lookup 8 subtable" F.ss02
Substitution2: "'ss01' Style Set 1 lookup 7 subtable" F.ss01
Substitution2: "'salt' Stylistic Alternatives lookup 6 subtable" F.ss01
AlternateSubs2: "'aalt' Access All Alternates lookup 1 subtable" F.ss01 F.ss02 F.ss03 F.ss04 F.ss05
Position2: "'cpsp' Capital Spacing lookup 1 subtable" dx=5 dy=0 dh=10 dv=0
EndChar

StartChar: G
Encoding: 71 71 21
Width: 672
Flags: W
LayerCount: 2
Back
Fore
SplineSet
474 697.5 m 128,-1,1
 521 688 521 688 551 672.5 c 128,-1,2
 581 657 581 657 581 641 c 0,3,4
 581 624 581 624 564 596 c 128,-1,5
 547 568 547 568 534 568 c 0,6,7
 531 568 531 568 508.5 578.5 c 128,-1,8
 486 589 486 589 454 597.5 c 128,-1,9
 422 606 422 606 380 606 c 0,10,11
 270 606 270 606 221 542.5 c 128,-1,12
 172 479 172 479 172 352 c 0,13,14
 172 93 172 93 373 93 c 0,15,16
 438 93 438 93 480 104 c 1,17,-1
 480 273 l 1,18,-1
 376 273 l 2,19,20
 363 273 363 273 357 282 c 128,-1,21
 351 291 351 291 351 312 c 2,22,-1
 351 334 l 2,23,24
 351 355 351 355 357 364 c 128,-1,25
 363 373 363 373 376 373 c 2,26,-1
 563 373 l 2,27,28
 581 373 581 373 589 365 c 128,-1,29
 597 357 597 357 597 339 c 2,30,-1
 597 68 l 2,31,32
 597 27 597 27 528.5 10 c 128,-1,33
 460 -7 460 -7 370 -7 c 0,34,35
 211 -7 211 -7 131.5 80.5 c 128,-1,36
 52 168 52 168 52 347 c 0,37,38
 52 707 52 707 380 707 c 0,39,0
 427 707 427 707 474 697.5 c 128,-1,1
EndSplineSet
Substitution2: "'ss06' Style Set 6 lookup 13 subtable" seven.ss01
Substitution2: "'ss05' Style Set 5 lookup 11 subtable" G.ss05
Substitution2: "'ss04' Style Set 4 lookup 10 subtable" G.ss04
Substitution2: "'ss03' Style Set 3 lookup 9 subtable" G.ss03
Substitution2: "'ss02' Style Set 2 lookup 8 subtable" G.ss02
Substitution2: "'ss01' Style Set 1 lookup 7 subtable" G.ss01
Substitution2: "'salt' Stylistic Alternatives lookup 6 subtable" G.ss01
AlternateSubs2: "'aalt' Access All Alternates lookup 1 subtable" G.ss01 G.ss02 G.ss03 G.ss04 G.ss05
Position2: "'cpsp' Capital Spacing lookup 1 subtable" dx=5 dy=0 dh=10 dv=0
EndChar

StartChar: H
Encoding: 72 72 22
Width: 733
Flags: W
LayerCount: 2
Back
Fore
SplineSet
647 676 m 2,1,-1
 647 24 l 2,2,3
 647 -2 647 -2 599 -2 c 2,4,-1
 579 -2 l 2,5,6
 530 -2 530 -2 530 24 c 2,7,-1
 530 308 l 1,8,-1
 208 308 l 1,9,-1
 208 24 l 2,10,11
 208 -2 208 -2 160 -2 c 2,12,-1
 140 -2 l 2,13,14
 91 -2 91 -2 91 24 c 2,15,-1
 91 676 l 2,16,17
 91 702 91 702 140 702 c 2,18,-1
 160 702 l 2,19,20
 208 702 208 702 208 676 c 2,21,-1
 208 408 l 1,22,-1
 530 408 l 1,23,-1
 530 676 l 2,24,25
 530 702 530 702 579 702 c 2,26,-1
 599 702 l 2,27,0
 647 702 647 702 647 676 c 2,1,-1
EndSplineSet
Substitution2: "'ss06' Style Set 6 lookup 13 subtable" eight.ss01
Substitution2: "'ss05' Style Set 5 lookup 11 subtable" H.ss05
Substitution2: "'ss04' Style Set 4 lookup 10 subtable" H.ss04
Substitution2: "'ss02' Style Set 2 lookup 8 subtable" H.ss02
Substitution2: "'ss01' Style Set 1 lookup 7 subtable" H.ss01
Substitution2: "'salt' Stylistic Alternatives lookup 6 subtable" H.ss01
AlternateSubs2: "'aalt' Access All Alternates lookup 1 subtable" H.ss01 H.ss02 H.ss04 H.ss05
Position2: "'cpsp' Capital Spacing lookup 1 subtable" dx=5 dy=0 dh=10 dv=0
EndChar

StartChar: I
Encoding: 73 73 23
Width: 282
Flags: W
LayerCount: 2
Back
Fore
SplineSet
199 676 m 2,1,-1
 199 24 l 2,2,3
 199 -2 199 -2 151 -2 c 2,4,-1
 131 -2 l 2,5,6
 82 -2 82 -2 82 24 c 2,7,-1
 82 676 l 2,8,9
 82 702 82 702 131 702 c 2,10,-1
 151 702 l 2,11,0
 199 702 199 702 199 676 c 2,1,-1
EndSplineSet
Substitution2: "'ss06' Style Set 6 lookup 13 subtable" one.ss02
Substitution2: "'ss05' Style Set 5 lookup 11 subtable" I.ss05
Substitution2: "'ss04' Style Set 4 lookup 10 subtable" I.ss04
Substitution2: "'ss02' Style Set 2 lookup 8 subtable" I.ss02
Substitution2: "'ss01' Style Set 1 lookup 7 subtable" I.ss01
Substitution2: "'salt' Stylistic Alternatives lookup 6 subtable" I.ss01
AlternateSubs2: "'aalt' Access All Alternates lookup 1 subtable" I.ss01 I.ss02 I.ss04 I.ss05
Position2: "'cpsp' Capital Spacing lookup 1 subtable" dx=5 dy=0 dh=10 dv=0
EndChar

StartChar: J
Encoding: 74 74 28
Width: 402
Flags: W
LayerCount: 2
Back
Fore
SplineSet
326 676 m 2,1,-1
 326 204 l 2,2,3
 326 104 326 104 275 48.5 c 128,-1,4
 224 -7 224 -7 114 -7 c 0,5,6
 75 -7 75 -7 39 1 c 128,-1,7
 3 9 3 9 3 31 c 0,8,9
 3 47 3 47 11 74.5 c 128,-1,10
 19 102 19 102 33 103 c 0,11,12
 39 103 39 103 55.5 98.5 c 128,-1,13
 72 94 72 94 93 94 c 0,14,15
 154 94 154 94 181.5 121.5 c 128,-1,16
 209 149 209 149 209 209 c 2,17,-1
 209 676 l 2,18,19
 209 702 209 702 258 702 c 2,20,-1
 277 702 l 2,21,0
 326 702 326 702 326 676 c 2,1,-1
EndSplineSet
Substitution2: "'ss06' Style Set 6 lookup 13 subtable" two.ss02
Substitution2: "'ss05' Style Set 5 lookup 11 subtable" J.ss05
Substitution2: "'ss04' Style Set 4 lookup 10 subtable" J.ss04
Substitution2: "'ss02' Style Set 2 lookup 8 subtable" J.ss02
Substitution2: "'ss01' Style Set 1 lookup 7 subtable" J.ss01
Substitution2: "'salt' Stylistic Alternatives lookup 6 subtable" J.ss01
AlternateSubs2: "'aalt' Access All Alternates lookup 1 subtable" J.ss01 J.ss02 J.ss04 J.ss05
Position2: "'cpsp' Capital Spacing lookup 1 subtable" dx=5 dy=0 dh=10 dv=0
EndChar

StartChar: K
Encoding: 75 75 29
Width: 576
Flags: W
LayerCount: 2
Back
Fore
SplineSet
537 698 m 128,-1,1
 548 694 548 694 548 688 c 0,2,3
 548 680 548 680 539 668 c 2,4,-1
 313 363 l 1,5,-1
 580 31 l 2,6,7
 588 19 588 19 588 12 c 256,8,9
 588 5 588 5 576.5 1.5 c 128,-1,10
 565 -2 565 -2 539 -2 c 2,11,-1
 507 -2 l 2,12,13
 485 -2 485 -2 471 1 c 128,-1,14
 457 4 457 4 449 14 c 2,15,-1
 206 328 l 1,16,-1
 202 327 l 1,17,-1
 202 24 l 2,18,19
 202 -2 202 -2 154 -2 c 2,20,-1
 134 -2 l 2,21,22
 85 -2 85 -2 85 24 c 2,23,-1
 85 676 l 2,24,25
 85 702 85 702 134 702 c 2,26,-1
 154 702 l 2,27,28
 202 702 202 702 202 676 c 2,29,-1
 202 386 l 1,30,-1
 206 386 l 1,31,-1
 421 686 l 2,32,33
 432 702 432 702 477 702 c 2,34,-1
 504 702 l 2,35,0
 526 702 526 702 537 698 c 128,-1,1
EndSplineSet
Substitution2: "'ss06' Style Set 6 lookup 13 subtable" three.ss02
Substitution2: "'ss04' Style Set 4 lookup 10 subtable" K.ss04
Substitution2: "'ss02' Style Set 2 lookup 8 subtable" K.ss02
Substitution2: "'ss01' Style Set 1 lookup 7 subtable" K.ss01
Substitution2: "'salt' Stylistic Alternatives lookup 6 subtable" K.ss01
AlternateSubs2: "'aalt' Access All Alternates lookup 1 subtable" K.ss01 K.ss02 K.ss04
Position2: "'cpsp' Capital Spacing lookup 1 subtable" dx=5 dy=0 dh=10 dv=0
EndChar

StartChar: L
Encoding: 76 76 30
Width: 484
Flags: W
LayerCount: 2
Back
Fore
SplineSet
202 676 m 2,1,-1
 202 100 l 1,2,-1
 454 100 l 2,3,4
 467 100 467 100 472.5 90.5 c 128,-1,5
 478 81 478 81 478 61 c 2,6,-1
 478 39 l 2,7,8
 478 19 478 19 472.5 9.5 c 128,-1,9
 467 0 467 0 454 0 c 2,10,-1
 119 0 l 2,11,12
 101 0 101 0 93 8 c 128,-1,13
 85 16 85 16 85 34 c 2,14,-1
 85 676 l 2,15,16
 85 702 85 702 134 702 c 2,17,-1
 153 702 l 2,18,0
 202 702 202 702 202 676 c 2,1,-1
EndSplineSet
Substitution2: "'ss06' Style Set 6 lookup 13 subtable" four.ss02
Substitution2: "'ss04' Style Set 4 lookup 10 subtable" L.ss04
Substitution2: "'ss01' Style Set 1 lookup 7 subtable" L.ss01
Substitution2: "'salt' Stylistic Alternatives lookup 6 subtable" L.ss01
AlternateSubs2: "'aalt' Access All Alternates lookup 1 subtable" L.ss01 L.ss04
Position2: "'cpsp' Capital Spacing lookup 1 subtable" dx=5 dy=0 dh=10 dv=0
EndChar

StartChar: Lslash
Encoding: 321 321 31
Width: 486
Flags: W
LayerCount: 2
Back
Fore
SplineSet
195 676 m 2,1,-1
 195 459 l 1,2,-1
 294 518 l 2,3,4
 302 523 302 523 306 523 c 0,5,6
 316 523 316 523 316 507 c 2,7,-1
 316 495 l 2,8,9
 316 470 316 470 294 458 c 2,10,-1
 195 398 l 1,11,-1
 195 100 l 1,12,-1
 457 100 l 2,13,14
 470 100 470 100 475.5 90.5 c 128,-1,15
 481 81 481 81 481 61 c 2,16,-1
 481 39 l 2,17,18
 481 19 481 19 475.5 9.5 c 128,-1,19
 470 0 470 0 457 0 c 2,20,-1
 113 0 l 2,21,22
 95 0 95 0 87 8 c 128,-1,23
 79 16 79 16 79 34 c 2,24,-1
 79 327 l 1,25,-1
 32 300 l 2,26,27
 26 295 26 295 20 295 c 0,28,29
 10 295 10 295 10 312 c 2,30,-1
 10 324 l 2,31,32
 10 348 10 348 32 361 c 2,33,-1
 79 388 l 1,34,-1
 79 676 l 2,35,36
 79 702 79 702 127 702 c 2,37,-1
 147 702 l 2,38,0
 195 702 195 702 195 676 c 2,1,-1
EndSplineSet
Position2: "'cpsp' Capital Spacing lookup 1 subtable" dx=5 dy=0 dh=10 dv=0
EndChar

StartChar: M
Encoding: 77 77 32
Width: 843
Flags: W
LayerCount: 2
Back
Fore
SplineSet
762 676 m 2,1,-1
 762 24 l 2,2,3
 762 -2 762 -2 714 -2 c 2,4,-1
 697 -2 l 2,5,6
 648 -2 648 -2 648 24 c 2,7,-1
 648 508 l 1,8,-1
 645 506 l 1,9,-1
 470 198 l 2,10,11
 460 183 460 183 440 183 c 2,12,-1
 405 183 l 2,13,14
 386 183 386 183 375 198 c 2,15,-1
 198 510 l 1,16,-1
 195 512 l 1,17,-1
 195 24 l 2,18,19
 195 -2 195 -2 146 -2 c 2,20,-1
 130 -2 l 2,21,22
 81 -2 81 -2 81 24 c 2,23,-1
 81 676 l 2,24,25
 81 702 81 702 130 702 c 2,26,-1
 173 702 l 2,27,28
 212 702 212 702 224 680 c 2,29,-1
 404 365 l 1,30,-1
 422 323 l 1,31,-1
 441 363 l 1,32,-1
 621 680 l 2,33,34
 633 702 633 702 672 702 c 2,35,-1
 714 702 l 2,36,0
 762 702 762 702 762 676 c 2,1,-1
EndSplineSet
Substitution2: "'ss06' Style Set 6 lookup 13 subtable" five.ss02
Substitution2: "'ss04' Style Set 4 lookup 10 subtable" M.ss04
Substitution2: "'ss01' Style Set 1 lookup 7 subtable" M.ss01
Substitution2: "'salt' Stylistic Alternatives lookup 6 subtable" M.ss01
AlternateSubs2: "'aalt' Access All Alternates lookup 1 subtable" M.ss01 M.ss04
Position2: "'cpsp' Capital Spacing lookup 1 subtable" dx=5 dy=0 dh=10 dv=0
EndChar

StartChar: N
Encoding: 78 78 33
Width: 719
Flags: W
LayerCount: 2
Back
Fore
SplineSet
638 676 m 2,1,-1
 638 24 l 2,2,3
 638 -2 638 -2 590 -2 c 2,4,-1
 562 -2 l 2,5,6
 543 -2 543 -2 531.5 2.5 c 128,-1,7
 520 7 520 7 513 18 c 2,8,-1
 219 463 l 1,9,-1
 195 506 l 1,10,-1
 195 24 l 2,11,12
 195 -2 195 -2 146 -2 c 2,13,-1
 130 -2 l 2,14,15
 81 -2 81 -2 81 24 c 2,16,-1
 81 676 l 2,17,18
 81 702 81 702 130 702 c 2,19,-1
 160 702 l 2,20,21
 180 702 180 702 192 697 c 128,-1,22
 204 692 204 692 213 680 c 2,23,-1
 496 249 l 1,24,-1
 524 200 l 1,25,-1
 524 676 l 2,26,27
 524 702 524 702 573 702 c 2,28,-1
 590 702 l 2,29,0
 638 702 638 702 638 676 c 2,1,-1
EndSplineSet
Substitution2: "'ss06' Style Set 6 lookup 13 subtable" six.ss02
Substitution2: "'ss04' Style Set 4 lookup 10 subtable" N.ss04
Substitution2: "'ss01' Style Set 1 lookup 7 subtable" N.ss01
Substitution2: "'salt' Stylistic Alternatives lookup 6 subtable" N.ss01
AlternateSubs2: "'aalt' Access All Alternates lookup 1 subtable" N.ss01 N.ss04
Position2: "'cpsp' Capital Spacing lookup 1 subtable" dx=5 dy=0 dh=10 dv=0
EndChar

StartChar: O
Encoding: 79 79 35
Width: 731
Flags: W
LayerCount: 2
Back
Fore
SplineSet
599 616 m 128,-1,1
 679 525 679 525 679 351 c 0,2,3
 679 176 679 176 598.5 84.5 c 128,-1,4
 518 -7 518 -7 366 -7 c 0,5,6
 213 -7 213 -7 132.5 85 c 128,-1,7
 52 177 52 177 52 351 c 256,8,9
 52 525 52 525 132.5 616 c 128,-1,10
 213 707 213 707 366 707 c 256,11,0
 519 707 519 707 599 616 c 128,-1,1
221 541.5 m 128,-1,13
 172 477 172 477 172 351 c 256,14,15
 172 225 172 225 221.5 159 c 128,-1,16
 271 93 271 93 365 93 c 0,17,18
 460 93 460 93 509.5 159 c 128,-1,19
 559 225 559 225 559 351 c 256,20,21
 559 477 559 477 509.5 541.5 c 128,-1,22
 460 606 460 606 365 606 c 256,23,12
 270 606 270 606 221 541.5 c 128,-1,13
EndSplineSet
Substitution2: "Single Substitution lookup 14 subtable" ordmasculine
Substitution2: "'ss06' Style Set 6 lookup 13 subtable" seven.ss02
Substitution2: "'ss04' Style Set 4 lookup 10 subtable" O.ss04
Substitution2: "'ss01' Style Set 1 lookup 7 subtable" O.ss01
Substitution2: "'salt' Stylistic Alternatives lookup 6 subtable" O.ss01
AlternateSubs2: "'aalt' Access All Alternates lookup 1 subtable" ordmasculine O.ss01 O.ss04
Position2: "'cpsp' Capital Spacing lookup 1 subtable" dx=5 dy=0 dh=10 dv=0
EndChar

StartChar: Oslash
Encoding: 216 216 40
Width: 731
Flags: W
LayerCount: 2
Back
Fore
SplineSet
570 642 m 1,1,-1
 623 702 l 2,2,3
 632 712 632 712 641 712 c 256,4,5
 650 712 650 712 662 701 c 128,-1,6
 674 690 674 690 674 680 c 0,7,8
 674 672 674 672 666 664 c 2,9,-1
 610 601 l 1,10,11
 679 511 679 511 679 351 c 0,12,13
 679 177 679 177 598.5 85 c 128,-1,14
 518 -7 518 -7 365 -7 c 0,15,16
 219 -7 219 -7 141 76 c 1,17,-1
 78 6 l 2,18,19
 69 -5 69 -5 60 -5 c 256,20,21
 51 -5 51 -5 39 6 c 128,-1,22
 27 17 27 17 27 27 c 0,23,24
 27 36 27 36 35 44 c 2,25,-1
 105 122 l 1,26,27
 51 209 51 209 51 351 c 0,28,29
 51 525 51 525 131.5 616 c 128,-1,30
 212 707 212 707 365 707 c 0,31,0
 491 707 491 707 570 642 c 1,1,-1
221 541.5 m 128,-1,33
 172 477 172 477 172 351 c 0,34,35
 172 274 172 274 192 219 c 1,36,-1
 495 558 l 1,37,38
 447 606 447 606 365 606 c 0,39,32
 270 606 270 606 221 541.5 c 128,-1,33
219 163 m 1,40,41
 268 93 268 93 366 93 c 0,42,43
 460 93 460 93 509.5 159 c 128,-1,44
 559 225 559 225 559 351 c 0,45,46
 559 447 559 447 528 509 c 1,47,-1
 219 163 l 1,40,41
EndSplineSet
Position2: "'cpsp' Capital Spacing lookup 1 subtable" dx=5 dy=0 dh=10 dv=0
EndChar

StartChar: OE
Encoding: 338 338 42
Width: 1021
Flags: W
LayerCount: 2
Back
Fore
SplineSet
973.5 90.5 m 128,-1,1
 979 81 979 81 979 61 c 2,2,-1
 979 39 l 2,3,4
 979 19 979 19 973.5 9.5 c 128,-1,5
 968 0 968 0 955 0 c 2,6,-1
 596 0 l 2,7,8
 578 0 578 0 569.5 8 c 128,-1,9
 561 16 561 16 561 35 c 2,10,-1
 561 58 l 1,11,12
 486 -7 486 -7 361 -7 c 0,13,14
 211 -7 211 -7 131.5 84.5 c 128,-1,15
 52 176 52 176 52 351 c 0,16,17
 52 525 52 525 131.5 616 c 128,-1,18
 211 707 211 707 361 707 c 0,19,20
 485 707 485 707 561 643 c 1,21,-1
 561 667 l 2,22,23
 561 684 561 684 569.5 692 c 128,-1,24
 578 700 578 700 596 700 c 2,25,-1
 954 700 l 2,26,27
 967 700 967 700 972.5 690.5 c 128,-1,28
 978 681 978 681 978 661 c 2,29,-1
 978 639 l 2,30,31
 978 619 978 619 972.5 609.5 c 128,-1,32
 967 600 967 600 954 600 c 2,33,-1
 678 600 l 1,34,-1
 678 408 l 1,35,-1
 925 408 l 2,36,37
 938 408 938 408 943.5 399 c 128,-1,38
 949 390 949 390 949 369 c 2,39,-1
 949 347 l 2,40,41
 949 327 949 327 943.5 317.5 c 128,-1,42
 938 308 938 308 925 308 c 2,43,-1
 678 308 l 1,44,-1
 678 100 l 1,45,-1
 955 100 l 2,46,0
 968 100 968 100 973.5 90.5 c 128,-1,1
509.5 159 m 128,-1,48
 559 225 559 225 559 351 c 256,49,50
 559 477 559 477 509.5 541.5 c 128,-1,51
 460 606 460 606 365 606 c 256,52,53
 270 606 270 606 221 541.5 c 128,-1,54
 172 477 172 477 172 351 c 256,55,56
 172 225 172 225 221.5 159 c 128,-1,57
 271 93 271 93 365 93 c 0,58,47
 460 93 460 93 509.5 159 c 128,-1,48
EndSplineSet
Position2: "'cpsp' Capital Spacing lookup 1 subtable" dx=5 dy=0 dh=10 dv=0
EndChar

StartChar: P
Encoding: 80 80 43
Width: 570
Flags: W
LayerCount: 2
Back
Fore
SplineSet
478.5 656.5 m 128,-1,1
 548 613 548 613 548 494 c 0,2,3
 548 409 548 409 508 362 c 128,-1,4
 468 315 468 315 417.5 298.5 c 128,-1,5
 367 282 367 282 328 282 c 2,6,-1
 195 282 l 1,7,-1
 195 24 l 2,8,9
 195 -2 195 -2 146 -2 c 2,10,-1
 127 -2 l 2,11,12
 78 -2 78 -2 78 24 c 2,13,-1
 78 666 l 2,14,15
 78 684 78 684 86 692 c 128,-1,16
 94 700 94 700 112 700 c 2,17,-1
 318 700 l 2,18,0
 409 700 409 700 478.5 656.5 c 128,-1,1
195 600 m 1,19,-1
 195 383 l 1,20,-1
 322 383 l 2,21,22
 362 383 362 383 395 407.5 c 128,-1,23
 428 432 428 432 428 494 c 0,24,25
 428 553 428 553 394.5 576.5 c 128,-1,26
 361 600 361 600 314 600 c 2,27,-1
 195 600 l 1,19,-1
EndSplineSet
Substitution2: "'ss06' Style Set 6 lookup 13 subtable" eight.ss02
Substitution2: "'ss01' Style Set 1 lookup 7 subtable" P.ss01
Substitution2: "'salt' Stylistic Alternatives lookup 6 subtable" P.ss01
Substitution2: "'aalt' Access All Alternates lookup 0 subtable" P.ss01
Position2: "'cpsp' Capital Spacing lookup 1 subtable" dx=5 dy=0 dh=10 dv=0
EndChar

StartChar: Thorn
Encoding: 222 222 44
Width: 567
Flags: W
LayerCount: 2
Back
Fore
SplineSet
195 676 m 2,1,-1
 195 585 l 1,2,-1
 321 585 l 2,3,4
 412 585 412 585 481.5 541.5 c 128,-1,5
 551 498 551 498 551 379 c 0,6,7
 551 294 551 294 511 246.5 c 128,-1,8
 471 199 471 199 421 183 c 128,-1,9
 371 167 371 167 331 167 c 2,10,-1
 195 167 l 1,11,-1
 195 24 l 2,12,13
 195 -2 195 -2 146 -2 c 2,14,-1
 127 -2 l 2,15,16
 78 -2 78 -2 78 24 c 2,17,-1
 78 676 l 2,18,19
 78 702 78 702 127 702 c 2,20,-1
 146 702 l 2,21,0
 195 702 195 702 195 676 c 2,1,-1
194 485 m 1,22,-1
 194 267 l 1,23,-1
 324 267 l 2,24,25
 364 267 364 267 397 292 c 128,-1,26
 430 317 430 317 430 379 c 0,27,28
 430 438 430 438 396.5 461.5 c 128,-1,29
 363 485 363 485 316 485 c 2,30,-1
 194 485 l 1,22,-1
EndSplineSet
Position2: "'cpsp' Capital Spacing lookup 1 subtable" dx=5 dy=0 dh=10 dv=0
EndChar

StartChar: Q
Encoding: 81 81 45
Width: 731
Flags: W
LayerCount: 2
Back
Fore
SplineSet
598.5 615 m 128,-1,1
 679 523 679 523 679 348 c 0,2,3
 679 217 679 217 632.5 132.5 c 128,-1,4
 586 48 586 48 498 16 c 1,5,-1
 498 12 l 1,6,-1
 675 -47 l 2,7,8
 689 -52 689 -52 689 -62 c 0,9,10
 689 -71 689 -71 682.5 -92 c 128,-1,11
 676 -113 676 -113 665 -130 c 128,-1,12
 654 -147 654 -147 642 -147 c 0,13,14
 632 -147 632 -147 332 -27 c 2,15,-1
 238 10 l 2,16,17
 52 84 52 84 52 348 c 0,18,19
 52 523 52 523 132.5 615 c 128,-1,20
 213 707 213 707 366 707 c 0,21,0
 518 707 518 707 598.5 615 c 128,-1,1
222 540 m 128,-1,23
 172 474 172 474 172 348 c 256,24,25
 172 222 172 222 222 156 c 128,-1,26
 272 90 272 90 365 90 c 0,27,28
 459 90 459 90 509 156.5 c 128,-1,29
 559 223 559 223 559 348 c 256,30,31
 559 473 559 473 509 539.5 c 128,-1,32
 459 606 459 606 365 606 c 0,33,22
 272 606 272 606 222 540 c 128,-1,23
EndSplineSet
Substitution2: "'ss06' Style Set 6 lookup 13 subtable" one.ss03
Substitution2: "'ss01' Style Set 1 lookup 7 subtable" Q.ss01
Substitution2: "'salt' Stylistic Alternatives lookup 6 subtable" Q.ss01
Substitution2: "'aalt' Access All Alternates lookup 0 subtable" Q.ss01
Position2: "'cpsp' Capital Spacing lookup 1 subtable" dx=5 dy=0 dh=10 dv=0
EndChar

StartChar: R
Encoding: 82 82 46
Width: 610
Flags: W
LayerCount: 2
Back
Fore
SplineSet
483.5 655.5 m 128,-1,1
 544 611 544 611 544 518 c 0,2,3
 544 459 544 459 513 417 c 128,-1,4
 482 375 482 375 428 354 c 1,5,-1
 428 350 l 1,6,7
 473 333 473 333 510 239 c 2,8,-1
 592 32 l 2,9,10
 596 23 596 23 596 16 c 0,11,12
 596 -2 596 -2 546 -2 c 2,13,-1
 523 -2 l 2,14,15
 504 -2 504 -2 491.5 2.5 c 128,-1,16
 479 7 479 7 475 16 c 2,17,-1
 398 212 l 2,18,19
 378 258 378 258 351 275.5 c 128,-1,20
 324 293 324 293 270 293 c 2,21,-1
 202 293 l 1,22,-1
 202 24 l 2,23,24
 202 -2 202 -2 153 -2 c 2,25,-1
 134 -2 l 2,26,27
 85 -2 85 -2 85 24 c 2,28,-1
 85 666 l 2,29,30
 85 684 85 684 93 692 c 128,-1,31
 101 700 101 700 119 700 c 2,32,-1
 299 700 l 2,33,0
 423 700 423 700 483.5 655.5 c 128,-1,1
202 600 m 1,34,-1
 202 394 l 1,35,-1
 318 394 l 2,36,37
 361 394 361 394 392.5 425.5 c 128,-1,38
 424 457 424 457 424 501 c 0,39,40
 424 549 424 549 393.5 574.5 c 128,-1,41
 363 600 363 600 311 600 c 2,42,-1
 202 600 l 1,34,-1
EndSplineSet
Substitution2: "'ss06' Style Set 6 lookup 13 subtable" two.ss03
Substitution2: "'ss01' Style Set 1 lookup 7 subtable" R.ss01
Substitution2: "'salt' Stylistic Alternatives lookup 6 subtable" R.ss01
Substitution2: "'aalt' Access All Alternates lookup 0 subtable" R.ss01
Position2: "'cpsp' Capital Spacing lookup 1 subtable" dx=5 dy=0 dh=10 dv=0
EndChar

StartChar: S
Encoding: 83 83 47
Width: 500
Flags: W
LayerCount: 2
Back
Fore
SplineSet
350.5 698 m 128,-1,1
 390 689 390 689 415.5 674 c 128,-1,2
 441 659 441 659 441 642 c 0,3,4
 441 626 441 626 425.5 600 c 128,-1,5
 410 574 410 574 399 574 c 0,6,7
 396 574 396 574 380 581 c 0,8,9
 357 592 357 592 334 599 c 128,-1,10
 311 606 311 606 277 606 c 0,11,12
 222 606 222 606 193 582 c 128,-1,13
 164 558 164 558 164 518 c 0,14,15
 164 488 164 488 180 468.5 c 128,-1,16
 196 449 196 449 218 437.5 c 128,-1,17
 240 426 240 426 287 408 c 0,18,19
 346 385 346 385 383 363.5 c 128,-1,20
 420 342 420 342 446.5 301.5 c 128,-1,21
 473 261 473 261 473 198 c 0,22,23
 473 98 473 98 410 45.5 c 128,-1,24
 347 -7 347 -7 249 -7 c 0,25,26
 187 -7 187 -7 137 6 c 128,-1,27
 87 19 87 19 58.5 38 c 128,-1,28
 30 57 30 57 30 73 c 0,29,30
 30 90 30 90 47.5 116 c 128,-1,31
 65 142 65 142 77 142 c 0,32,33
 82 142 82 142 99 132 c 0,34,35
 132 115 132 115 163.5 104 c 128,-1,36
 195 93 195 93 238 93 c 0,37,38
 287 93 287 93 320 118.5 c 128,-1,39
 353 144 353 144 353 190 c 0,40,41
 353 220 353 220 336 241 c 128,-1,42
 319 262 319 262 293.5 275 c 128,-1,43
 268 288 268 288 223 307 c 2,44,-1
 200 316 l 2,45,46
 151 337 151 337 118.5 358 c 128,-1,47
 86 379 86 379 64.5 417 c 128,-1,48
 43 455 43 455 43 514 c 0,49,50
 43 574 43 574 73.5 618 c 128,-1,51
 104 662 104 662 156 684.5 c 128,-1,52
 208 707 208 707 272 707 c 0,53,0
 311 707 311 707 350.5 698 c 128,-1,1
EndSplineSet
Substitution2: "'ss06' Style Set 6 lookup 13 subtable" three.ss03
Substitution2: "'ss01' Style Set 1 lookup 7 subtable" S.ss01
Substitution2: "'salt' Stylistic Alternatives lookup 6 subtable" S.ss01
Substitution2: "'aalt' Access All Alternates lookup 0 subtable" S.ss01
Position2: "'cpsp' Capital Spacing lookup 1 subtable" dx=5 dy=0 dh=10 dv=0
EndChar

StartChar: T
Encoding: 84 84 49
Width: 549
Flags: W
LayerCount: 2
Back
Fore
SplineSet
528.5 690.5 m 128,-1,1
 534 681 534 681 534 661 c 2,2,-1
 534 639 l 2,3,4
 534 619 534 619 528.5 609.5 c 128,-1,5
 523 600 523 600 510 600 c 2,6,-1
 334 600 l 1,7,-1
 334 24 l 2,8,9
 334 -2 334 -2 285 -2 c 2,10,-1
 266 -2 l 2,11,12
 217 -2 217 -2 217 24 c 2,13,-1
 217 600 l 1,14,-1
 39 600 l 2,15,16
 26 600 26 600 20.5 609.5 c 128,-1,17
 15 619 15 619 15 639 c 2,18,-1
 15 661 l 2,19,20
 15 681 15 681 20.5 690.5 c 128,-1,21
 26 700 26 700 39 700 c 2,22,-1
 510 700 l 2,23,0
 523 700 523 700 528.5 690.5 c 128,-1,1
EndSplineSet
Substitution2: "'ss06' Style Set 6 lookup 13 subtable" four.ss03
Substitution2: "'ss01' Style Set 1 lookup 7 subtable" T.ss01
Substitution2: "'salt' Stylistic Alternatives lookup 6 subtable" T.ss01
Substitution2: "'aalt' Access All Alternates lookup 0 subtable" T.ss01
Position2: "'cpsp' Capital Spacing lookup 1 subtable" dx=5 dy=0 dh=10 dv=0
EndChar

StartChar: U
Encoding: 85 85 50
Width: 712
Flags: W
LayerCount: 2
Back
Fore
SplineSet
637 676 m 2,1,-1
 637 228 l 2,2,3
 637 117 637 117 563.5 55 c 128,-1,4
 490 -7 490 -7 356 -7 c 256,5,6
 222 -7 222 -7 149 55 c 128,-1,7
 76 117 76 117 76 228 c 2,8,-1
 76 676 l 2,9,10
 76 702 76 702 125 702 c 2,11,-1
 144 702 l 2,12,13
 193 702 193 702 193 676 c 2,14,-1
 193 231 l 2,15,16
 193 170 193 170 239 131.5 c 128,-1,17
 285 93 285 93 356 93 c 0,18,19
 428 93 428 93 474 132 c 128,-1,20
 520 171 520 171 520 231 c 2,21,-1
 520 676 l 2,22,23
 520 702 520 702 569 702 c 2,24,-1
 588 702 l 2,25,0
 637 702 637 702 637 676 c 2,1,-1
EndSplineSet
Substitution2: "'ss06' Style Set 6 lookup 13 subtable" five.ss03
Substitution2: "'ss01' Style Set 1 lookup 7 subtable" U.ss01
Substitution2: "'salt' Stylistic Alternatives lookup 6 subtable" U.ss01
Substitution2: "'aalt' Access All Alternates lookup 0 subtable" U.ss01
Position2: "'cpsp' Capital Spacing lookup 1 subtable" dx=5 dy=0 dh=10 dv=0
EndChar

StartChar: V
Encoding: 86 86 55
Width: 617
Flags: W
LayerCount: 2
Back
Fore
SplineSet
601 683 m 0,1,2
 601 678 601 678 598 667 c 2,3,-1
 375 16 l 2,4,5
 369 -2 369 -2 328 -2 c 2,6,-1
 288 -2 l 2,7,8
 246 -2 246 -2 241 16 c 2,9,-1
 17 668 l 2,10,11
 14 677 14 677 14 683 c 0,12,13
 14 702 14 702 65 702 c 2,14,-1
 84 702 l 2,15,16
 125 702 125 702 133 680 c 2,17,-1
 296 190 l 1,18,-1
 306 146 l 1,19,-1
 310 146 l 1,20,-1
 321 191 l 1,21,-1
 486 680 l 2,22,23
 493 702 493 702 534 702 c 2,24,-1
 551 702 l 2,25,0
 601 702 601 702 601 683 c 0,1,2
EndSplineSet
Substitution2: "'ss06' Style Set 6 lookup 13 subtable" six.ss03
Position2: "'cpsp' Capital Spacing lookup 1 subtable" dx=5 dy=0 dh=10 dv=0
EndChar

StartChar: W
Encoding: 87 87 56
Width: 882
Flags: W
LayerCount: 2
Back
Fore
SplineSet
876 681 m 0,1,2
 876 677 876 677 875 673.5 c 128,-1,3
 874 670 874 670 873 667 c 2,4,-1
 704 16 l 2,5,6
 700 -2 700 -2 658 -2 c 2,7,-1
 603 -2 l 2,8,9
 560 -2 560 -2 556 16 c 2,10,-1
 459 397 l 1,11,-1
 440 500 l 1,12,-1
 421 397 l 1,13,-1
 323 16 l 2,14,15
 317 -2 317 -2 276 -2 c 2,16,-1
 221 -2 l 2,17,18
 179 -2 179 -2 175 16 c 2,19,-1
 10 667 l 2,20,21
 7 675 7 675 7 681 c 0,22,23
 7 702 7 702 58 702 c 2,24,-1
 75 702 l 2,25,26
 121 702 121 702 127 679 c 2,27,-1
 231 262 l 2,28,29
 237 240 237 240 247 187 c 2,30,-1
 255 146 l 1,31,32
 263 188 263 188 275 231 c 2,33,-1
 283 263 l 1,34,-1
 387 683 l 2,35,36
 390 694 390 694 401.5 698 c 128,-1,37
 413 702 413 702 433 702 c 2,38,-1
 459 702 l 2,39,40
 501 702 501 702 505 683 c 2,41,-1
 609 261 l 1,42,-1
 625 188 l 2,43,44
 630 157 630 157 634 143 c 1,45,-1
 662 263 l 1,46,-1
 764 679 l 2,47,48
 770 702 770 702 816 702 c 2,49,-1
 824 702 l 2,50,0
 876 702 876 702 876 681 c 0,1,2
EndSplineSet
Substitution2: "'ss06' Style Set 6 lookup 13 subtable" seven.ss03
Position2: "'cpsp' Capital Spacing lookup 1 subtable" dx=5 dy=0 dh=10 dv=0
EndChar

StartChar: X
Encoding: 88 88 57
Width: 611
Flags: W
LayerCount: 2
Back
Fore
SplineSet
579 684 m 0,1,2
 579 677 579 677 570 663 c 2,3,-1
 375 367 l 1,4,-1
 589 37 l 2,5,6
 597 24 597 24 597 16 c 0,7,8
 597 -2 597 -2 544 -2 c 2,9,-1
 518 -2 l 2,10,11
 498 -2 498 -2 485.5 1.5 c 128,-1,12
 473 5 473 5 467 15 c 2,13,-1
 305 264 l 1,14,-1
 140 14 l 2,15,16
 134 4 134 4 121.5 1 c 128,-1,17
 109 -2 109 -2 90 -2 c 2,18,-1
 68 -2 l 2,19,20
 15 -2 15 -2 15 16 c 0,21,22
 15 24 15 24 24 37 c 2,23,-1
 240 365 l 1,24,-1
 47 663 l 2,25,26
 39 676 39 676 39 684 c 0,27,28
 39 702 39 702 92 702 c 2,29,-1
 118 702 l 2,30,31
 138 702 138 702 150.5 698.5 c 128,-1,32
 163 695 163 695 169 685 c 2,33,-1
 309 468 l 1,34,-1
 454 686 l 2,35,36
 465 702 465 702 505 702 c 2,37,-1
 525 702 l 2,38,0
 579 702 579 702 579 684 c 0,1,2
EndSplineSet
Substitution2: "'ss06' Style Set 6 lookup 13 subtable" eight.ss03
Substitution2: "'ss05' Style Set 5 lookup 11 subtable" X.ss05
Substitution2: "'aalt' Access All Alternates lookup 0 subtable" X.ss05
Position2: "'cpsp' Capital Spacing lookup 1 subtable" dx=5 dy=0 dh=10 dv=0
EndChar

StartChar: Y
Encoding: 89 89 58
Width: 559
Flags: W
LayerCount: 2
Back
Fore
SplineSet
502 702 m 2,0,1
 552 701 552 701 552 684 c 0,2,3
 552 679 552 679 544 663 c 2,4,-1
 338 346 l 1,5,-1
 338 24 l 2,6,7
 338 -2 338 -2 290 -2 c 2,8,-1
 270 -2 l 2,9,10
 222 -2 222 -2 222 24 c 2,11,-1
 222 349 l 1,12,-1
 17 663 l 2,13,14
 8 675 8 675 8 684 c 0,15,16
 8 702 8 702 62 702 c 2,17,-1
 87 702 l 2,18,19
 107 702 107 702 119 698.5 c 128,-1,20
 131 695 131 695 137 685 c 2,21,-1
 283 453 l 1,22,-1
 431 686 l 2,23,24
 441 702 441 702 483 702 c 2,25,-1
 502 702 l 2,0,1
EndSplineSet
Position2: "'cpsp' Capital Spacing lookup 1 subtable" dx=5 dy=0 dh=10 dv=0
EndChar

StartChar: Z
Encoding: 90 90 61
Width: 616
Flags: W
LayerCount: 2
Back
Fore
SplineSet
564.5 674 m 128,-1,1
 575 648 575 648 575 630 c 0,2,3
 575 624 575 624 573 620 c 2,4,-1
 196 100 l 1,5,-1
 549 100 l 2,6,7
 562 100 562 100 568 90.5 c 128,-1,8
 574 81 574 81 574 59 c 2,9,-1
 574 41 l 2,10,11
 574 19 574 19 568 9.5 c 128,-1,12
 562 0 562 0 549 0 c 2,13,-1
 64 0 l 2,14,15
 54 0 54 0 43.5 25 c 128,-1,16
 33 50 33 50 33 69 c 0,17,18
 33 76 33 76 36 80 c 2,19,-1
 413 600 l 1,20,-1
 89 600 l 2,21,22
 76 600 76 600 70 609.5 c 128,-1,23
 64 619 64 619 64 641 c 2,24,-1
 64 659 l 2,25,26
 64 681 64 681 70 690.5 c 128,-1,27
 76 700 76 700 89 700 c 2,28,-1
 546 700 l 2,29,0
 554 700 554 700 564.5 674 c 128,-1,1
EndSplineSet
Position2: "'cpsp' Capital Spacing lookup 1 subtable" dx=5 dy=0 dh=10 dv=0
EndChar

StartChar: E.ss04.alt
Encoding: 65537 -1 63
Width: 700
Flags: W
LayerCount: 2
Back
Fore
SplineSet
293 547 m 2,1,-1
 312 547 l 2,2,3
 317 547 317 547 321.5 550 c 128,-1,4
 326 553 326 553 326 558 c 2,5,-1
 326 562 l 2,6,7
 327 575 327 575 332.5 585.5 c 128,-1,8
 338 596 338 596 359 613 c 0,9,10
 368 619 368 619 375 626 c 2,11,-1
 380 630 l 2,12,13
 403 652 403 652 403 685 c 0,14,15
 403 716 403 716 381 735 c 0,16,17
 358 754 358 754 319 754 c 0,18,19
 287 754 287 754 268 745 c 0,20,21
 255 741 255 741 243 732.5 c 128,-1,22
 231 724 231 724 231 716 c 256,23,24
 231 708 231 708 239 697 c 0,25,26
 248 685 248 685 255 685 c 0,27,28
 261 687 261 687 275 694 c 2,29,-1
 283 697 l 2,30,31
 299 703 299 703 314 703 c 0,32,33
 342 703 342 703 342 681 c 0,34,35
 342 672 342 672 334.5 661.5 c 128,-1,36
 327 651 327 651 318.5 642.5 c 128,-1,37
 310 634 310 634 308 631 c 2,38,39
 308 631 308 631 301 624 c 0,40,41
 275 596 275 596 275 559 c 0,42,0
 275 547 275 547 293 547 c 2,1,-1
294 460 m 2,44,-1
 306 460 l 2,45,46
 329 460 329 460 329 473 c 2,47,-1
 329 508 l 2,48,49
 329 521 329 521 306 521 c 2,50,-1
 294 521 l 2,51,52
 269 521 269 521 269 508 c 2,53,-1
 269 473 l 2,54,43
 269 460 269 460 294 460 c 2,44,-1
546 451 m 2,55,56
 550 451 550 451 553 448 c 128,-1,57
 556 445 556 445 556 440 c 2,58,-1
 556 363 l 1,59,-1
 627 363 l 2,60,61
 658 363 658 363 679 343 c 128,-1,62
 700 323 700 323 700 294 c 0,63,64
 700 266 700 266 679 246 c 128,-1,65
 658 226 658 226 627 226 c 0,66,67
 618 226 618 226 616 230 c 0,68,69
 613 236 613 236 613 247 c 2,70,-1
 613 251 l 2,71,72
 613 259 613 259 617 263 c 0,73,74
 619 265 619 265 627 265 c 0,75,76
 640 265 640 265 650 273.5 c 128,-1,77
 660 282 660 282 660 294 c 256,78,79
 660 306 660 306 650 315 c 128,-1,80
 640 324 640 324 627 324 c 2,81,-1
 556 324 l 1,82,-1
 556 247 l 2,83,84
 556 242 556 242 553 239 c 128,-1,85
 550 236 550 236 546 236 c 2,86,-1
 537 237 l 1,87,-1
 114 322 l 2,88,89
 96 326 96 326 96 336 c 2,90,-1
 96 351 l 2,91,92
 96 360 96 360 114 364 c 2,93,-1
 537 450 l 1,94,-1
 546 451 l 2,55,56
81 330 m 1,95,-1
 13 330 l 2,96,97
 8 330 8 330 4 333.5 c 128,-1,98
 0 337 0 337 0 343 c 0,99,100
 0 348 0 348 3.5 352 c 128,-1,101
 7 356 7 356 13 356 c 2,102,-1
 81 356 l 1,103,-1
 81 330 l 1,95,-1
145 255 m 1,104,-1
 145 0 l 1,105,-1
 113 0 l 2,106,107
 106 0 106 0 101 5 c 128,-1,108
 96 10 96 10 96 17 c 2,109,-1
 96 238 l 2,110,111
 96 245 96 245 101 250 c 128,-1,112
 106 255 106 255 113 255 c 2,113,-1
 145 255 l 1,104,-1
268 5 m 128,-1,115
 263 0 263 0 256 0 c 2,116,-1
 182 0 l 1,117,-1
 182 255 l 1,118,-1
 256 255 l 2,119,120
 263 255 263 255 268 250 c 128,-1,121
 273 245 273 245 273 238 c 2,122,-1
 273 17 l 2,123,114
 273 10 273 10 268 5 c 128,-1,115
237 219 m 128,-1,125
 240 216 240 216 245 216 c 0,126,127
 249 216 249 216 252 219 c 128,-1,128
 255 222 255 222 255 227 c 0,129,130
 255 231 255 231 252 234 c 128,-1,131
 249 237 249 237 245 237 c 0,132,133
 240 237 240 237 237 234 c 128,-1,134
 234 231 234 231 234 227 c 0,135,124
 234 222 234 222 237 219 c 128,-1,125
557.5 158.5 m 128,-1,137
 557 157 557 157 556 156 c 2,138,-1
 540 142 l 2,139,140
 539 139 539 139 536 142 c 2,141,-1
 527 155 l 2,142,143
 525 157 525 157 523 155 c 2,144,-1
 514 142 l 2,145,146
 512 140 512 140 509 142 c 2,147,-1
 500 155 l 2,148,149
 498 157 498 157 496 155 c 2,150,-1
 488 143 l 2,151,152
 486 141 486 141 485 141 c 0,153,154
 484 140 484 140 482.5 140.5 c 128,-1,155
 481 141 481 141 481 142 c 2,156,-1
 472 155 l 2,157,158
 471 158 471 158 468 155 c 2,159,-1
 459 143 l 2,160,161
 457 141 457 141 454 141 c 2,162,-1
 435 141 l 1,163,-1
 435 126 l 2,164,165
 434 125 434 125 432 126 c 2,166,-1
 421 136 l 1,167,168
 415 121 415 121 401 111.5 c 128,-1,169
 387 102 387 102 370 102 c 0,170,171
 345 102 345 102 328.5 119 c 128,-1,172
 312 136 312 136 312 160 c 0,173,174
 313 183 313 183 329.5 199.5 c 128,-1,175
 346 216 346 216 370 216 c 0,176,177
 387 216 387 216 401 206.5 c 128,-1,178
 415 197 415 197 422 182 c 1,179,-1
 432 192 l 2,180,181
 434 194 434 194 435 192 c 2,182,-1
 435 178 l 1,183,-1
 541 178 l 2,184,185
 544 178 544 178 546 176 c 2,186,-1
 557 161 l 2,187,136
 558 160 558 160 557.5 158.5 c 128,-1,137
245 182 m 0,189,190
 255 182 255 182 255 193 c 0,191,192
 255 197 255 197 252 200 c 128,-1,193
 249 203 249 203 245 203 c 0,194,195
 240 203 240 203 237 200 c 128,-1,196
 234 197 234 197 234 193 c 0,197,188
 234 182 234 182 245 182 c 0,189,190
363 147.5 m 128,-1,199
 368 153 368 153 368 160 c 256,200,201
 368 167 368 167 362.5 172 c 128,-1,202
 357 177 357 177 350 177 c 256,203,204
 343 177 343 177 338 172 c 128,-1,205
 333 167 333 167 333 160 c 256,206,207
 333 153 333 153 338 147.5 c 128,-1,208
 343 142 343 142 350 142 c 0,209,198
 358 142 358 142 363 147.5 c 128,-1,199
237 151 m 128,-1,211
 240 148 240 148 245 148 c 0,212,213
 249 148 249 148 252 151 c 128,-1,214
 255 154 255 154 255 159 c 0,215,216
 255 163 255 163 252 166 c 128,-1,217
 249 169 249 169 245 169 c 0,218,219
 240 169 240 169 237 166 c 128,-1,220
 234 163 234 163 234 159 c 0,221,210
 234 154 234 154 237 151 c 128,-1,211
323 60 m 2,222,223
 325 64 325 64 328 64 c 2,224,-1
 438 64 l 1,225,226
 438 72 438 72 444 80 c 128,-1,227
 450 88 450 88 462 89 c 2,228,-1
 532 94 l 2,229,230
 552 94 552 94 559 79 c 0,231,232
 561 74 561 74 563 63.5 c 128,-1,233
 565 53 565 53 565 43 c 256,234,235
 565 33 565 33 563 23.5 c 128,-1,236
 561 14 561 14 559 9 c 0,237,238
 553 -6 553 -6 532 -6 c 2,239,-1
 462 -1 l 2,240,241
 450 0 450 0 444 7.5 c 128,-1,242
 438 15 438 15 438 24 c 1,243,-1
 391 24 l 1,244,-1
 385 26 l 1,245,-1
 376 38 l 2,246,247
 373 41 373 41 372 38 c 2,248,-1
 362 25 l 2,249,250
 360 23 360 23 357 25 c 2,251,-1
 348 38 l 2,252,253
 346 41 346 41 343 38 c 2,254,-1
 334 25 l 2,255,256
 332 23 332 23 329 25 c 2,257,-1
 313 40 l 2,258,259
 311 42 311 42 312 45 c 2,260,-1
 323 60 l 2,222,223
515 28 m 2,261,262
 515 17 515 17 522 17 c 2,263,-1
 533 17 l 2,264,265
 539 17 539 17 539 28 c 2,266,-1
 539 58 l 2,267,268
 539 71 539 71 533 71 c 2,269,-1
 522 71 l 2,270,271
 515 71 515 71 515 58 c 2,272,-1
 515 28 l 2,261,262
EndSplineSet
EndChar

StartChar: A.ss01
Encoding: 65538 -1 64
Width: 730
Flags: W
LayerCount: 2
Back
Fore
SplineSet
453 0 m 0,1,2
 459 0 459 0 464 4 c 128,-1,3
 469 8 469 8 469 14 c 0,4,5
 469 17 469 17 466 26 c 2,6,-1
 336 414 l 2,7,8
 331 429 331 429 314 429 c 2,9,-1
 311 429 l 1,10,11
 313 483 313 483 313 518 c 0,12,13
 317 644 317 644 317 669 c 0,14,15
 317 712 317 712 276 727 c 0,16,17
 252 736 252 736 230 751 c 128,-1,18
 208 766 208 766 208 778 c 2,19,-1
 208 796 l 1,20,21
 221 804 221 804 221 826 c 2,22,-1
 224 891 l 2,23,24
 224 908 224 908 209.5 919 c 128,-1,25
 195 930 195 930 176 930 c 0,26,27
 156 930 156 930 141.5 919 c 128,-1,28
 127 908 127 908 127 891 c 2,29,-1
 130 826 l 2,30,31
 131 805 131 805 143 796 c 1,32,-1
 143 778 l 2,33,34
 143 766 143 766 121 751 c 128,-1,35
 99 736 99 736 75 727 c 0,36,37
 53 719 53 719 44 704.5 c 128,-1,38
 35 690 35 690 35 669 c 0,39,40
 35 644 35 644 39 520 c 0,41,42
 39 484 39 484 41 432 c 0,43,44
 42 413 42 413 51.5 403 c 128,-1,45
 61 393 61 393 76 393 c 1,46,-1
 91 22 l 2,47,48
 91 0 91 0 127 0 c 0,49,50
 145 0 145 0 156 6 c 128,-1,51
 167 12 167 12 167 22 c 2,52,-1
 167 393 l 1,53,-1
 186 393 l 1,54,-1
 186 22 l 2,55,56
 186 12 186 12 196 6 c 128,-1,57
 206 0 206 0 224 0 c 0,58,59
 241 0 241 0 250.5 6 c 128,-1,60
 260 12 260 12 261 22 c 2,61,-1
 275 393 l 1,62,-1
 303 393 l 1,63,-1
 435 14 l 2,64,0
 441 0 441 0 453 0 c 0,1,2
640 393 m 2,66,-1
 640 365 l 1,67,-1
 709 329 l 2,68,69
 718 325 718 325 718 320 c 0,70,71
 718 310 718 310 711 298 c 0,72,73
 705 288 705 288 699.5 284.5 c 128,-1,74
 694 281 694 281 686 281 c 2,75,-1
 643 281 l 1,76,-1
 619 166 l 1,77,-1
 620 15 l 2,78,79
 620 0 620 0 596 0 c 0,80,81
 583 0 583 0 574 4 c 128,-1,82
 565 8 565 8 565 15 c 2,83,-1
 554 142 l 1,84,-1
 497 142 l 2,85,86
 468 142 468 142 444 148 c 1,87,-1
 400 279 l 1,88,-1
 541 271 l 1,89,-1
 632 395 l 2,90,91
 635 398 635 398 637 398 c 0,92,65
 640 398 640 398 640 393 c 2,66,-1
386 102 m 1,93,-1
 372 15 l 2,94,95
 371 5 371 5 365 2.5 c 128,-1,96
 359 0 359 0 341 0 c 0,97,98
 316 0 316 0 316 15 c 2,99,-1
 330 264 l 1,100,-1
 386 102 l 1,93,-1
EndSplineSet
EndChar

StartChar: B.ss01
Encoding: 65539 -1 65
Width: 730
Flags: W
LayerCount: 2
Back
Fore
SplineSet
276 393 m 1,1,-1
 261 22 l 2,2,3
 260 0 260 0 225 0 c 0,4,5
 207 0 207 0 196 6 c 128,-1,6
 185 12 185 12 185 22 c 2,7,-1
 185 389 l 1,8,-1
 166 389 l 1,9,-1
 166 22 l 2,10,11
 166 12 166 12 155.5 6 c 128,-1,12
 145 0 145 0 127 0 c 0,13,14
 92 0 92 0 91 22 c 2,15,-1
 75 393 l 1,16,17
 58 393 58 393 49.5 404 c 128,-1,18
 41 415 41 415 41 431 c 2,19,-1
 35 672 l 2,20,21
 35 716 35 716 74 730 c 0,22,23
 99 739 99 739 120.5 753.5 c 128,-1,24
 142 768 142 768 142 782 c 2,25,-1
 142 797 l 1,26,27
 131 802 131 802 130 827 c 2,28,-1
 127 892 l 2,29,30
 127 909 127 909 141.5 919.5 c 128,-1,31
 156 930 156 930 176 930 c 0,32,33
 195 930 195 930 209.5 919.5 c 128,-1,34
 224 909 224 909 224 892 c 0,35,36
 224 861 224 861 222 827 c 0,37,38
 221 803 221 803 209 797 c 1,39,-1
 209 782 l 2,40,41
 209 768 209 768 230.5 753.5 c 128,-1,42
 252 739 252 739 277 730 c 0,43,44
 317 715 317 715 317 675 c 2,45,-1
 310 431 l 2,46,47
 310 427 310 427 308 419 c 1,48,49
 388 359 388 359 466.5 319 c 128,-1,50
 545 279 545 279 614 263 c 1,51,-1
 666 329 l 2,52,53
 669 332 669 332 672 332 c 0,54,55
 676 332 676 332 676 328 c 2,56,-1
 676 301 l 1,57,-1
 734 268 l 2,58,59
 743 263 743 263 743 256 c 256,60,61
 743 249 743 249 737 237 c 0,62,63
 730 222 730 222 713 222 c 2,64,-1
 674 222 l 1,65,-1
 658 146 l 1,66,-1
 658 13 l 2,67,68
 658 0 658 0 633 0 c 0,69,70
 622 0 622 0 614.5 3.5 c 128,-1,71
 607 7 607 7 606 13 c 2,72,-1
 597 110 l 1,73,-1
 550 110 l 2,74,75
 506 110 506 110 462 129 c 1,76,-1
 443 13 l 2,77,78
 440 0 440 0 416 0 c 0,79,80
 394 0 394 0 394 13 c 2,81,-1
 406 206 l 1,82,83
 396 210 396 210 388 222 c 128,-1,84
 380 234 380 234 380 245 c 1,85,-1
 584 224 l 1,86,-1
 595 238 l 1,87,88
 522 256 522 256 449 295.5 c 128,-1,89
 376 335 376 335 291 396 c 1,90,0
 285 393 285 393 276 393 c 1,1,-1
EndSplineSet
EndChar

StartChar: C.ss01
Encoding: 65540 -1 66
Width: 540
Flags: W
LayerCount: 2
Back
Fore
SplineSet
423 259 m 128,-1,1
 421 268 421 268 417 278 c 2,2,-1
 326 457 l 1,3,-1
 335 606 l 1,4,-1
 372 550 l 2,5,6
 379 541 379 541 386.5 536.5 c 128,-1,7
 394 532 394 532 408 528 c 2,8,-1
 482 509 l 2,9,10
 490 507 490 507 496 507 c 0,11,12
 508 507 508 507 517.5 517.5 c 128,-1,13
 527 528 527 528 527 542 c 0,14,15
 527 552 527 552 522 558 c 128,-1,16
 517 564 517 564 506 568 c 2,17,-1
 422 593 l 1,18,-1
 351 716 l 2,19,20
 332 748 332 748 306 759 c 1,21,-1
 308 790 l 1,22,23
 326 796 326 796 329 818 c 2,24,-1
 333 852 l 2,25,26
 337 880 337 880 337 891 c 0,27,28
 337 907 337 907 322 918.5 c 128,-1,29
 307 930 307 930 287 930 c 256,30,31
 267 930 267 930 255.5 919.5 c 128,-1,32
 244 909 244 909 242 891 c 2,33,-1
 238 825 l 2,34,35
 238 805 238 805 252 793 c 1,36,37
 252 774 252 774 228 764 c 0,38,39
 199 753 199 753 175 721 c 2,40,-1
 97 620 l 2,41,42
 82 600 82 600 79 572 c 0,43,44
 70 501 70 501 70 502 c 2,45,-1
 66 462 l 2,46,47
 66 450 66 450 75.5 440 c 128,-1,48
 85 430 85 430 98 430 c 0,49,50
 125 430 125 430 129 462 c 2,51,-1
 142 572 l 1,52,-1
 197 624 l 1,53,-1
 179 451 l 1,54,-1
 131 225 l 1,55,-1
 59 106 l 2,56,57
 44 81 44 81 37 68.5 c 128,-1,58
 30 56 30 56 30 51 c 0,59,60
 30 39 30 39 48 25 c 0,61,62
 66 12 66 12 78 12 c 256,63,64
 90 12 90 12 96 21 c 2,65,-1
 178 148 l 2,66,67
 205 193 205 193 215 218 c 2,68,-1
 265 357 l 1,69,-1
 343 231 l 1,70,-1
 375 22 l 2,71,72
 379 9 379 9 389 4.5 c 128,-1,73
 399 0 399 0 419 0 c 0,74,75
 452 0 452 0 452 17 c 2,76,-1
 451 31 l 1,77,-1
 427 236 l 2,78,0
 425 250 425 250 423 259 c 128,-1,1
EndSplineSet
EndChar

StartChar: D.ss01
Encoding: 65541 -1 67
Width: 800
Flags: W
LayerCount: 2
Back
Fore
SplineSet
342 22 m 2,0,1
 341 0 341 0 306 0 c 0,2,3
 288 0 288 0 277 6 c 128,-1,4
 266 12 266 12 266 22 c 2,5,-1
 266 389 l 1,6,-1
 247 389 l 1,7,-1
 247 22 l 2,8,9
 247 12 247 12 236.5 6 c 128,-1,10
 226 0 226 0 208 0 c 0,11,12
 170 0 170 0 169 22 c 2,13,-1
 149 643 l 1,14,-1
 100 607 l 2,15,16
 89 599 89 599 79.5 596 c 128,-1,17
 70 593 70 593 58 593 c 0,18,19
 29 593 29 593 20 611 c 2,20,-1
 -56 760 l 2,21,22
 -64 776 -64 776 -64 783 c 0,23,24
 -64 794 -64 794 -55.5 802.5 c 128,-1,25
 -47 811 -47 811 -36 811 c 0,26,27
 -19 811 -19 811 -9 792 c 2,28,-1
 58 663 l 1,29,30
 82 686 82 686 113.5 707 c 128,-1,31
 145 728 145 728 170 735 c 0,32,33
 190 741 190 741 206.5 754.5 c 128,-1,34
 223 768 223 768 223 782 c 2,35,-1
 223 797 l 1,36,37
 212 802 212 802 211 827 c 2,38,-1
 208 892 l 2,39,40
 208 909 208 909 222.5 919.5 c 128,-1,41
 237 930 237 930 257 930 c 0,42,43
 276 930 276 930 290.5 919.5 c 128,-1,44
 305 909 305 909 305 892 c 0,45,46
 305 859 305 859 303 827 c 0,47,48
 302 803 302 803 290 797 c 1,49,-1
 290 782 l 2,50,51
 290 768 290 768 311 754 c 128,-1,52
 332 740 332 740 358 730 c 0,53,54
 389 718 389 718 411 691 c 2,55,-1
 479 591 l 1,56,-1
 585 591 l 2,57,58
 624 591 624 591 624 554 c 1,59,-1
 640 554 l 2,60,61
 653 554 653 554 653 534 c 2,62,-1
 653 448 l 1,63,-1
 663 448 l 2,64,65
 690 448 690 448 710 428.5 c 128,-1,66
 730 409 730 409 731 381 c 2,67,-1
 740 98 l 2,68,69
 740 89 740 89 732 79 c 128,-1,70
 724 69 724 69 711 69 c 2,71,-1
 479 69 l 2,72,73
 466 69 466 69 458 79 c 128,-1,74
 450 89 450 89 450 98 c 2,75,-1
 459 381 l 2,76,77
 460 412 460 412 482 430 c 128,-1,78
 504 448 504 448 537 448 c 1,79,-1
 537 523 l 1,80,-1
 462 523 l 2,81,82
 453 523 453 523 446 527 c 128,-1,83
 439 531 439 531 430 542 c 2,84,-1
 362 623 l 1,85,-1
 342 22 l 2,0,1
621 523 m 1,86,-1
 569 523 l 1,87,-1
 569 448 l 1,88,-1
 621 448 l 1,89,-1
 621 523 l 1,86,-1
548.5 43.5 m 128,-1,91
 556 36 556 36 556 25 c 0,92,93
 556 15 556 15 548.5 7.5 c 128,-1,94
 541 0 541 0 530 0 c 256,95,96
 519 0 519 0 511.5 7.5 c 128,-1,97
 504 15 504 15 504 25 c 0,98,99
 504 36 504 36 511.5 43.5 c 128,-1,100
 519 51 519 51 530 51 c 256,101,90
 541 51 541 51 548.5 43.5 c 128,-1,91
679.5 43.5 m 128,-1,103
 687 36 687 36 687 25 c 256,104,105
 687 14 687 14 679.5 7 c 128,-1,106
 672 0 672 0 661 0 c 256,107,108
 650 0 650 0 642.5 7.5 c 128,-1,109
 635 15 635 15 635 25 c 0,110,111
 635 36 635 36 642.5 43.5 c 128,-1,112
 650 51 650 51 661 51 c 256,113,102
 672 51 672 51 679.5 43.5 c 128,-1,103
EndSplineSet
EndChar

StartChar: E.ss01
Encoding: 65542 -1 68
Width: 700
Flags: W
LayerCount: 2
Back
Fore
SplineSet
625 738 m 1,0,1
 644 732 644 732 650.5 716 c 128,-1,2
 657 700 657 700 657 669 c 2,3,-1
 657 432 l 2,4,5
 657 393 657 393 625 393 c 1,6,-1
 610 22 l 2,7,8
 609 0 609 0 574 0 c 0,9,10
 556 0 556 0 545.5 6 c 128,-1,11
 535 12 535 12 535 22 c 2,12,-1
 535 389 l 1,13,-1
 515 389 l 1,14,-1
 515 22 l 2,15,16
 515 12 515 12 504.5 6 c 128,-1,17
 494 0 494 0 476 0 c 0,18,19
 442 0 442 0 440 22 c 2,20,-1
 417 621 l 1,21,-1
 358 542 l 2,22,23
 349 531 349 531 341 527 c 128,-1,24
 333 523 333 523 319 523 c 2,25,-1
 246 523 l 1,26,-1
 246 448 l 1,27,28
 279 448 279 448 301 430 c 128,-1,29
 323 412 323 412 324 381 c 2,30,-1
 333 98 l 2,31,32
 333 89 333 89 325 79 c 128,-1,33
 317 69 317 69 304 69 c 2,34,-1
 72 69 l 2,35,36
 59 69 59 69 51 79 c 128,-1,37
 43 89 43 89 43 98 c 2,38,-1
 52 381 l 2,39,40
 53 409 53 409 73 428.5 c 128,-1,41
 93 448 93 448 120 448 c 2,42,-1
 130 448 l 1,43,-1
 130 534 l 2,44,45
 130 554 130 554 143 554 c 2,46,-1
 160 554 l 1,47,-1
 160 556 l 2,48,49
 160 570 160 570 169 579 c 128,-1,50
 178 588 178 588 192 588 c 2,51,-1
 297 588 l 1,52,-1
 368 696 l 2,53,54
 380 714 380 714 392.5 723.5 c 128,-1,55
 405 733 405 733 425 738 c 0,56,57
 493 755 493 755 493 778 c 2,58,-1
 493 797 l 1,59,60
 481 803 481 803 480 823 c 0,61,62
 480 837 480 837 479 845 c 2,63,-1
 477 891 l 2,64,65
 477 908 477 908 491.5 919 c 128,-1,66
 506 930 506 930 526 930 c 256,67,68
 546 930 546 930 560.5 919.5 c 128,-1,69
 575 909 575 909 575 892 c 2,70,-1
 574 847 l 1,71,-1
 572 823 l 2,72,73
 572 803 572 803 560 797 c 1,74,-1
 559 778 l 2,75,76
 559 766 559 766 576 757.5 c 128,-1,77
 593 749 593 749 625 738 c 1,78,-1
 625 738 l 1,0,1
214 523 m 1,79,-1
 162 523 l 1,80,-1
 162 448 l 1,81,-1
 214 448 l 1,82,-1
 214 523 l 1,79,-1
140.5 43.5 m 128,-1,84
 148 36 148 36 148 25 c 0,85,86
 148 15 148 15 140.5 7.5 c 128,-1,87
 133 0 133 0 122 0 c 256,88,89
 111 0 111 0 103.5 7 c 128,-1,90
 96 14 96 14 96 25 c 256,91,92
 96 36 96 36 103.5 43.5 c 128,-1,93
 111 51 111 51 122 51 c 256,94,83
 133 51 133 51 140.5 43.5 c 128,-1,84
271.5 43.5 m 128,-1,96
 279 36 279 36 279 25 c 0,97,98
 279 15 279 15 271.5 7.5 c 128,-1,99
 264 0 264 0 253 0 c 256,100,101
 242 0 242 0 234.5 7.5 c 128,-1,102
 227 15 227 15 227 25 c 0,103,104
 227 36 227 36 234.5 43.5 c 128,-1,105
 242 51 242 51 253 51 c 256,106,95
 264 51 264 51 271.5 43.5 c 128,-1,96
EndSplineSet
EndChar

StartChar: F.ss01
Encoding: 65543 -1 69
Width: 698
Flags: W
LayerCount: 2
Back
Fore
SplineSet
421 738 m 1,0,1
 489 755 489 755 489 778 c 2,2,-1
 489 797 l 1,3,4
 477 803 477 803 476 823 c 0,5,6
 476 837 476 837 475 845 c 2,7,-1
 473 891 l 2,8,9
 473 908 473 908 487.5 919 c 128,-1,10
 502 930 502 930 522 930 c 256,11,12
 542 930 542 930 556.5 919.5 c 128,-1,13
 571 909 571 909 571 892 c 2,14,-1
 570 847 l 1,15,-1
 568 823 l 2,16,17
 568 803 568 803 556 797 c 1,18,-1
 555 778 l 2,19,20
 555 766 555 766 572 757.5 c 128,-1,21
 589 749 589 749 621 738 c 0,22,23
 640 732 640 732 646.5 716 c 128,-1,24
 653 700 653 700 653 669 c 2,25,-1
 653 432 l 2,26,27
 653 393 653 393 623 393 c 1,28,-1
 608 22 l 2,29,30
 607 0 607 0 572 0 c 0,31,32
 554 0 554 0 543 6 c 128,-1,33
 532 12 532 12 532 22 c 2,34,-1
 532 389 l 1,35,-1
 513 389 l 1,36,-1
 513 22 l 2,37,38
 513 12 513 12 502.5 6 c 128,-1,39
 492 0 492 0 474 0 c 0,40,41
 439 0 439 0 438 22 c 2,42,-1
 413 612 l 1,43,-1
 362 538 l 2,44,45
 357 530 357 530 351 526.5 c 128,-1,46
 345 523 345 523 331 523 c 2,47,-1
 203 523 l 2,48,49
 189 523 189 523 179 533 c 128,-1,50
 169 543 169 543 169 557 c 0,51,52
 169 569 169 569 178.5 579 c 128,-1,53
 188 589 188 589 202 589 c 2,54,-1
 307 589 l 1,55,-1
 366 687 l 2,56,57
 380 712 380 712 389.5 722 c 128,-1,58
 399 732 399 732 421 738 c 1,59,-1
 421 738 l 1,0,1
192 446 m 2,60,61
 200 428 200 428 200 418 c 0,62,63
 200 410 200 410 197.5 406.5 c 128,-1,64
 195 403 195 403 187 399 c 2,65,-1
 170 391 l 2,66,67
 164 388 164 388 159 388 c 0,68,69
 146 388 146 388 132 417 c 2,70,-1
 127 428 l 2,71,72
 119 445 119 445 119 454 c 0,73,74
 119 468 119 468 130 473 c 2,75,-1
 149 482 l 2,76,77
 154 484 154 484 161 484 c 0,78,79
 174 484 174 484 187 456 c 2,80,-1
 192 446 l 2,60,61
248 336 m 2,81,82
 260 336 260 336 267.5 329.5 c 128,-1,83
 275 323 275 323 275 314 c 0,84,85
 275 301 275 301 257 147 c 0,86,87
 247 74 247 74 244 40 c 0,88,89
 238 -1 238 -1 201 -1 c 2,90,-1
 98 -1 l 2,91,92
 78 -1 78 -1 68 10.5 c 128,-1,93
 58 22 58 22 56 40 c 2,94,-1
 43 147 l 2,95,96
 24 293 24 293 24 314 c 0,97,98
 24 323 24 323 31.5 329.5 c 128,-1,99
 39 336 39 336 51 336 c 2,100,-1
 248 336 l 2,81,82
EndSplineSet
EndChar

StartChar: G.ss01
Encoding: 65544 -1 70
Width: 880
Flags: W
LayerCount: 2
Back
Fore
SplineSet
845 431 m 2,0,1
 844 415 844 415 835.5 404 c 128,-1,2
 827 393 827 393 810 393 c 1,3,-1
 795 22 l 2,4,5
 794 0 794 0 759 0 c 0,6,7
 741 0 741 0 730 6 c 128,-1,8
 719 12 719 12 719 22 c 2,9,-1
 720 389 l 1,10,-1
 700 389 l 1,11,-1
 700 22 l 2,12,13
 700 12 700 12 689.5 6 c 128,-1,14
 679 0 679 0 661 0 c 0,15,16
 625 0 625 0 625 22 c 2,17,-1
 609 390 l 1,18,-1
 16 390 l 2,19,20
 1 390 1 390 1 417 c 2,21,-1
 1 437 l 2,22,23
 1 464 1 464 16 464 c 2,24,-1
 268 464 l 1,25,-1
 269 641 l 2,26,27
 269 676 269 676 311 683 c 0,28,29
 331 686 331 686 343 699 c 128,-1,30
 355 712 355 712 355 729 c 2,31,-1
 355 741 l 1,32,33
 349 745 349 745 345.5 749.5 c 128,-1,34
 342 754 342 754 341 767 c 2,35,-1
 338 834 l 2,36,37
 338 852 338 852 352.5 863 c 128,-1,38
 367 874 367 874 387 874 c 256,39,40
 407 874 407 874 421.5 863 c 128,-1,41
 436 852 436 852 436 834 c 2,42,-1
 433 767 l 2,43,44
 432 754 432 754 428.5 749.5 c 128,-1,45
 425 745 425 745 419 741 c 1,46,-1
 419 729 l 2,47,48
 419 712 419 712 431 699 c 128,-1,49
 443 686 443 686 463 683 c 0,50,51
 505 676 505 676 505 641 c 2,52,-1
 506 464 l 1,53,-1
 574 464 l 1,54,-1
 569 668 l 2,55,56
 569 712 569 712 608 726 c 0,57,58
 633 735 633 735 655 750 c 128,-1,59
 677 765 677 765 677 778 c 2,60,-1
 677 797 l 1,61,62
 664 802 664 802 664 827 c 2,63,-1
 661 890 l 2,64,65
 660 908 660 908 674.5 919 c 128,-1,66
 689 930 689 930 710 930 c 0,67,68
 730 930 730 930 745 918.5 c 128,-1,69
 760 907 760 907 759 890 c 2,70,-1
 756 827 l 2,71,72
 755 803 755 803 743 797 c 1,73,-1
 743 778 l 2,74,75
 743 765 743 765 764.5 750 c 128,-1,76
 786 735 786 735 811 726 c 0,77,78
 851 711 851 711 851 668 c 2,79,-1
 845 431 l 2,0,1
33 733 m 128,-1,81
 0 766 0 766 0 815 c 0,82,83
 0 863 0 863 33 896.5 c 128,-1,84
 66 930 66 930 114 930 c 0,85,86
 163 930 163 930 196.5 896.5 c 128,-1,87
 230 863 230 863 230 815 c 0,88,89
 230 766 230 766 196.5 733 c 128,-1,90
 163 700 163 700 114 700 c 0,91,80
 66 700 66 700 33 733 c 128,-1,81
175 754 m 128,-1,93
 200 779 200 779 200 815 c 0,94,95
 200 850 200 850 175 875 c 128,-1,96
 150 900 150 900 114 900 c 0,97,98
 79 900 79 900 54 875 c 128,-1,99
 29 850 29 850 29 815 c 0,100,101
 29 779 29 779 54 754 c 128,-1,102
 79 729 79 729 114 729 c 0,103,92
 150 729 150 729 175 754 c 128,-1,93
101.5 792.5 m 128,-1,105
 99 793 99 793 99 796 c 0,106,107
 99 808 99 808 110 821 c 0,108,109
 113 824 113 824 119 830.5 c 128,-1,110
 125 837 125 837 125 841 c 0,111,112
 125 850 125 850 113 850 c 0,113,114
 105 850 105 850 97 846 c 0,115,116
 96 845 96 845 94 845 c 0,117,118
 91 845 91 845 87.5 850 c 128,-1,119
 84 855 84 855 84 858 c 0,120,121
 84 865 84 865 93.5 868.5 c 128,-1,122
 103 872 103 872 115 872 c 0,123,124
 132 872 132 872 141.5 864 c 128,-1,125
 151 856 151 856 151 842 c 0,126,127
 151 832 151 832 147 826 c 128,-1,128
 143 820 143 820 133 812 c 0,129,130
 122 803 122 803 120 796 c 0,131,132
 119 793 119 793 117 792.5 c 128,-1,133
 115 792 115 792 112 792 c 2,134,-1
 108 792 l 2,135,104
 104 792 104 792 101.5 792.5 c 128,-1,105
122 775 m 2,137,-1
 122 759 l 2,138,139
 122 754 122 754 112 754 c 2,140,-1
 106 754 l 2,141,142
 96 754 96 754 96 759 c 2,143,-1
 96 775 l 2,144,145
 96 781 96 781 106 781 c 2,146,-1
 112 781 l 2,147,136
 122 781 122 781 122 775 c 2,137,-1
EndSplineSet
EndChar

StartChar: H.ss01
Encoding: 65545 -1 71
Width: 310
Flags: W
LayerCount: 2
Back
Fore
SplineSet
13.5 487 m 128,-1,1
 6 499 6 499 6 517 c 0,2,3
 6 528 6 528 13 573 c 128,-1,4
 20 618 20 618 23 636 c 2,5,-1
 34 702 l 2,6,7
 39 739 39 739 76 744 c 0,8,9
 97 748 97 748 108.5 760.5 c 128,-1,10
 120 773 120 773 120 791 c 2,11,-1
 120 797 l 1,12,13
 107 806 107 806 106 827 c 2,14,-1
 105 850 l 1,15,-1
 103 890 l 2,16,17
 103 908 103 908 117.5 919 c 128,-1,18
 132 930 132 930 152 930 c 256,19,20
 172 930 172 930 186.5 919 c 128,-1,21
 201 908 201 908 201 890 c 2,22,-1
 199 850 l 1,23,-1
 198 827 l 2,24,25
 197 804 197 804 183 797 c 1,26,-1
 183 791 l 2,27,28
 183 773 183 773 195.5 760.5 c 128,-1,29
 208 748 208 748 229 744 c 0,30,31
 267 739 267 739 276 702 c 2,32,-1
 282 677 l 2,33,34
 293 635 293 635 299 609.5 c 128,-1,35
 305 584 305 584 305 576 c 0,36,37
 305 562 305 562 299 551 c 0,38,39
 292 537 292 537 278.5 525 c 128,-1,40
 265 513 265 513 257 513 c 1,41,-1
 238 22 l 2,42,43
 237 0 237 0 202 0 c 0,44,45
 184 0 184 0 173 6 c 128,-1,46
 162 12 162 12 162 22 c 2,47,-1
 162 389 l 1,48,-1
 143 389 l 1,49,-1
 143 22 l 2,50,51
 143 12 143 12 132.5 6 c 128,-1,52
 122 0 122 0 104 0 c 0,53,54
 69 0 69 0 68 22 c 2,55,-1
 48 475 l 1,56,-1
 33 475 l 2,57,0
 21 475 21 475 13.5 487 c 128,-1,1
204 613 m 2,58,59
 198 606 198 606 198 601 c 256,60,61
 198 596 198 596 201 591 c 1,62,-1
 111 591 l 2,63,64
 80 591 80 591 66 576.5 c 128,-1,65
 52 562 52 562 52 533 c 1,66,-1
 190 533 l 2,67,68
 199 533 199 533 206 540 c 2,69,-1
 256 591 l 2,70,71
 261 596 261 596 261 607 c 0,72,73
 261 617 261 617 253 625 c 128,-1,74
 245 633 245 633 234 633 c 256,75,76
 223 633 223 633 215 625 c 2,77,-1
 204 613 l 2,58,59
EndSplineSet
EndChar

StartChar: I.ss01
Encoding: 65546 -1 72
Width: 880
Flags: W
LayerCount: 2
Back
Fore
SplineSet
33 106 m 2,0,1
 18 81 18 81 11 68.5 c 128,-1,2
 4 56 4 56 4 51 c 0,3,4
 4 39 4 39 22 25 c 0,5,6
 40 12 40 12 52 12 c 256,7,8
 64 12 64 12 70 21 c 2,9,-1
 152 148 l 2,10,11
 179 193 179 193 189 218 c 2,12,-1
 239 357 l 1,13,-1
 317 231 l 1,14,-1
 349 22 l 2,15,16
 353 9 353 9 363 4.5 c 128,-1,17
 373 0 373 0 393 0 c 0,18,19
 425 0 425 0 425 17 c 2,20,-1
 424 31 l 1,21,-1
 401 236 l 2,22,23
 399 250 399 250 397 259 c 128,-1,24
 395 268 395 268 391 278 c 2,25,-1
 303 458 l 1,26,-1
 310 534 l 1,27,-1
 336 510 l 2,28,29
 347 500 347 500 365 500 c 2,30,-1
 450 500 l 1,31,-1
 506 430 l 1,32,-1
 552 148 l 2,33,34
 558 111 558 111 580 94.5 c 128,-1,35
 602 78 602 78 642 78 c 2,36,-1
 789 78 l 1,37,-1
 803 64 l 2,38,39
 810 57 810 57 818 55 c 128,-1,40
 826 53 826 53 844 53 c 0,41,42
 876 53 876 53 876 63 c 0,43,44
 876 68 876 68 871 73 c 2,45,-1
 771 186 l 2,46,47
 754 204 754 204 726 204 c 1,48,-1
 648 305 l 1,49,-1
 646 319 l 1,50,51
 661 325 661 325 662 345 c 2,52,-1
 665 390 l 2,53,54
 665 409 665 409 653 420 c 128,-1,55
 641 431 641 431 618 431 c 0,56,57
 583 431 583 431 573 401 c 1,58,-1
 481 519 l 2,59,60
 474 528 474 528 468 531 c 1,61,62
 468 544 468 544 459.5 552.5 c 128,-1,63
 451 561 451 561 439 561 c 2,64,-1
 367 561 l 1,65,-1
 306 637 l 1,66,67
 306 681 306 681 284 725 c 0,68,69
 277 738 277 738 273.5 747 c 128,-1,70
 270 756 270 756 270 767 c 2,71,-1
 269 794 l 1,72,73
 279 796 279 796 283.5 803.5 c 128,-1,74
 288 811 288 811 288 827 c 2,75,-1
 289 890 l 2,76,77
 289 908 289 908 274.5 919 c 128,-1,78
 260 930 260 930 240 930 c 256,79,80
 220 930 220 930 205.5 919 c 128,-1,81
 191 908 191 908 191 890 c 2,82,-1
 193 850 l 1,83,-1
 194 827 l 2,84,85
 195 806 195 806 208 797 c 1,86,-1
 207 767 l 2,87,88
 207 759 207 759 202.5 747 c 128,-1,89
 198 735 198 735 196 728 c 0,90,91
 175 672 175 672 168 623 c 2,92,-1
 105 225 l 1,93,-1
 33 106 l 2,0,1
642.5 43.5 m 128,-1,95
 650 36 650 36 650 25 c 0,96,97
 650 15 650 15 642.5 7.5 c 128,-1,98
 635 0 635 0 624 0 c 256,99,100
 613 0 613 0 605.5 7.5 c 128,-1,101
 598 15 598 15 598 25 c 0,102,103
 598 36 598 36 605.5 43.5 c 128,-1,104
 613 51 613 51 624 51 c 256,105,94
 635 51 635 51 642.5 43.5 c 128,-1,95
773.5 43.5 m 128,-1,107
 781 36 781 36 781 25 c 256,108,109
 781 14 781 14 773.5 7 c 128,-1,110
 766 0 766 0 755 0 c 256,111,112
 744 0 744 0 736.5 7.5 c 128,-1,113
 729 15 729 15 729 25 c 0,114,115
 729 36 729 36 736.5 43.5 c 128,-1,116
 744 51 744 51 755 51 c 256,117,106
 766 51 766 51 773.5 43.5 c 128,-1,107
EndSplineSet
EndChar

StartChar: J.ss01
Encoding: 65547 -1 73
Width: 620
Flags: W
LayerCount: 2
Back
Fore
SplineSet
314 672 m 2,0,1
 314 715 314 715 354 730 c 0,2,3
 379 739 379 739 400.5 753.5 c 128,-1,4
 422 768 422 768 422 782 c 2,5,-1
 422 797 l 1,6,7
 411 802 411 802 409 827 c 0,8,9
 407 849 407 849 407 892 c 0,10,11
 407 909 407 909 421.5 919.5 c 128,-1,12
 436 930 436 930 455 930 c 0,13,14
 475 930 475 930 489.5 919.5 c 128,-1,15
 504 909 504 909 504 892 c 2,16,-1
 501 827 l 2,17,18
 500 802 500 802 489 797 c 1,19,-1
 489 782 l 2,20,21
 489 768 489 768 510.5 753.5 c 128,-1,22
 532 739 532 739 557 730 c 0,23,24
 596 716 596 716 596 672 c 2,25,-1
 590 431 l 2,26,27
 588 393 588 393 556 393 c 1,28,-1
 540 22 l 2,29,30
 539 0 539 0 504 0 c 0,31,32
 486 0 486 0 475.5 6 c 128,-1,33
 465 12 465 12 465 22 c 2,34,-1
 465 389 l 1,35,-1
 446 389 l 1,36,-1
 446 22 l 2,37,38
 446 12 446 12 435 6 c 128,-1,39
 424 0 424 0 406 0 c 0,40,41
 371 0 371 0 370 22 c 2,42,-1
 355 378 l 1,43,-1
 311 378 l 2,44,45
 276 378 276 378 264 396 c 2,46,-1
 241 427 l 1,47,-1
 232 22 l 2,48,49
 232 10 232 10 225.5 5 c 128,-1,50
 219 0 219 0 201 0 c 0,51,52
 168 0 168 0 168 22 c 2,53,-1
 168 263 l 1,54,-1
 151 263 l 1,55,-1
 151 22 l 2,56,57
 151 0 151 0 117 0 c 0,58,59
 100 0 100 0 94.5 5 c 128,-1,60
 89 10 89 10 88 22 c 2,61,-1
 79 286 l 1,62,63
 68 286 68 286 61 291 c 128,-1,64
 54 296 54 296 54 304 c 0,65,66
 54 326 54 326 75 516 c 0,67,68
 77 534 77 534 91.5 546 c 128,-1,69
 106 558 106 558 130 558 c 1,70,-1
 131 581 l 1,71,72
 116 588 116 588 115 607 c 2,73,-1
 113 662 l 2,74,75
 113 677 113 677 124.5 688.5 c 128,-1,76
 136 700 136 700 159 700 c 256,77,78
 182 700 182 700 193.5 689 c 128,-1,79
 205 678 205 678 205 663 c 2,80,-1
 203 607 l 2,81,82
 202 587 202 587 187 581 c 1,83,-1
 188 558 l 1,84,85
 208 558 208 558 219.5 549 c 128,-1,86
 231 540 231 540 247 517 c 2,87,-1
 307 431 l 1,88,-1
 320 431 l 1,89,-1
 314 672 l 2,0,1
EndSplineSet
EndChar

StartChar: K.ss01
Encoding: 65548 -1 74
Width: 398
Flags: W
LayerCount: 2
Back
Fore
SplineSet
212 496 m 1,0,-1
 176 429 l 1,1,-1
 175 22 l 2,2,3
 175 12 175 12 164.5 6 c 128,-1,4
 154 0 154 0 136 0 c 0,5,6
 101 0 101 0 100 22 c 2,7,-1
 90 239 l 1,8,-1
 55 362 l 2,9,10
 49 381 49 381 44.5 405 c 128,-1,11
 40 429 40 429 40 446 c 0,12,13
 40 460 40 460 44 476 c 128,-1,14
 48 492 48 492 53 500 c 2,15,-1
 160 678 l 2,16,17
 170 694 170 694 183 704.5 c 128,-1,18
 196 715 196 715 223 728 c 0,19,20
 238 736 238 736 248 749 c 2,21,-1
 257 760 l 1,22,23
 255 764 255 764 255 767 c 0,24,25
 255 775 255 775 263 788 c 2,26,-1
 301 848 l 2,27,28
 312 863 312 863 332 863 c 0,29,30
 350 863 350 863 365 852 c 0,31,32
 388 835 388 835 388 810 c 0,33,34
 388 799 388 799 382 790 c 2,35,-1
 335 728 l 2,36,37
 328 720 328 720 319 720 c 0,38,39
 314 720 314 720 304 725 c 1,40,-1
 301 720 l 2,41,42
 292 706 292 706 290 670 c 0,43,44
 289 640 289 640 269 601 c 1,45,-1
 269 537 l 1,46,-1
 344 465 l 2,47,48
 354 453 354 453 354 442 c 0,49,50
 354 433 354 433 347.5 423.5 c 128,-1,51
 341 414 341 414 330 411 c 1,52,-1
 330 14 l 2,53,54
 330 8 330 8 325.5 4 c 128,-1,55
 321 0 321 0 314 0 c 0,56,57
 306 0 306 0 301.5 4 c 128,-1,58
 297 8 297 8 297 14 c 2,59,-1
 297 420 l 1,60,-1
 212 496 l 1,0,-1
EndSplineSet
EndChar

StartChar: L.ss01
Encoding: 65549 -1 75
Width: 530
Flags: W
LayerCount: 2
Back
Fore
SplineSet
383 733 m 128,-1,1
 350 766 350 766 350 815 c 0,2,3
 350 863 350 863 383 896.5 c 128,-1,4
 416 930 416 930 464 930 c 0,5,6
 513 930 513 930 546.5 896.5 c 128,-1,7
 580 863 580 863 580 815 c 0,8,9
 580 766 580 766 546.5 733 c 128,-1,10
 513 700 513 700 464 700 c 0,11,0
 416 700 416 700 383 733 c 128,-1,1
525 754 m 128,-1,13
 550 779 550 779 550 815 c 0,14,15
 550 850 550 850 525 875 c 128,-1,16
 500 900 500 900 464 900 c 0,17,18
 429 900 429 900 404 875 c 128,-1,19
 379 850 379 850 379 815 c 0,20,21
 379 779 379 779 404 754 c 128,-1,22
 429 729 429 729 464 729 c 0,23,12
 500 729 500 729 525 754 c 128,-1,13
510 804.5 m 128,-1,25
 506 801 506 801 500 801 c 2,26,-1
 464 801 l 2,27,28
 459 801 459 801 455 804.5 c 128,-1,29
 451 808 451 808 451 814 c 2,30,-1
 451 866 l 2,31,32
 451 872 451 872 454.5 876 c 128,-1,33
 458 880 458 880 464 880 c 256,34,35
 470 880 470 880 474 876 c 128,-1,36
 478 872 478 872 478 866 c 2,37,-1
 478 827 l 1,38,-1
 500 827 l 2,39,40
 506 827 506 827 510 823.5 c 128,-1,41
 514 820 514 820 514 814 c 256,42,24
 514 808 514 808 510 804.5 c 128,-1,25
469 26 m 1,43,-1
 473 11 l 2,44,45
 473 5 473 5 465 2.5 c 128,-1,46
 457 0 457 0 437 0 c 256,47,48
 417 0 417 0 408.5 3 c 128,-1,49
 400 6 400 6 397 14 c 2,50,-1
 332 219 l 1,51,-1
 113 219 l 2,52,53
 94 219 94 219 84 231 c 128,-1,54
 74 243 74 243 71 261 c 2,55,-1
 47 447 l 2,56,57
 40 496 40 496 40 511 c 0,58,59
 40 528 40 528 73 528 c 1,60,61
 83 545 83 545 90.5 566 c 128,-1,62
 98 587 98 587 98 600 c 2,63,-1
 98 618 l 1,64,65
 82 626 82 626 82 649 c 2,66,-1
 82 713 l 2,67,68
 82 730 82 730 96.5 742 c 128,-1,69
 111 754 111 754 130 754 c 0,70,71
 150 754 150 754 165.5 742 c 128,-1,72
 181 730 181 730 181 713 c 2,73,-1
 181 648 l 2,74,75
 181 637 181 637 173 628 c 128,-1,76
 165 619 165 619 160 618 c 1,77,-1
 160 609 l 2,78,79
 160 593 160 593 165.5 583 c 128,-1,80
 171 573 171 573 182 562 c 0,81,82
 196 551 196 551 206 537 c 128,-1,83
 216 523 216 523 222 498 c 2,84,-1
 255 359 l 1,85,-1
 300 359 l 2,86,87
 319 359 319 359 330 348.5 c 128,-1,88
 341 338 341 338 341 320 c 1,89,-1
 349 320 l 2,90,91
 387 320 387 320 395 290 c 2,92,-1
 469 26 l 1,43,-1
EndSplineSet
EndChar

StartChar: M.ss01
Encoding: 65550 -1 76
Width: 580
Flags: W
LayerCount: 2
Back
Fore
SplineSet
573 388 m 1,0,-1
 464 388 l 2,1,2
 446 388 446 388 437.5 397 c 128,-1,3
 429 406 429 406 422 429 c 2,4,-1
 404 490 l 1,5,-1
 305 490 l 2,6,7
 285 490 285 490 275 500 c 2,8,-1
 243 534 l 1,9,-1
 185 429 l 1,10,-1
 201 245 l 1,11,-1
 201 22 l 2,12,13
 201 12 201 12 190.5 6 c 128,-1,14
 180 0 180 0 162 0 c 0,15,16
 127 0 127 0 126 22 c 2,17,-1
 116 239 l 1,18,-1
 70 362 l 2,19,20
 44 428 44 428 44 465 c 0,21,22
 44 485 44 485 53 500 c 2,23,-1
 166 678 l 2,24,25
 179 698 179 698 192 708.5 c 128,-1,26
 205 719 205 719 232 732 c 0,27,28
 243 737 243 737 249.5 742 c 128,-1,29
 256 747 256 747 262 756 c 2,30,-1
 268 765 l 2,31,32
 266 769 266 769 266 773 c 0,33,34
 266 781 266 781 274 793 c 2,35,-1
 313 853 l 2,36,37
 324 868 324 868 344 868 c 0,38,39
 362 868 362 868 377 857 c 0,40,41
 400 840 400 840 400 815 c 0,42,43
 400 804 400 804 394 795 c 2,44,-1
 346 732 l 2,45,46
 339 724 339 724 330 724 c 0,47,48
 325 724 325 724 315 729 c 1,49,-1
 312 724 l 2,50,51
 304 711 304 711 302 675 c 0,52,53
 301 644 301 644 283 609 c 1,54,-1
 326 556 l 1,55,-1
 414 556 l 2,56,57
 427 556 427 556 436.5 546 c 128,-1,58
 446 536 446 536 446 523 c 1,59,-1
 573 523 l 1,60,-1
 573 388 l 1,0,-1
426.5 693.5 m 128,-1,62
 424 691 424 691 420 691 c 256,63,64
 416 691 416 691 413.5 693.5 c 128,-1,65
 411 696 411 696 411 700 c 256,66,67
 411 704 411 704 413.5 706.5 c 128,-1,68
 416 709 416 709 420 709 c 256,69,70
 424 709 424 709 426.5 706.5 c 128,-1,71
 429 704 429 704 429 700 c 256,72,61
 429 696 429 696 426.5 693.5 c 128,-1,62
382.5 690.5 m 128,-1,74
 380 693 380 693 380 696 c 0,75,76
 380 700 380 700 382.5 702.5 c 128,-1,77
 385 705 385 705 389 705 c 256,78,79
 393 705 393 705 395.5 702.5 c 128,-1,80
 398 700 398 700 398 696 c 0,81,82
 398 693 398 693 395.5 690.5 c 128,-1,83
 393 688 393 688 389 688 c 256,84,73
 385 688 385 688 382.5 690.5 c 128,-1,74
449.5 672.5 m 128,-1,86
 447 670 447 670 444 670 c 0,87,88
 440 670 440 670 437.5 672.5 c 128,-1,89
 435 675 435 675 435 679 c 256,90,91
 435 683 435 683 437.5 685.5 c 128,-1,92
 440 688 440 688 444 688 c 0,93,94
 447 688 447 688 449.5 685.5 c 128,-1,95
 452 683 452 683 452 679 c 256,96,85
 452 675 452 675 449.5 672.5 c 128,-1,86
364.5 665.5 m 128,-1,98
 362 668 362 668 362 672 c 256,99,100
 362 676 362 676 364.5 678.5 c 128,-1,101
 367 681 367 681 371 681 c 256,102,103
 375 681 375 681 377.5 678.5 c 128,-1,104
 380 676 380 676 380 672 c 256,105,106
 380 668 380 668 377.5 665.5 c 128,-1,107
 375 663 375 663 371 663 c 256,108,97
 367 663 367 663 364.5 665.5 c 128,-1,98
458.5 642.5 m 128,-1,110
 456 640 456 640 452 640 c 0,111,112
 449 640 449 640 446.5 642.5 c 128,-1,113
 444 645 444 645 444 648 c 0,114,115
 444 652 444 652 446.5 655 c 128,-1,116
 449 658 449 658 452 658 c 0,117,118
 456 658 456 658 458.5 655 c 128,-1,119
 461 652 461 652 461 648 c 0,120,109
 461 645 461 645 458.5 642.5 c 128,-1,110
524.5 629.5 m 128,-1,122
 522 627 522 627 519 627 c 0,123,124
 515 627 515 627 512.5 629.5 c 128,-1,125
 510 632 510 632 510 636 c 256,126,127
 510 640 510 640 512.5 642.5 c 128,-1,128
 515 645 515 645 519 645 c 0,129,130
 522 645 522 645 524.5 642.5 c 128,-1,131
 527 640 527 640 527 636 c 256,132,121
 527 632 527 632 524.5 629.5 c 128,-1,122
554.5 622.5 m 128,-1,134
 552 620 552 620 548 620 c 256,135,136
 544 620 544 620 541.5 622.5 c 128,-1,137
 539 625 539 625 539 629 c 256,138,139
 539 633 539 633 541.5 635.5 c 128,-1,140
 544 638 544 638 548 638 c 256,141,142
 552 638 552 638 554.5 635.5 c 128,-1,143
 557 633 557 633 557 629 c 256,144,133
 557 625 557 625 554.5 622.5 c 128,-1,134
458.5 609.5 m 128,-1,146
 456 607 456 607 452 607 c 0,147,148
 449 607 449 607 446.5 609.5 c 128,-1,149
 444 612 444 612 444 616 c 256,150,151
 444 620 444 620 446.5 622.5 c 128,-1,152
 449 625 449 625 452 625 c 0,153,154
 456 625 456 625 458.5 622.5 c 128,-1,155
 461 620 461 620 461 616 c 256,156,145
 461 612 461 612 458.5 609.5 c 128,-1,146
504.5 606.5 m 128,-1,158
 502 604 502 604 498 604 c 256,159,160
 494 604 494 604 491.5 606.5 c 128,-1,161
 489 609 489 609 489 613 c 256,162,163
 489 617 489 617 491.5 619.5 c 128,-1,164
 494 622 494 622 498 622 c 256,165,166
 502 622 502 622 504.5 619.5 c 128,-1,167
 507 617 507 617 507 613 c 256,168,157
 507 609 507 609 504.5 606.5 c 128,-1,158
458.5 577.5 m 128,-1,170
 456 575 456 575 452 575 c 0,171,172
 449 575 449 575 446.5 577.5 c 128,-1,173
 444 580 444 580 444 584 c 256,174,175
 444 588 444 588 446.5 590.5 c 128,-1,176
 449 593 449 593 452 593 c 0,177,178
 456 593 456 593 458.5 590.5 c 128,-1,179
 461 588 461 588 461 584 c 256,180,169
 461 580 461 580 458.5 577.5 c 128,-1,170
495.5 590.5 m 128,-1,182
 498 588 498 588 498 584 c 256,183,184
 498 580 498 580 495.5 577.5 c 128,-1,185
 493 575 493 575 489 575 c 256,186,187
 485 575 485 575 482.5 577.5 c 128,-1,188
 480 580 480 580 480 584 c 256,189,190
 480 588 480 588 482.5 590.5 c 128,-1,191
 485 593 485 593 489 593 c 256,192,181
 493 593 493 593 495.5 590.5 c 128,-1,182
482.5 544.5 m 128,-1,194
 480 547 480 547 480 551 c 0,195,196
 480 554 480 554 482.5 556.5 c 128,-1,197
 485 559 485 559 489 559 c 256,198,199
 493 559 493 559 495.5 556.5 c 128,-1,200
 498 554 498 554 498 551 c 0,201,202
 498 547 498 547 495.5 544.5 c 128,-1,203
 493 542 493 542 489 542 c 256,204,193
 485 542 485 542 482.5 544.5 c 128,-1,194
EndSplineSet
EndChar

StartChar: N.ss01
Encoding: 65551 -1 77
Width: 370
Flags: W
LayerCount: 2
Back
Fore
SplineSet
310 404.5 m 128,-1,1
 302 393 302 393 285 393 c 1,2,-1
 270 22 l 2,3,4
 269 0 269 0 234 0 c 0,5,6
 216 0 216 0 205 6 c 128,-1,7
 194 12 194 12 194 22 c 2,8,-1
 194 389 l 1,9,-1
 175 389 l 1,10,-1
 175 22 l 2,11,12
 175 12 175 12 164.5 6 c 128,-1,13
 154 0 154 0 136 0 c 0,14,15
 101 0 101 0 100 22 c 2,16,-1
 84 393 l 1,17,18
 52 393 52 393 50 431 c 0,19,20
 48 485 48 485 48 521 c 0,21,22
 44 649 44 649 44 672 c 0,23,24
 44 716 44 716 83 730 c 0,25,26
 108 739 108 739 129.5 753.5 c 128,-1,27
 151 768 151 768 151 782 c 2,28,-1
 151 797 l 1,29,30
 140 802 140 802 139 827 c 2,31,-1
 136 892 l 2,32,33
 136 909 136 909 150.5 919.5 c 128,-1,34
 165 930 165 930 185 930 c 0,35,36
 204 930 204 930 218.5 919.5 c 128,-1,37
 233 909 233 909 233 892 c 0,38,39
 233 859 233 859 231 827 c 0,40,41
 230 803 230 803 218 797 c 1,42,-1
 218 782 l 2,43,44
 218 768 218 768 239.5 753.5 c 128,-1,45
 261 739 261 739 286 730 c 0,46,47
 326 715 326 715 326 672 c 0,48,49
 326 654 326 654 322 521 c 2,50,-1
 319 431 l 2,51,0
 318 416 318 416 310 404.5 c 128,-1,1
EndSplineSet
EndChar

StartChar: O.ss01
Encoding: 65552 -1 78
Width: 298
Flags: W
LayerCount: 2
Back
Fore
SplineSet
48 291 m 128,-1,1
 41 296 41 296 41 304 c 2,2,-1
 62 516 l 2,3,4
 64 535 64 535 78 546.5 c 128,-1,5
 92 558 92 558 117 558 c 1,6,-1
 118 581 l 1,7,8
 103 587 103 587 102 607 c 2,9,-1
 100 662 l 2,10,11
 100 677 100 677 111.5 688.5 c 128,-1,12
 123 700 123 700 146 700 c 256,13,14
 169 700 169 700 180.5 688.5 c 128,-1,15
 192 677 192 677 192 662 c 2,16,-1
 190 607 l 2,17,18
 189 588 189 588 174 581 c 1,19,-1
 175 558 l 1,20,21
 200 558 200 558 214 546.5 c 128,-1,22
 228 535 228 535 230 516 c 2,23,-1
 251 304 l 2,24,25
 251 296 251 296 244 291 c 128,-1,26
 237 286 237 286 226 286 c 1,27,-1
 217 22 l 2,28,29
 216 10 216 10 210.5 5 c 128,-1,30
 205 0 205 0 188 0 c 0,31,32
 154 0 154 0 154 22 c 2,33,-1
 154 263 l 1,34,-1
 137 263 l 1,35,-1
 137 22 l 2,36,37
 137 0 137 0 104 0 c 0,38,39
 86 0 86 0 80 5 c 128,-1,40
 74 10 74 10 73 22 c 2,41,-1
 66 286 l 1,42,0
 55 286 55 286 48 291 c 128,-1,1
EndSplineSet
EndChar

StartChar: P.ss01
Encoding: 65553 -1 79
Width: 620
Flags: W
LayerCount: 2
Back
Fore
SplineSet
206 439 m 2,0,1
 205 475 205 475 206.5 493.5 c 128,-1,2
 208 512 208 512 216 531 c 0,3,4
 221 545 221 545 226.5 562.5 c 128,-1,5
 232 580 232 580 232 592 c 2,6,-1
 232 610 l 1,7,8
 216 618 216 618 216 641 c 2,9,-1
 216 705 l 2,10,11
 216 722 216 722 230.5 734 c 128,-1,12
 245 746 245 746 264 746 c 0,13,14
 284 746 284 746 299.5 734 c 128,-1,15
 315 722 315 722 315 705 c 2,16,-1
 315 640 l 2,17,18
 315 629 315 629 307 620 c 128,-1,19
 299 611 299 611 294 610 c 1,20,-1
 294 601 l 2,21,22
 294 585 294 585 299.5 575 c 128,-1,23
 305 565 305 565 316 554 c 0,24,25
 328 544 328 544 336 530 c 128,-1,26
 344 516 344 516 350 490 c 2,27,-1
 389 327 l 1,28,-1
 477 327 l 2,29,30
 495 327 495 327 505.5 320.5 c 128,-1,31
 516 314 516 314 523 297 c 2,32,-1
 608 101 l 2,33,34
 620 73 620 73 620 68 c 0,35,36
 620 62 620 62 615 57 c 256,37,38
 610 52 610 52 595.5 46 c 128,-1,39
 581 40 581 40 574 40 c 0,40,41
 565 40 565 40 562 46 c 2,42,-1
 469 226 l 1,43,-1
 417 226 l 1,44,45
 420 208 420 208 420 192 c 0,46,47
 420 137 420 137 393 91.5 c 128,-1,48
 366 46 366 46 320 19 c 128,-1,49
 274 -8 274 -8 220 -8 c 256,50,51
 166 -8 166 -8 120 19 c 128,-1,52
 74 46 74 46 47 91.5 c 128,-1,53
 20 137 20 137 20 192 c 0,54,55
 20 242 20 242 43.5 286 c 128,-1,56
 67 330 67 330 109.5 358.5 c 128,-1,57
 152 387 152 387 207 392 c 1,58,-1
 206 439 l 2,0,1
96.5 302 m 128,-1,60
 55 256 55 256 55 192 c 0,61,62
 55 147 55 147 77 109 c 128,-1,63
 99 71 99 71 137 49 c 128,-1,64
 175 27 175 27 220 27 c 256,65,66
 265 27 265 27 302.5 49 c 128,-1,67
 340 71 340 71 362 109 c 128,-1,68
 384 147 384 147 384 192 c 0,69,70
 384 210 384 210 380 226 c 1,71,-1
 250 226 l 2,72,73
 231 226 231 226 219.5 238.5 c 128,-1,74
 208 251 208 251 208 268 c 2,75,-1
 207 356 l 1,76,59
 138 348 138 348 96.5 302 c 128,-1,60
EndSplineSet
EndChar

StartChar: Q.ss01
Encoding: 65554 -1 80
Width: 290
Flags: W
LayerCount: 2
Back
Fore
SplineSet
195 659 m 2,0,1
 201 652 201 652 201 643 c 0,2,3
 201 631 201 631 193 623 c 1,4,5
 220 596 220 596 233.5 578 c 128,-1,6
 247 560 247 560 254 538 c 128,-1,7
 261 516 261 516 261 482 c 0,8,9
 261 460 261 460 259 426 c 0,10,11
 256 396 256 396 256 319 c 0,12,13
 256 305 256 305 249.5 299.5 c 128,-1,14
 243 294 243 294 224 294 c 2,15,-1
 173 293 l 1,16,-1
 171 22 l 2,17,18
 171 0 171 0 138 0 c 0,19,20
 100 0 100 0 99 22 c 2,21,-1
 88 292 l 1,22,-1
 60 292 l 2,23,24
 34 292 34 292 34 320 c 2,25,-1
 34 418 l 2,26,27
 34 464 34 464 74 522 c 1,28,-1
 46 653 l 2,29,30
 43 667 43 667 43 679 c 0,31,32
 43 700 43 700 54 733 c 0,33,34
 63 760 63 760 63 784 c 2,35,-1
 63 795 l 1,36,37
 49 802 49 802 48 825 c 2,38,-1
 46 890 l 2,39,40
 46 908 46 908 60.5 919 c 128,-1,41
 75 930 75 930 95 930 c 256,42,43
 115 930 115 930 129.5 919 c 128,-1,44
 144 908 144 908 144 890 c 2,45,-1
 142 821 l 2,46,47
 142 811 142 811 137.5 804.5 c 128,-1,48
 133 798 133 798 124 793 c 1,49,-1
 124 777 l 2,50,51
 124 770 124 770 128.5 758 c 128,-1,52
 133 746 133 746 141 734 c 2,53,-1
 195 659 l 2,0,1
EndSplineSet
EndChar

StartChar: R.ss01
Encoding: 65555 -1 81
Width: 893
Flags: W
LayerCount: 2
Back
Fore
SplineSet
483 784 m 128,-1,1
 497 773 497 773 497 755 c 2,2,-1
 495 691 l 2,3,4
 494 669 494 669 482 661 c 1,5,-1
 482 642 l 2,6,7
 482 628 482 628 501.5 615 c 128,-1,8
 521 602 521 602 545 595 c 0,9,10
 564 590 564 590 574.5 574 c 128,-1,11
 585 558 585 558 585 537 c 2,12,-1
 583 451 l 2,13,14
 581 415 581 415 581 399 c 1,15,16
 521 408 521 408 447 408 c 256,17,18
 373 408 373 408 315 399 c 1,19,-1
 312 537 l 2,20,21
 312 557 312 557 322.5 573 c 128,-1,22
 333 589 333 589 352 595 c 0,23,24
 376 602 376 602 395.5 615 c 128,-1,25
 415 628 415 628 415 642 c 2,26,-1
 415 661 l 1,27,28
 402 667 402 667 401 691 c 2,29,-1
 399 755 l 2,30,31
 399 773 399 773 413 784 c 128,-1,32
 427 795 427 795 448 795 c 256,33,0
 469 795 469 795 483 784 c 128,-1,1
512 262 m 1,34,35
 598 267 598 267 656.5 285.5 c 128,-1,36
 715 304 715 304 722 328 c 1,37,-1
 589 328 l 1,38,39
 589 347 589 347 601 362 c 128,-1,40
 613 377 613 377 630 377 c 2,41,-1
 674 377 l 1,42,-1
 708 508 l 2,43,44
 713 530 713 530 721.5 543.5 c 128,-1,45
 730 557 730 557 747 572 c 0,46,47
 759 584 759 584 764.5 594 c 128,-1,48
 770 604 770 604 770 619 c 2,49,-1
 770 625 l 1,50,51
 750 634 750 634 750 655 c 2,52,-1
 750 723 l 2,53,54
 750 740 750 740 765 751.5 c 128,-1,55
 780 763 780 763 800 763 c 256,56,57
 820 763 820 763 834.5 751.5 c 128,-1,58
 849 740 849 740 849 723 c 2,59,-1
 849 657 l 2,60,61
 849 633 849 633 833 625 c 1,62,-1
 833 611 l 2,63,64
 833 597 833 597 840.5 576.5 c 128,-1,65
 848 556 848 556 858 538 c 1,66,67
 872 538 872 538 877.5 534 c 128,-1,68
 883 530 883 530 883 521 c 2,69,70
 883 521 883 521 870 354 c 0,71,72
 870 352 870 352 863 266 c 0,73,74
 861 248 861 248 849 236.5 c 128,-1,75
 837 225 837 225 818 225 c 2,76,-1
 595 225 l 1,77,-1
 586 14 l 2,78,79
 586 7 586 7 578 3.5 c 128,-1,80
 570 0 570 0 551 0 c 0,81,82
 529 0 529 0 520.5 3.5 c 128,-1,83
 512 7 512 7 512 16 c 2,84,-1
 512 262 l 1,34,35
381 262 m 1,85,86
 295 267 295 267 236.5 285.5 c 128,-1,87
 178 304 178 304 171 328 c 1,88,-1
 304 328 l 1,89,90
 304 346 304 346 291.5 361.5 c 128,-1,91
 279 377 279 377 263 377 c 2,92,-1
 219 377 l 1,93,-1
 186 508 l 2,94,95
 180 530 180 530 171.5 543.5 c 128,-1,96
 163 557 163 557 146 572 c 0,97,98
 134 584 134 584 128.5 594 c 128,-1,99
 123 604 123 604 123 619 c 2,100,-1
 123 625 l 1,101,102
 144 634 144 634 144 655 c 2,103,-1
 143 723 l 2,104,105
 143 740 143 740 128 751.5 c 128,-1,106
 113 763 113 763 93 763 c 256,107,108
 73 763 73 763 58.5 751.5 c 128,-1,109
 44 740 44 740 44 723 c 2,110,-1
 44 657 l 2,111,112
 44 633 44 633 60 625 c 1,113,-1
 60 611 l 2,114,115
 60 597 60 597 52.5 576.5 c 128,-1,116
 45 556 45 556 35 538 c 1,117,118
 21 538 21 538 15.5 534 c 128,-1,119
 10 530 10 530 10 521 c 2,120,121
 10 521 10 521 23 354 c 0,122,123
 23 352 23 352 30 266 c 0,124,125
 32 248 32 248 44 236.5 c 128,-1,126
 56 225 56 225 75 225 c 2,127,-1
 298 225 l 1,128,-1
 308 16 l 2,129,130
 309 0 309 0 346 0 c 0,131,132
 381 0 381 0 381 16 c 2,133,-1
 381 262 l 1,85,86
EndSplineSet
EndChar

StartChar: S.ss01
Encoding: 65556 -1 82
Width: 853
Flags: W
LayerCount: 2
Back
Fore
SplineSet
626 305 m 1,0,1
 580 283 580 283 556 245 c 128,-1,2
 532 207 532 207 532 156 c 0,3,4
 532 109 532 109 554.5 71.5 c 128,-1,5
 577 34 577 34 614.5 13 c 128,-1,6
 652 -8 652 -8 695 -8 c 0,7,8
 739 -8 739 -8 776.5 13 c 128,-1,9
 814 34 814 34 836.5 71.5 c 128,-1,10
 859 109 859 109 859 156 c 0,11,12
 859 199 859 199 838 237 c 128,-1,13
 817 275 817 275 779.5 297.5 c 128,-1,14
 742 320 742 320 695 320 c 0,15,16
 675 320 675 320 655 315 c 1,17,-1
 593 503 l 2,18,19
 590 514 590 514 586 518.5 c 128,-1,20
 582 523 582 523 573 523 c 2,21,-1
 556 523 l 1,22,23
 556 533 556 533 547.5 540.5 c 128,-1,24
 539 548 539 548 525 548 c 2,25,-1
 431 548 l 1,26,-1
 383 692 l 2,27,28
 379 704 379 704 379 711 c 0,29,30
 379 720 379 720 383 730 c 1,31,32
 395 733 395 733 403.5 742 c 128,-1,33
 412 751 412 751 414 762 c 0,34,35
 422 828 422 828 422 835 c 0,36,37
 422 851 422 851 407 862.5 c 128,-1,38
 392 874 392 874 372 874 c 256,39,40
 352 874 352 874 340.5 863.5 c 128,-1,41
 329 853 329 853 327 835 c 2,42,-1
 323 769 l 2,43,44
 323 757 323 757 327 749 c 1,45,-1
 327 740 l 2,46,47
 327 735 327 735 321.5 728.5 c 128,-1,48
 316 722 316 722 309 716 c 0,49,50
 295 705 295 705 285 693 c 128,-1,51
 275 681 275 681 268 663 c 2,52,-1
 191 462 l 2,53,54
 186 448 186 448 186 433 c 0,55,56
 187 387 187 387 244 366 c 1,57,-1
 216 308 l 1,58,59
 192 317 192 317 162 317 c 0,60,61
 119 317 119 317 81.5 295.5 c 128,-1,62
 44 274 44 274 22 236.5 c 128,-1,63
 0 199 0 199 0 155 c 0,64,65
 0 110 0 110 22 72.5 c 128,-1,66
 44 35 44 35 81.5 13.5 c 128,-1,67
 119 -8 119 -8 162 -8 c 0,68,69
 207 -8 207 -8 243 13.5 c 128,-1,70
 279 35 279 35 300 68.5 c 128,-1,71
 321 102 321 102 324 136 c 1,72,-1
 363 136 l 1,73,-1
 359 117 l 2,74,75
 358 113 358 113 358 107 c 0,76,77
 358 99 358 99 362 95 c 128,-1,78
 366 91 366 91 377 88 c 0,79,80
 399 82 399 82 407 82 c 0,81,82
 419 82 419 82 423.5 87 c 128,-1,83
 428 92 428 92 431 107 c 2,84,-1
 445 180 l 1,85,-1
 607 362 l 1,86,-1
 626 305 l 1,0,1
456 240 m 1,87,-1
 476 337 l 2,88,89
 477 341 477 341 478.5 350 c 128,-1,90
 480 359 480 359 480 365 c 0,91,92
 480 380 480 380 465 388 c 2,93,-1
 335 462 l 1,94,-1
 354 558 l 1,95,-1
 393 491 l 2,96,97
 397 485 397 485 403.5 483 c 128,-1,98
 410 481 410 481 431 481 c 2,99,-1
 567 481 l 1,100,-1
 595 397 l 1,101,-1
 456 240 l 1,87,-1
369 169 m 1,102,-1
 324 169 l 1,103,104
 321 207 321 207 299 242.5 c 128,-1,105
 277 278 277 278 244 294 c 1,106,-1
 273 355 l 1,107,-1
 398 317 l 1,108,-1
 369 169 l 1,102,-1
803.5 94 m 128,-1,110
 786 65 786 65 757 47.5 c 128,-1,111
 728 30 728 30 695 30 c 256,112,113
 662 30 662 30 633 47.5 c 128,-1,114
 604 65 604 65 586.5 94 c 128,-1,115
 569 123 569 123 569 156 c 0,116,117
 569 192 569 192 588 223 c 128,-1,118
 607 254 607 254 638 269 c 1,119,-1
 676 156 l 2,120,121
 680 145 680 145 684 141 c 128,-1,122
 688 137 688 137 694 137 c 256,123,124
 700 137 700 137 704.5 141 c 128,-1,125
 709 145 709 145 709 152 c 0,126,127
 709 156 709 156 705 167 c 2,128,-1
 667 279 l 1,129,130
 684 282 684 282 695 282 c 0,131,132
 729 282 729 282 758 265 c 128,-1,133
 787 248 787 248 804 219 c 128,-1,134
 821 190 821 190 821 156 c 0,135,109
 821 123 821 123 803.5 94 c 128,-1,110
201 274 m 1,137,-1
 152 165 l 2,138,139
 148 157 148 157 148 150 c 0,140,141
 148 136 148 136 162 136 c 2,142,-1
 286 136 l 1,143,144
 283 110 283 110 266.5 85.5 c 128,-1,145
 250 61 250 61 222.5 45.5 c 128,-1,146
 195 30 195 30 162 30 c 256,147,148
 129 30 129 30 100 47 c 128,-1,149
 71 64 71 64 54 93 c 128,-1,150
 37 122 37 122 37 155 c 0,151,152
 37 189 37 189 54 217.5 c 128,-1,153
 71 246 71 246 100 263 c 128,-1,154
 129 280 129 280 162 280 c 0,155,136
 185 280 185 280 201 274 c 1,137,-1
268.5 221.5 m 128,-1,157
 285 196 285 196 287 169 c 1,158,-1
 188 169 l 1,159,-1
 229 260 l 1,160,156
 252 247 252 247 268.5 221.5 c 128,-1,157
EndSplineSet
EndChar

StartChar: T.ss01
Encoding: 65557 -1 83
Width: 610
Flags: W
LayerCount: 2
Back
Fore
SplineSet
416 317 m 128,-1,1
 446 299 446 299 488 299 c 1,2,-1
 509 354 l 1,3,-1
 572 354 l 2,4,5
 598 354 598 354 610 378 c 0,6,7
 620 400 620 400 620 409 c 0,8,9
 620 419 620 419 605 428 c 2,10,-1
 513 481 l 1,11,-1
 513 524 l 2,12,13
 513 526 513 526 511 528 c 128,-1,14
 509 530 509 530 506 530 c 0,15,16
 501 530 501 530 497 525 c 2,17,-1
 375 370 l 1,18,0
 386 335 386 335 416 317 c 128,-1,1
405 298 m 128,-1,20
 375 317 375 317 359 358 c 1,21,-1
 40 391 l 1,22,23
 40 374 40 374 52.5 355 c 128,-1,24
 65 336 65 336 82 329 c 1,25,-1
 74 210 l 2,26,27
 62 38 62 38 62 21 c 0,28,29
 62 0 62 0 98 0 c 0,30,31
 138 0 138 0 141 21 c 2,32,-1
 171 206 l 1,33,34
 205 191 205 191 242.5 183.5 c 128,-1,35
 280 176 280 176 312 176 c 2,36,-1
 387 176 l 1,37,-1
 401 21 l 2,38,39
 402 10 402 10 414 5 c 128,-1,40
 426 0 426 0 444 0 c 0,41,42
 484 0 484 0 484 21 c 2,43,-1
 485 279 l 1,44,19
 435 279 435 279 405 298 c 128,-1,20
EndSplineSet
EndChar

StartChar: U.ss01
Encoding: 65558 -1 84
Width: 389
Flags: W
LayerCount: 2
Back
Fore
SplineSet
193 535 m 1,0,1
 170 535 170 535 158.5 524 c 128,-1,2
 147 513 147 513 147 497 c 2,3,-1
 149 449 l 2,4,5
 150 437 150 437 154.5 430.5 c 128,-1,6
 159 424 159 424 165 422 c 1,7,-1
 163 404 l 1,8,9
 151 404 151 404 138.5 397 c 128,-1,10
 126 390 126 390 118 381 c 2,11,-1
 38 301 l 2,12,13
 27 290 27 290 27 278 c 0,14,15
 27 267 27 267 36 256 c 0,16,17
 47 245 47 245 59 245 c 0,18,19
 70 245 70 245 81 256 c 2,20,-1
 137 307 l 1,21,-1
 128 224 l 1,22,-1
 259 224 l 1,23,-1
 250 307 l 1,24,-1
 308 254 l 2,25,26
 319 243 319 243 329 243 c 0,27,28
 341 243 341 243 353 255 c 0,29,30
 362 264 362 264 362 276 c 256,31,32
 362 288 362 288 350 300 c 2,33,-1
 269 381 l 2,34,35
 261 390 261 390 248.5 397 c 128,-1,36
 236 404 236 404 224 404 c 1,37,-1
 221 422 l 1,38,39
 227 424 227 424 231.5 430.5 c 128,-1,40
 236 437 236 437 237 449 c 0,41,42
 239 477 239 477 239 494 c 0,43,44
 239 513 239 513 227 524 c 128,-1,45
 215 535 215 535 193 535 c 1,46,-1
 193 535 l 1,0,1
49 105 m 256,48,49
 49 94 49 94 55 87 c 2,50,-1
 113 12 l 2,51,52
 123 0 123 0 132 0 c 0,53,54
 140 0 140 0 146 5 c 0,55,56
 160 16 160 16 165.5 21.5 c 128,-1,57
 171 27 171 27 171 33 c 0,58,59
 171 37 171 37 166 44 c 2,60,-1
 131 93 l 1,61,-1
 181 140 l 1,62,-1
 124 197 l 1,63,-1
 57 126 l 2,64,47
 49 116 49 116 49 105 c 256,48,49
339 106 m 256,66,67
 339 97 339 97 332 87 c 2,68,-1
 273 12 l 2,69,70
 264 0 264 0 255 0 c 0,71,72
 249 0 249 0 241 5 c 0,73,74
 216 23 216 23 216 33 c 0,75,76
 216 37 216 37 219 41 c 2,77,-1
 256 93 l 1,78,-1
 206 140 l 1,79,-1
 263 197 l 1,80,-1
 330 126 l 2,81,65
 339 115 339 115 339 106 c 256,66,67
EndSplineSet
EndChar

StartChar: A.ss02
Encoding: 65559 -1 85
Width: 720
Flags: W
LayerCount: 2
Back
Fore
SplineSet
361 638 m 1,0,-1
 185 546 l 1,1,-1
 185 592 l 2,2,3
 185 601 185 601 190.5 603.5 c 128,-1,4
 196 606 196 606 213 606 c 1,5,-1
 213 672 l 2,6,7
 213 683 213 683 222 686.5 c 128,-1,8
 231 690 231 690 253 690 c 2,9,-1
 312 690 l 1,10,-1
 312 734 l 2,11,12
 312 751 312 751 325 757 c 128,-1,13
 338 763 338 763 361 763 c 0,14,15
 409 763 409 763 409 734 c 2,16,-1
 409 690 l 1,17,-1
 468 690 l 2,18,19
 490 690 490 690 499.5 686.5 c 128,-1,20
 509 683 509 683 509 672 c 2,21,-1
 509 606 l 1,22,23
 525 606 525 606 530.5 603.5 c 128,-1,24
 536 601 536 601 536 592 c 2,25,-1
 536 546 l 1,26,-1
 361 638 l 1,0,-1
347 114 m 1,27,28
 327 116 327 116 301 130 c 0,29,30
 283 138 283 138 272 141.5 c 128,-1,31
 261 145 261 145 246 145 c 0,32,33
 238 145 238 145 224 143 c 1,34,-1
 179 331 l 2,35,36
 167 376 167 376 158 397 c 128,-1,37
 149 418 149 418 135 440 c 0,38,39
 123 462 123 462 123 471 c 0,40,41
 123 484 123 484 144 495 c 2,42,-1
 347 602 l 1,43,-1
 347 114 l 1,27,28
577 495 m 2,45,-1
 374 602 l 1,46,-1
 374 114 l 1,47,48
 395 116 395 116 421 130 c 0,49,50
 451 145 451 145 475 145 c 0,51,52
 485 145 485 145 497 143 c 1,53,-1
 543 331 l 2,54,55
 558 392 558 392 579 429 c 0,56,57
 581 433 581 433 589.5 448 c 128,-1,58
 598 463 598 463 598 471 c 0,59,44
 598 484 598 484 577 495 c 2,45,-1
0 65 m 2,61,-1
 0 78 l 2,62,63
 0 95 0 95 4 104 c 128,-1,64
 8 113 8 113 19 113 c 0,65,66
 37 113 37 113 49 109 c 128,-1,67
 61 105 61 105 76 97 c 256,68,69
 91 89 91 89 103 85 c 128,-1,70
 115 81 115 81 132 81 c 0,71,72
 150 81 150 81 163.5 85.5 c 128,-1,73
 177 90 177 90 193 98 c 0,74,75
 208 106 208 106 219.5 109.5 c 128,-1,76
 231 113 231 113 246 113 c 0,77,78
 260 113 260 113 271 109.5 c 128,-1,79
 282 106 282 106 300 98 c 0,80,81
 317 89 317 89 330 85 c 128,-1,82
 343 81 343 81 361 81 c 0,83,84
 378 81 378 81 390.5 85 c 128,-1,85
 403 89 403 89 420 97 c 0,86,87
 438 105 438 105 449.5 109 c 128,-1,88
 461 113 461 113 476 113 c 256,89,90
 491 113 491 113 502.5 109.5 c 128,-1,91
 514 106 514 106 529 98 c 0,92,93
 545 90 545 90 558.5 85.5 c 128,-1,94
 572 81 572 81 590 81 c 256,95,96
 608 81 608 81 620 85 c 128,-1,97
 632 89 632 89 647 97 c 0,98,99
 661 105 661 105 672.5 109 c 128,-1,100
 684 113 684 113 701 113 c 0,101,102
 712 113 712 113 716 104 c 128,-1,103
 720 95 720 95 720 78 c 2,104,-1
 720 65 l 2,105,106
 720 31 720 31 701 31 c 0,107,108
 685 31 685 31 673.5 27.5 c 128,-1,109
 662 24 662 24 647 16 c 256,110,111
 632 8 632 8 620 4 c 128,-1,112
 608 0 608 0 590 0 c 0,113,114
 561 0 561 0 529 16 c 0,115,116
 514 24 514 24 502.5 27.5 c 128,-1,117
 491 31 491 31 476 31 c 0,118,119
 462 31 462 31 451.5 28 c 128,-1,120
 441 25 441 25 432 21 c 128,-1,121
 423 17 423 17 420 16 c 0,122,123
 403 8 403 8 390.5 4 c 128,-1,124
 378 0 378 0 361 0 c 256,125,126
 344 0 344 0 331.5 4 c 128,-1,127
 319 8 319 8 300 16 c 0,128,129
 270 31 270 31 246 31 c 0,130,131
 231 31 231 31 219.5 27.5 c 128,-1,132
 208 24 208 24 193 16 c 0,133,134
 161 0 161 0 132 0 c 0,135,136
 115 0 115 0 103 4 c 128,-1,137
 91 8 91 8 76 16 c 0,138,139
 59 24 59 24 48 27.5 c 128,-1,140
 37 31 37 31 19 31 c 0,141,60
 0 31 0 31 0 65 c 2,61,-1
EndSplineSet
EndChar

StartChar: B.ss02
Encoding: 65560 -1 86
Width: 882
Flags: W
LayerCount: 2
Back
Fore
SplineSet
474.5 383.5 m 128,-1,1
 467 380 467 380 458 367 c 2,2,-1
 447 349 l 1,3,-1
 87 349 l 1,4,-1
 61 411 l 2,5,6
 54 426 54 426 28 426 c 0,7,8
 18 426 18 426 14 423.5 c 128,-1,9
 10 421 10 421 10 416 c 2,10,-1
 10 320 l 2,11,12
 10 307 10 307 18 296.5 c 128,-1,13
 26 286 26 286 40 281 c 2,14,-1
 369 174 l 1,15,-1
 397 116 l 2,16,17
 402 106 402 106 410.5 101.5 c 128,-1,18
 419 97 419 97 438 97 c 2,19,-1
 727 97 l 2,20,21
 760 97 760 97 794 111 c 128,-1,22
 828 125 828 125 850 147.5 c 128,-1,23
 872 170 872 170 872 194 c 1,24,-1
 776 329 l 2,25,26
 767 342 767 342 758.5 345.5 c 128,-1,27
 750 349 750 349 730 349 c 2,28,-1
 670 349 l 1,29,-1
 659 367 l 2,30,31
 650 380 650 380 642.5 383.5 c 128,-1,32
 635 387 635 387 615 387 c 2,33,-1
 572 387 l 1,34,-1
 572 446 l 1,35,-1
 834 446 l 2,36,37
 843 446 843 446 843 458 c 2,38,-1
 843 472 l 2,39,40
 843 484 843 484 834 484 c 2,41,-1
 271 484 l 2,42,43
 262 484 262 484 262 472 c 2,44,-1
 262 458 l 2,45,46
 262 446 262 446 271 446 c 2,47,-1
 533 446 l 1,48,-1
 533 387 l 1,49,-1
 502 387 l 2,50,0
 482 387 482 387 474.5 383.5 c 128,-1,1
456 204 m 1,51,-1
 456 272 l 1,52,-1
 533 272 l 1,53,-1
 533 204 l 1,54,-1
 456 204 l 1,51,-1
572 272 m 1,55,-1
 640 272 l 1,56,-1
 640 204 l 1,57,-1
 572 204 l 1,58,-1
 572 272 l 1,55,-1
737 272 m 1,59,-1
 776 204 l 1,60,-1
 679 204 l 1,61,-1
 679 272 l 1,62,-1
 737 272 l 1,59,-1
388 0 m 2,63,64
 372 0 372 0 372 21 c 2,65,-1
 372 47 l 2,66,67
 372 68 372 68 388 68 c 2,68,-1
 827 68 l 2,69,70
 843 68 843 68 843 47 c 2,71,-1
 843 21 l 2,72,73
 843 0 843 0 827 0 c 2,74,-1
 388 0 l 2,63,64
EndSplineSet
EndChar

StartChar: C.ss02
Encoding: 65561 -1 87
Width: 799
Flags: W
LayerCount: 2
Back
Fore
SplineSet
694 746 m 128,-1,1
 668 733 668 733 629 696 c 2,2,-1
 490 559 l 1,3,-1
 68 734 l 2,4,5
 64 736 64 736 59 736 c 0,6,7
 53 736 53 736 46 731.5 c 128,-1,8
 39 727 39 727 35 720 c 2,9,-1
 25 704 l 2,10,11
 20 696 20 696 20 690 c 0,12,13
 20 683 20 683 29 674 c 2,14,-1
 323 415 l 1,15,-1
 137 164 l 1,16,-1
 43 164 l 2,17,18
 38 164 38 164 34 161.5 c 128,-1,19
 30 159 30 159 25 152 c 0,20,21
 20 144 20 144 20 138 c 0,22,23
 20 131 20 131 27 125 c 2,24,-1
 99 80 l 1,25,-1
 145 8 l 2,26,27
 150 0 150 0 155 0 c 0,28,29
 162 0 162 0 175 8 c 0,30,31
 183 14 183 14 183 26 c 2,32,-1
 183 116 l 1,33,-1
 435 303 l 1,34,-1
 696 7 l 2,35,36
 703 0 703 0 710 0 c 256,37,38
 717 0 717 0 727 7 c 0,39,40
 756 25 756 25 756 39 c 0,41,42
 756 44 756 44 753 51 c 2,43,-1
 579 470 l 1,44,-1
 715 609 l 2,45,46
 779 673 779 673 779 728 c 0,47,48
 779 746 779 746 773 752.5 c 128,-1,49
 767 759 767 759 749 759 c 0,50,0
 720 759 720 759 694 746 c 128,-1,1
EndSplineSet
EndChar

StartChar: D.ss02
Encoding: 65562 -1 88
Width: 864
Flags: W
LayerCount: 2
Back
Fore
SplineSet
845 194 m 128,-1,1
 812 162 812 162 771 146 c 2,2,-1
 383 9 l 2,3,4
 357 0 357 0 334 0 c 0,5,6
 321 0 321 0 193 5 c 2,7,-1
 104 8 l 2,8,9
 87 8 87 8 73 26 c 2,10,-1
 24 86 l 2,11,12
 20 91 20 91 20 95 c 256,13,14
 20 99 20 99 24.5 105 c 128,-1,15
 29 111 29 111 36 116 c 0,16,17
 46 123 46 123 53 123 c 0,18,19
 59 123 59 123 73 116 c 2,20,-1
 141 78 l 1,21,-1
 332 148 l 1,22,-1
 73 395 l 2,23,24
 59 407 59 407 59 416 c 0,25,26
 59 421 59 421 64 426 c 0,27,28
 77 439 77 439 90 446.5 c 128,-1,29
 103 454 103 454 110 454 c 0,30,31
 113 454 113 454 126 449 c 2,32,-1
 606 242 l 1,33,-1
 722 281 l 2,34,35
 752 290 752 290 773 290 c 0,36,37
 820 290 820 290 849 277.5 c 128,-1,38
 878 265 878 265 878 250 c 0,39,0
 878 226 878 226 845 194 c 128,-1,1
EndSplineSet
EndChar

StartChar: E.ss02
Encoding: 65563 -1 89
Width: 691
Flags: W
LayerCount: 2
Back
Fore
SplineSet
644.5 116.5 m 128,-1,1
 668 94 668 94 679.5 73 c 128,-1,2
 691 52 691 52 691 39 c 0,3,4
 691 35 691 35 690 33 c 0,5,6
 686 25 686 25 666 17.5 c 128,-1,7
 646 10 646 10 619 10 c 0,8,9
 581 10 581 10 538 28 c 2,10,-1
 217 161 l 2,11,12
 194 171 194 171 175 190 c 2,13,-1
 14 357 l 2,14,15
 5 367 5 367 2.5 372 c 128,-1,16
 0 377 0 377 0 386 c 0,17,18
 1 402 1 402 4.5 426.5 c 128,-1,19
 8 451 8 451 10 464 c 0,20,21
 11 470 11 470 15 473.5 c 128,-1,22
 19 477 19 477 25 477 c 0,23,24
 30 477 30 477 42 472 c 0,25,26
 52 468 52 468 55 464.5 c 128,-1,27
 58 461 58 461 62 450 c 2,28,-1
 89 373 l 1,29,-1
 237 308 l 1,30,-1
 262 298 l 1,31,-1
 235 628 l 1,32,-1
 235 631 l 2,33,34
 235 639 235 639 239.5 644.5 c 128,-1,35
 244 650 244 650 253 650 c 2,36,-1
 279 650 l 2,37,38
 291 650 291 650 297 648 c 128,-1,39
 303 646 303 646 306 639 c 2,40,-1
 507 193 l 1,41,-1
 587 155 l 2,42,0
 621 139 621 139 644.5 116.5 c 128,-1,1
242.5 99 m 128,-1,44
 250 106 250 106 260 106 c 256,45,46
 270 106 270 106 277 98.5 c 128,-1,47
 284 91 284 91 284 81 c 256,48,49
 284 71 284 71 277 64 c 128,-1,50
 270 57 270 57 260 57 c 256,51,52
 250 57 250 57 242.5 64 c 128,-1,53
 235 71 235 71 235 81 c 0,54,43
 235 92 235 92 242.5 99 c 128,-1,44
321.5 71 m 128,-1,56
 329 78 329 78 339 78 c 256,57,58
 349 78 349 78 356 71 c 128,-1,59
 363 64 363 64 363 54 c 256,60,61
 363 44 363 44 356 37 c 128,-1,62
 349 30 349 30 339 30 c 256,63,64
 329 30 329 30 321.5 37 c 128,-1,65
 314 44 314 44 314 54 c 256,66,55
 314 64 314 64 321.5 71 c 128,-1,56
402 40.5 m 128,-1,68
 409 48 409 48 419 48 c 256,69,70
 429 48 429 48 436 40.5 c 128,-1,71
 443 33 443 33 443 23 c 256,72,73
 443 13 443 13 436 6 c 128,-1,74
 429 -1 429 -1 419 -1 c 256,75,76
 409 -1 409 -1 402 6 c 128,-1,77
 395 13 395 13 395 23 c 256,78,67
 395 33 395 33 402 40.5 c 128,-1,68
EndSplineSet
EndChar

StartChar: F.ss02
Encoding: 65564 -1 90
Width: 903
Flags: W
LayerCount: 2
Back
Fore
SplineSet
436.5 130 m 128,-1,1
 427 120 427 120 413 120 c 0,2,3
 402 120 402 120 392.5 125.5 c 128,-1,4
 383 131 383 131 380 139 c 1,5,-1
 349 139 l 1,6,7
 346 105 346 105 325 70.5 c 128,-1,8
 304 36 304 36 267.5 14 c 128,-1,9
 231 -8 231 -8 186 -8 c 0,10,11
 143 -8 143 -8 105.5 13.5 c 128,-1,12
 68 35 68 35 45.5 72.5 c 128,-1,13
 23 110 23 110 23 156 c 0,14,15
 23 201 23 201 45.5 238.5 c 128,-1,16
 68 276 68 276 105.5 297.5 c 128,-1,17
 143 319 143 319 186 319 c 0,18,19
 213 319 213 319 232 313.5 c 128,-1,20
 251 308 251 308 271 296 c 1,21,-1
 327 368 l 1,22,-1
 317 368 l 2,23,24
 310 368 310 368 305.5 373 c 128,-1,25
 301 378 301 378 301 384 c 256,26,27
 301 390 301 390 305.5 394.5 c 128,-1,28
 310 399 310 399 317 399 c 2,29,-1
 431 399 l 2,30,31
 438 399 438 399 442.5 394.5 c 128,-1,32
 447 390 447 390 447 384 c 256,33,34
 447 378 447 378 442.5 373 c 128,-1,35
 438 368 438 368 431 368 c 2,36,-1
 421 368 l 1,37,-1
 421 189 l 1,38,39
 426 188 426 188 430 185 c 1,40,-1
 618 398 l 1,41,-1
 587 492 l 1,42,-1
 508 492 l 2,43,44
 501 492 501 492 496.5 497 c 128,-1,45
 492 502 492 502 492 508 c 256,46,47
 492 514 492 514 496.5 518.5 c 128,-1,48
 501 523 501 523 508 523 c 2,49,-1
 598 523 l 2,50,51
 605 523 605 523 609 518.5 c 128,-1,52
 613 514 613 514 616 503 c 2,53,-1
 678 315 l 1,54,55
 698 320 698 320 718 320 c 0,56,57
 765 320 765 320 802.5 297.5 c 128,-1,58
 840 275 840 275 861 237 c 128,-1,59
 882 199 882 199 882 156 c 0,60,61
 882 109 882 109 859.5 71.5 c 128,-1,62
 837 34 837 34 799.5 13 c 128,-1,63
 762 -8 762 -8 718 -8 c 0,64,65
 675 -8 675 -8 637.5 13 c 128,-1,66
 600 34 600 34 577.5 71.5 c 128,-1,67
 555 109 555 109 555 156 c 0,68,69
 555 207 555 207 579 245 c 128,-1,70
 603 283 603 283 649 305 c 1,71,-1
 630 363 l 1,72,-1
 446 156 l 1,73,0
 446 140 446 140 436.5 130 c 128,-1,1
367 368 m 1,74,-1
 295 277 l 1,75,76
 317 258 317 258 332 228.5 c 128,-1,77
 347 199 347 199 349 170 c 1,78,-1
 379 170 l 1,79,80
 384 178 384 178 389 182 c 1,81,-1
 389 368 l 1,82,-1
 367 368 l 1,74,-1
124 265 m 128,-1,84
 95 248 95 248 77.5 219 c 128,-1,85
 60 190 60 190 60 156 c 0,86,87
 60 123 60 123 77.5 94 c 128,-1,88
 95 65 95 65 124 47.5 c 128,-1,89
 153 30 153 30 186 30 c 256,90,91
 219 30 219 30 247 46.5 c 128,-1,92
 275 63 275 63 291.5 88 c 128,-1,93
 308 113 308 113 311 139 c 1,94,-1
 186 139 l 2,95,96
 177 139 177 139 171.5 142.5 c 128,-1,97
 166 146 166 146 166 153 c 0,98,99
 166 162 166 162 170 167 c 2,100,-1
 248 267 l 1,101,102
 221 282 221 282 186 282 c 0,103,83
 153 282 153 282 124 265 c 128,-1,84
827 219 m 128,-1,105
 810 248 810 248 781 265 c 128,-1,106
 752 282 752 282 718 282 c 0,107,108
 706 282 706 282 690 279 c 1,109,-1
 728 167 l 2,110,111
 732 156 732 156 732 152 c 0,112,113
 732 145 732 145 727.5 141 c 128,-1,114
 723 137 723 137 717 137 c 256,115,116
 711 137 711 137 707 141 c 128,-1,117
 703 145 703 145 699 156 c 2,118,-1
 661 269 l 1,119,120
 630 254 630 254 611 223 c 128,-1,121
 592 192 592 192 592 156 c 0,122,123
 592 123 592 123 609.5 94 c 128,-1,124
 627 65 627 65 656 47.5 c 128,-1,125
 685 30 685 30 718 30 c 256,126,127
 751 30 751 30 780 47.5 c 128,-1,128
 809 65 809 65 826.5 94 c 128,-1,129
 844 123 844 123 844 156 c 0,130,104
 844 190 844 190 827 219 c 128,-1,105
212 170 m 1,131,-1
 312 170 l 1,132,133
 311 191 311 191 300.5 212 c 128,-1,134
 290 233 290 233 273 248 c 1,135,-1
 212 170 l 1,131,-1
EndSplineSet
EndChar

StartChar: G.ss02
Encoding: 65565 -1 91
Width: 752
Flags: W
LayerCount: 2
Back
Fore
SplineSet
722 208 m 2,0,1
 722 230 722 230 701 248 c 2,2,-1
 685 262 l 1,3,-1
 611 506 l 2,4,5
 606 522 606 522 571 522 c 2,6,-1
 181 522 l 2,7,8
 146 522 146 522 141 506 c 2,9,-1
 67 262 l 1,10,-1
 51 248 l 2,11,12
 30 230 30 230 30 208 c 0,13,14
 30 200 30 200 34 169 c 0,15,16
 40 127 40 127 42 103 c 2,17,-1
 42 30 l 2,18,19
 42 14 42 14 54.5 6.5 c 128,-1,20
 67 -1 67 -1 96 -1 c 2,21,-1
 146 -1 l 2,22,23
 175 -1 175 -1 185.5 8 c 128,-1,24
 196 17 196 17 196 42 c 1,25,-1
 557 43 l 1,26,27
 557 18 557 18 568 9 c 128,-1,28
 579 0 579 0 608 0 c 2,29,-1
 660 0 l 2,30,31
 687 0 687 0 699 7.5 c 128,-1,32
 711 15 711 15 711 31 c 2,33,-1
 711 105 l 1,34,-1
 722 208 l 2,0,1
151 248 m 1,35,-1
 209 449 l 1,36,-1
 549 449 l 1,37,-1
 603 248 l 1,38,-1
 151 248 l 1,35,-1
170.5 132.5 m 128,-1,40
 160 122 160 122 145 122 c 0,41,42
 129 122 129 122 118 132.5 c 128,-1,43
 107 143 107 143 107 158 c 256,44,45
 107 173 107 173 118 184 c 128,-1,46
 129 195 129 195 145 195 c 0,47,48
 160 195 160 195 170.5 184 c 128,-1,49
 181 173 181 173 181 158 c 256,50,39
 181 143 181 143 170.5 132.5 c 128,-1,40
633.5 132.5 m 128,-1,52
 623 122 623 122 607 122 c 0,53,54
 592 122 592 122 581.5 132.5 c 128,-1,55
 571 143 571 143 571 158 c 256,56,57
 571 173 571 173 581.5 184 c 128,-1,58
 592 195 592 195 607 195 c 0,59,60
 623 195 623 195 633.5 184 c 128,-1,61
 644 173 644 173 644 158 c 256,62,51
 644 143 644 143 633.5 132.5 c 128,-1,52
EndSplineSet
EndChar

StartChar: H.ss02
Encoding: 65566 -1 92
Width: 752
Flags: W
LayerCount: 2
Back
Fore
SplineSet
54.5 6.5 m 128,-1,1
 42 14 42 14 42 30 c 2,2,-1
 42 103 l 2,3,4
 40 127 40 127 34 169 c 0,5,6
 30 200 30 200 30 208 c 0,7,8
 30 230 30 230 51 248 c 2,9,-1
 67 262 l 1,10,-1
 141 506 l 2,11,12
 146 522 146 522 181 522 c 2,13,-1
 273 522 l 1,14,-1
 280 546 l 2,15,16
 283 558 283 558 306 558 c 2,17,-1
 451 558 l 2,18,19
 475 558 475 558 478 546 c 2,20,-1
 484 522 l 1,21,-1
 571 522 l 2,22,23
 606 522 606 522 611 506 c 2,24,-1
 685 262 l 1,25,-1
 701 248 l 2,26,27
 722 230 722 230 722 208 c 2,28,-1
 711 105 l 1,29,-1
 711 31 l 2,30,31
 711 15 711 15 699 7.5 c 128,-1,32
 687 0 687 0 660 0 c 2,33,-1
 608 0 l 2,34,35
 579 0 579 0 568 9 c 128,-1,36
 557 18 557 18 557 43 c 1,37,-1
 196 42 l 1,38,39
 196 17 196 17 185.5 8 c 128,-1,40
 175 -1 175 -1 146 -1 c 2,41,-1
 96 -1 l 2,42,0
 67 -1 67 -1 54.5 6.5 c 128,-1,1
603 248 m 1,43,-1
 549 449 l 1,44,-1
 209 449 l 1,45,-1
 151 248 l 1,46,-1
 603 248 l 1,43,-1
170.5 132.5 m 128,-1,48
 181 143 181 143 181 158 c 256,49,50
 181 173 181 173 170.5 184 c 128,-1,51
 160 195 160 195 145 195 c 0,52,53
 129 195 129 195 118 184 c 128,-1,54
 107 173 107 173 107 158 c 256,55,56
 107 143 107 143 118 132.5 c 128,-1,57
 129 122 129 122 145 122 c 0,58,47
 160 122 160 122 170.5 132.5 c 128,-1,48
633.5 132.5 m 128,-1,60
 644 143 644 143 644 158 c 256,61,62
 644 173 644 173 633.5 184 c 128,-1,63
 623 195 623 195 607 195 c 0,64,65
 592 195 592 195 581.5 184 c 128,-1,66
 571 173 571 173 571 158 c 256,67,68
 571 143 571 143 581.5 132.5 c 128,-1,69
 592 122 592 122 607 122 c 0,70,59
 623 122 623 122 633.5 132.5 c 128,-1,60
EndSplineSet
EndChar

StartChar: I.ss02
Encoding: 65567 -1 93
Width: 752
Flags: W
LayerCount: 2
Back
Fore
SplineSet
587 665 m 256,1,2
 587 662 587 662 585 660 c 2,3,-1
 556 634 l 1,4,-1
 552 632 l 2,5,6
 550 632 550 632 548 635 c 2,7,-1
 532 656 l 2,8,9
 531 658 531 658 528 658 c 0,10,11
 526 658 526 658 525 656 c 2,12,-1
 509 634 l 2,13,14
 508 632 508 632 506 632 c 0,15,16
 503 632 503 632 502 634 c 2,17,-1
 485 656 l 2,18,19
 484 658 484 658 482 658 c 256,20,21
 480 658 480 658 478 656 c 2,22,-1
 462 636 l 2,23,24
 459 632 459 632 453 632 c 2,25,-1
 355 632 l 1,26,27
 355 614 355 614 343 602.5 c 128,-1,28
 331 591 331 591 310 590 c 0,29,30
 279 588 279 588 266 586 c 2,31,-1
 197 581 l 2,32,33
 162 581 162 581 150 606 c 0,34,35
 147 614 147 614 144 631.5 c 128,-1,36
 141 649 141 649 141 666 c 0,37,38
 141 684 141 684 144 701 c 128,-1,39
 147 718 147 718 150 725 c 0,40,41
 162 751 162 751 197 751 c 2,42,-1
 266 746 l 2,43,44
 279 744 279 744 310 742 c 0,45,46
 331 741 331 741 343 729 c 128,-1,47
 355 717 355 717 355 699 c 1,48,-1
 557 699 l 2,49,50
 564 699 564 699 566 695 c 2,51,-1
 586 669 l 2,52,0
 587 668 587 668 587 665 c 256,1,2
226 691 m 2,53,54
 226 711 226 711 215 711 c 2,55,-1
 196 711 l 2,56,57
 185 711 185 711 185 691 c 2,58,-1
 185 640 l 2,59,60
 185 620 185 620 196 620 c 2,61,-1
 215 620 l 2,62,63
 226 620 226 620 226 640 c 2,64,-1
 226 691 l 2,53,54
722 208 m 2,65,66
 722 230 722 230 701 248 c 2,67,-1
 685 262 l 1,68,-1
 611 506 l 2,69,70
 606 522 606 522 571 522 c 2,71,-1
 181 522 l 2,72,73
 146 522 146 522 141 506 c 2,74,-1
 67 262 l 1,75,-1
 51 248 l 2,76,77
 30 230 30 230 30 208 c 0,78,79
 30 200 30 200 34 169 c 0,80,81
 40 127 40 127 42 103 c 2,82,-1
 42 30 l 2,83,84
 42 14 42 14 54.5 6.5 c 128,-1,85
 67 -1 67 -1 96 -1 c 2,86,-1
 146 -1 l 2,87,88
 175 -1 175 -1 185.5 8 c 128,-1,89
 196 17 196 17 196 42 c 1,90,-1
 557 43 l 1,91,92
 557 18 557 18 568 9 c 128,-1,93
 579 0 579 0 608 0 c 2,94,-1
 660 0 l 2,95,96
 687 0 687 0 699 7.5 c 128,-1,97
 711 15 711 15 711 31 c 2,98,-1
 711 105 l 1,99,-1
 722 208 l 2,65,66
151 248 m 1,100,-1
 209 449 l 1,101,-1
 549 449 l 1,102,-1
 603 248 l 1,103,-1
 151 248 l 1,100,-1
170.5 132.5 m 128,-1,105
 160 122 160 122 145 122 c 0,106,107
 129 122 129 122 118 132.5 c 128,-1,108
 107 143 107 143 107 158 c 256,109,110
 107 173 107 173 118 184 c 128,-1,111
 129 195 129 195 145 195 c 0,112,113
 160 195 160 195 170.5 184 c 128,-1,114
 181 173 181 173 181 158 c 256,115,104
 181 143 181 143 170.5 132.5 c 128,-1,105
633.5 132.5 m 128,-1,117
 623 122 623 122 607 122 c 0,118,119
 592 122 592 122 581.5 132.5 c 128,-1,120
 571 143 571 143 571 158 c 256,121,122
 571 173 571 173 581.5 184 c 128,-1,123
 592 195 592 195 607 195 c 0,124,125
 623 195 623 195 633.5 184 c 128,-1,126
 644 173 644 173 644 158 c 256,127,116
 644 143 644 143 633.5 132.5 c 128,-1,117
EndSplineSet
EndChar

StartChar: J.ss02
Encoding: 65568 -1 94
Width: 780
Flags: W
LayerCount: 2
Back
Fore
SplineSet
737 157 m 2,1,-1
 722 94 l 1,2,-1
 722 31 l 2,3,4
 722 15 722 15 710 7.5 c 128,-1,5
 698 0 698 0 671 0 c 2,6,-1
 619 0 l 2,7,8
 590 0 590 0 579 9 c 128,-1,9
 568 18 568 18 568 43 c 1,10,-1
 212 43 l 1,11,12
 212 18 212 18 201.5 9 c 128,-1,13
 191 0 191 0 162 0 c 2,14,-1
 112 0 l 2,15,16
 83 0 83 0 70.5 7.5 c 128,-1,17
 58 15 58 15 58 31 c 2,18,-1
 58 94 l 1,19,-1
 43 156 l 2,20,21
 40 168 40 168 40 177 c 2,22,-1
 40 248 l 2,23,24
 40 262 40 262 42 280 c 2,25,-1
 80 718 l 2,26,27
 82 737 82 737 88 741.5 c 128,-1,28
 94 746 94 746 119 746 c 2,29,-1
 667 746 l 2,30,31
 687 746 687 746 692 741 c 128,-1,32
 697 736 697 736 699 718 c 2,33,-1
 738 280 l 2,34,35
 740 262 740 262 740 248 c 2,36,-1
 740 177 l 2,37,0
 740 168 740 168 737 157 c 2,1,-1
467 686 m 2,38,39
 467 697 467 697 447 697 c 2,40,-1
 332 697 l 2,41,42
 313 697 313 697 313 686 c 2,43,-1
 313 668 l 2,44,45
 313 657 313 657 332 657 c 2,46,-1
 447 657 l 2,47,48
 467 657 467 657 467 668 c 2,49,-1
 467 686 l 2,38,39
630 605 m 1,50,-1
 145 605 l 1,51,-1
 121 248 l 1,52,-1
 655 248 l 1,53,-1
 630 605 l 1,50,-1
133.5 131.5 m 128,-1,55
 144 121 144 121 159 121 c 0,56,57
 175 121 175 121 185.5 131.5 c 128,-1,58
 196 142 196 142 196 157 c 0,59,60
 196 173 196 173 185.5 183.5 c 128,-1,61
 175 194 175 194 159 194 c 0,62,63
 144 194 144 194 133.5 183.5 c 128,-1,64
 123 173 123 173 123 157 c 0,65,54
 123 142 123 142 133.5 131.5 c 128,-1,55
649 183.5 m 128,-1,67
 638 194 638 194 623 194 c 256,68,69
 608 194 608 194 597.5 183.5 c 128,-1,70
 587 173 587 173 587 157 c 0,71,72
 587 142 587 142 597.5 131.5 c 128,-1,73
 608 121 608 121 623 121 c 256,74,75
 638 121 638 121 649 131.5 c 128,-1,76
 660 142 660 142 660 157 c 0,77,66
 660 173 660 173 649 183.5 c 128,-1,67
EndSplineSet
EndChar

StartChar: K.ss02
Encoding: 65569 -1 95
Width: 704
Flags: W
LayerCount: 2
Back
Fore
SplineSet
704 6 m 256,1,2
 704 2 704 2 699.5 1 c 128,-1,3
 695 0 695 0 685 0 c 2,4,-1
 614 0 l 2,5,6
 601 0 601 0 594.5 3 c 128,-1,7
 588 6 588 6 578 16 c 2,8,-1
 410 177 l 1,9,-1
 295 177 l 1,10,-1
 126 16 l 2,11,12
 116 6 116 6 110 3 c 128,-1,13
 104 0 104 0 91 0 c 2,14,-1
 20 0 l 2,15,16
 9 0 9 0 4.5 1 c 128,-1,17
 0 2 0 2 0 6 c 256,18,19
 0 10 0 10 7 16 c 2,20,-1
 199 177 l 1,21,-1
 181 177 l 2,22,23
 140 177 140 177 133 212 c 2,24,-1
 106 357 l 2,25,26
 105 361 105 361 105 369 c 0,27,28
 105 385 105 385 106 395 c 2,29,-1
 134 719 l 2,30,31
 136 735 136 735 142.5 740 c 128,-1,32
 149 745 149 745 169 745 c 2,33,-1
 530 745 l 2,34,35
 554 745 554 745 561 740 c 128,-1,36
 568 735 568 735 570 720 c 2,37,-1
 599 395 l 2,38,39
 600 388 600 388 600 375 c 0,40,41
 600 363 600 363 599 357 c 2,42,-1
 571 212 l 2,43,44
 567 195 567 195 555 186 c 128,-1,45
 543 177 543 177 524 177 c 2,46,-1
 503 177 l 1,47,-1
 698 16 l 2,48,0
 704 10 704 10 704 6 c 256,1,2
410 685 m 2,49,50
 410 696 410 696 390 696 c 2,51,-1
 315 696 l 2,52,53
 296 696 296 696 296 685 c 2,54,-1
 296 666 l 2,55,56
 296 655 296 655 315 655 c 2,57,-1
 390 655 l 2,58,59
 410 655 410 655 410 666 c 2,60,-1
 410 685 l 2,49,50
504 603 m 1,61,-1
 199 603 l 1,62,-1
 182 385 l 1,63,-1
 523 385 l 1,64,-1
 504 603 l 1,61,-1
190.5 268 m 128,-1,66
 201 257 201 257 216 257 c 0,67,68
 232 257 232 257 243 268 c 128,-1,69
 254 279 254 279 254 294 c 256,70,71
 254 309 254 309 243 319.5 c 128,-1,72
 232 330 232 330 216 330 c 0,73,74
 201 330 201 330 190.5 319.5 c 128,-1,75
 180 309 180 309 180 294 c 256,76,65
 180 279 180 279 190.5 268 c 128,-1,66
511.5 268 m 128,-1,78
 523 279 523 279 523 294 c 256,79,80
 523 309 523 309 511.5 319.5 c 128,-1,81
 500 330 500 330 485 330 c 256,82,83
 470 330 470 330 459.5 319.5 c 128,-1,84
 449 309 449 309 449 294 c 256,85,86
 449 279 449 279 459.5 268 c 128,-1,87
 470 257 470 257 485 257 c 256,88,77
 500 257 500 257 511.5 268 c 128,-1,78
EndSplineSet
EndChar

StartChar: A.ss03
Encoding: 65570 -1 96
Width: 787
Flags: W
LayerCount: 2
Back
Fore
SplineSet
390 794 m 2,0,1
 394 787 394 787 394 784 c 0,2,3
 394 780 394 780 390 777 c 128,-1,4
 386 774 386 774 379 774 c 2,5,-1
 233 774 l 2,6,7
 219 774 219 774 219 783 c 0,8,9
 219 790 219 790 222 794 c 2,10,-1
 294 920 l 2,11,12
 299 929 299 929 306 929 c 256,13,14
 313 929 313 929 318 920 c 2,15,-1
 390 794 l 2,0,1
482 774 m 256,17,18
 475 774 475 774 470 783 c 2,19,-1
 398 909 l 2,20,21
 395 915 395 915 395 920 c 0,22,23
 395 929 395 929 409 929 c 2,24,-1
 555 929 l 2,25,26
 562 929 562 929 566 926.5 c 128,-1,27
 570 924 570 924 570 919 c 0,28,29
 570 916 570 916 566 909 c 2,30,-1
 494 783 l 2,31,16
 489 774 489 774 482 774 c 256,17,18
733.5 690.5 m 128,-1,33
 743 681 743 681 743 660 c 2,34,-1
 743 40 l 2,35,36
 743 19 743 19 733.5 9.5 c 128,-1,37
 724 0 724 0 703 0 c 2,38,-1
 84 0 l 2,39,40
 63 0 63 0 53.5 9.5 c 128,-1,41
 44 19 44 19 44 40 c 2,42,-1
 44 660 l 2,43,44
 44 681 44 681 53.5 690.5 c 128,-1,45
 63 700 63 700 84 700 c 2,46,-1
 703 700 l 2,47,32
 724 700 724 700 733.5 690.5 c 128,-1,33
666 625 m 1,48,-1
 121 625 l 1,49,-1
 121 68 l 1,50,-1
 666 68 l 1,51,-1
 666 625 l 1,48,-1
296 314.5 m 128,-1,53
 292 309 292 309 283 309 c 1,54,-1
 276 121 l 2,55,56
 276 110 276 110 257 110 c 0,57,58
 237 110 237 110 237 121 c 2,59,-1
 237 307 l 1,60,-1
 228 307 l 1,61,-1
 228 121 l 2,62,63
 228 110 228 110 208 110 c 0,64,65
 190 110 190 110 190 121 c 2,66,-1
 182 309 l 1,67,68
 165 309 165 309 165 328 c 0,69,70
 165 341 165 341 163 374 c 2,71,-1
 161 450 l 2,72,73
 161 472 161 472 181 479 c 0,74,75
 194 483 194 483 205 490.5 c 128,-1,76
 216 498 216 498 216 505 c 2,77,-1
 216 513 l 1,78,79
 210 516 210 516 209 528 c 2,80,-1
 208 561 l 2,81,82
 208 570 208 570 215.5 575 c 128,-1,83
 223 580 223 580 233 580 c 256,84,85
 243 580 243 580 250 574.5 c 128,-1,86
 257 569 257 569 257 560 c 0,87,88
 257 537 257 537 256 528 c 0,89,90
 255 516 255 516 249 513 c 1,91,-1
 249 505 l 2,92,93
 249 498 249 498 260 490.5 c 128,-1,94
 271 483 271 483 284 479 c 0,95,96
 304 472 304 472 304 450 c 2,97,-1
 302 374 l 2,98,99
 300 341 300 341 300 328 c 0,100,52
 300 320 300 320 296 314.5 c 128,-1,53
425 336 m 2,101,102
 425 350 425 350 426 361.5 c 128,-1,103
 427 373 427 373 430 382 c 0,104,105
 439 402 439 402 439 413 c 2,106,-1
 439 422 l 1,107,108
 430 427 430 427 430 438 c 2,109,-1
 430 470 l 2,110,111
 430 479 430 479 438 485 c 128,-1,112
 446 491 446 491 455 491 c 256,113,114
 464 491 464 491 472 485 c 128,-1,115
 480 479 480 479 480 470 c 2,116,-1
 480 437 l 2,117,118
 480 432 480 432 476.5 427.5 c 128,-1,119
 473 423 473 423 470 422 c 2,120,-1
 470 418 l 2,121,122
 470 403 470 403 481 394 c 0,123,124
 488 388 488 388 491.5 381.5 c 128,-1,125
 495 375 495 375 498 362 c 2,126,-1
 518 279 l 1,127,-1
 562 279 l 2,128,129
 571 279 571 279 576.5 276 c 128,-1,130
 582 273 582 273 586 264 c 2,131,-1
 629 165 l 2,132,133
 635 150 635 150 635 148 c 0,134,135
 635 145 635 145 632 143 c 0,136,137
 629 140 629 140 622 137 c 128,-1,138
 615 134 615 134 611 134 c 256,139,140
 607 134 607 134 605 137 c 2,141,-1
 558 228 l 1,142,-1
 532 228 l 1,143,-1
 534 211 l 1,144,145
 534 169 534 169 504 139.5 c 128,-1,146
 474 110 474 110 432 110 c 0,147,148
 391 110 391 110 361 139.5 c 128,-1,149
 331 169 331 169 331 211 c 0,150,151
 331 251 331 251 358 279.5 c 128,-1,152
 385 308 385 308 426 312 c 1,153,-1
 425 336 l 2,101,102
370 266.5 m 128,-1,155
 349 243 349 243 349 211 c 0,156,157
 349 177 349 177 373.5 152.5 c 128,-1,158
 398 128 398 128 432 128 c 0,159,160
 467 128 467 128 491 152.5 c 128,-1,161
 515 177 515 177 515 211 c 0,162,163
 515 222 515 222 513 228 c 1,164,-1
 448 228 l 2,165,166
 438 228 438 228 432 234 c 128,-1,167
 426 240 426 240 426 249 c 2,168,-1
 426 294 l 1,169,154
 391 290 391 290 370 266.5 c 128,-1,155
EndSplineSet
EndChar

StartChar: B.ss03
Encoding: 65571 -1 97
Width: 718
Flags: W
LayerCount: 2
Back
Fore
SplineSet
688 282 m 1,0,-1
 195 0 l 1,1,-1
 60 0 l 1,2,-1
 60 67 l 2,3,4
 60 75 60 75 66 81 c 128,-1,5
 72 87 72 87 80 87 c 2,6,-1
 184 87 l 1,7,-1
 184 132 l 2,8,9
 184 140 184 140 190 146 c 128,-1,10
 196 152 196 152 204 152 c 2,11,-1
 308 152 l 1,12,-1
 308 204 l 2,13,14
 308 212 308 212 314 218 c 128,-1,15
 320 224 320 224 328 224 c 2,16,-1
 432 224 l 1,17,-1
 432 274 l 2,18,19
 432 282 432 282 438 288 c 128,-1,20
 444 294 444 294 452 294 c 2,21,-1
 556 294 l 1,22,-1
 556 345 l 2,23,24
 556 353 556 353 562 359 c 128,-1,25
 568 365 568 365 576 365 c 2,26,-1
 688 365 l 1,27,-1
 688 282 l 1,0,-1
EndSplineSet
EndChar

StartChar: C.ss03
Encoding: 65572 -1 98
Width: 718
Flags: W
LayerCount: 2
Back
Fore
SplineSet
113 501 m 2,1,-1
 114 507 l 1,2,-1
 147 632 l 2,3,4
 150 645 150 645 161 651 c 2,5,-1
 193 668 l 2,6,7
 196 670 196 670 199 670 c 0,8,9
 201 670 201 670 201 668 c 0,10,11
 201 667 201 667 196 650 c 2,12,-1
 170 556 l 1,13,-1
 429 706 l 2,14,15
 433 708 433 708 436 708 c 0,16,17
 443 708 443 708 448 699 c 2,18,-1
 453 690 l 2,19,20
 458 681 458 681 458 677 c 0,21,22
 458 672 458 672 451 668 c 2,23,-1
 192 518 l 1,24,-1
 301 491 l 2,25,26
 306 490 306 490 306 487 c 256,27,28
 306 484 306 484 301 481 c 2,29,-1
 270 463 l 2,30,31
 264 460 264 460 258 460 c 0,32,33
 251 460 251 460 248 461 c 2,34,-1
 121 495 l 2,35,0
 113 497 113 497 113 501 c 2,1,-1
688 282 m 1,36,-1
 195 0 l 1,37,-1
 60 0 l 1,38,-1
 60 67 l 2,39,40
 60 75 60 75 66 81 c 128,-1,41
 72 87 72 87 80 87 c 2,42,-1
 184 87 l 1,43,-1
 184 132 l 2,44,45
 184 140 184 140 190 146 c 128,-1,46
 196 152 196 152 204 152 c 2,47,-1
 308 152 l 1,48,-1
 308 204 l 2,49,50
 308 212 308 212 314 218 c 128,-1,51
 320 224 320 224 328 224 c 2,52,-1
 432 224 l 1,53,-1
 432 274 l 2,54,55
 432 282 432 282 438 288 c 128,-1,56
 444 294 444 294 452 294 c 2,57,-1
 556 294 l 1,58,-1
 556 345 l 2,59,60
 556 353 556 353 562 359 c 128,-1,61
 568 365 568 365 576 365 c 2,62,-1
 688 365 l 1,63,-1
 688 282 l 1,36,-1
EndSplineSet
EndChar

StartChar: D.ss03
Encoding: 65573 -1 99
Width: 718
Flags: W
LayerCount: 2
Back
Fore
SplineSet
449 689 m 256,1,2
 449 685 449 685 448 683 c 2,3,-1
 415 558 l 2,4,5
 410 544 410 544 401 539 c 2,6,-1
 369 522 l 2,7,8
 366 520 366 520 363 520 c 0,9,10
 361 520 361 520 361 522 c 0,11,12
 361 526 361 526 365 538 c 2,13,-1
 392 634 l 1,14,-1
 133 484 l 2,15,16
 129 482 129 482 126 482 c 0,17,18
 118 482 118 482 112 494 c 2,19,-1
 108 502 l 2,20,21
 104 510 104 510 104 513 c 0,22,23
 104 518 104 518 111 522 c 2,24,-1
 370 672 l 1,25,-1
 261 699 l 2,26,27
 256 700 256 700 256 703 c 0,28,29
 256 707 256 707 261 709 c 2,30,-1
 292 727 l 2,31,32
 298 730 298 730 304 730 c 0,33,34
 312 730 312 730 314 729 c 2,35,-1
 441 695 l 2,36,0
 449 693 449 693 449 689 c 256,1,2
688 282 m 1,37,-1
 195 0 l 1,38,-1
 60 0 l 1,39,-1
 60 67 l 2,40,41
 60 75 60 75 66 81 c 128,-1,42
 72 87 72 87 80 87 c 2,43,-1
 184 87 l 1,44,-1
 184 132 l 2,45,46
 184 140 184 140 190 146 c 128,-1,47
 196 152 196 152 204 152 c 2,48,-1
 308 152 l 1,49,-1
 308 204 l 2,50,51
 308 212 308 212 314 218 c 128,-1,52
 320 224 320 224 328 224 c 2,53,-1
 432 224 l 1,54,-1
 432 274 l 2,55,56
 432 282 432 282 438 288 c 128,-1,57
 444 294 444 294 452 294 c 2,58,-1
 556 294 l 1,59,-1
 556 345 l 2,60,61
 556 353 556 353 562 359 c 128,-1,62
 568 365 568 365 576 365 c 2,63,-1
 688 365 l 1,64,-1
 688 282 l 1,37,-1
EndSplineSet
EndChar

StartChar: E.ss03
Encoding: 65574 -1 100
Width: 856
Flags: W
LayerCount: 2
Back
Fore
SplineSet
832.5 398 m 128,-1,1
 809 372 809 372 773 368 c 1,2,-1
 773 300 l 1,3,-1
 248 0 l 1,4,-1
 78 0 l 1,5,-1
 78 69 l 1,6,7
 44 74 44 74 22 99.5 c 128,-1,8
 0 125 0 125 0 158 c 0,9,10
 0 196 0 196 26 223.5 c 128,-1,11
 52 251 52 251 92 251 c 2,12,-1
 166 251 l 1,13,-1
 665 542 l 2,14,15
 680 551 680 551 691 551 c 2,16,-1
 764 551 l 2,17,18
 803 551 803 551 829.5 524.5 c 128,-1,19
 856 498 856 498 856 461 c 256,20,0
 856 424 856 424 832.5 398 c 128,-1,1
115 120.5 m 128,-1,22
 121 126 121 126 129 126 c 2,23,-1
 233 126 l 1,24,-1
 233 171 l 2,25,26
 233 179 233 179 239 185 c 128,-1,27
 245 191 245 191 253 191 c 2,28,-1
 357 191 l 1,29,-1
 357 243 l 2,30,31
 357 251 357 251 363 257 c 128,-1,32
 369 263 369 263 377 263 c 2,33,-1
 481 263 l 1,34,-1
 481 313 l 2,35,36
 481 321 481 321 487 327 c 128,-1,37
 493 333 493 333 501 333 c 2,38,-1
 605 333 l 1,39,-1
 605 384 l 2,40,41
 605 392 605 392 611 398 c 128,-1,42
 617 404 617 404 625 404 c 2,43,-1
 765 404 l 2,44,45
 787 404 787 404 804 420.5 c 128,-1,46
 821 437 821 437 821 460 c 0,47,48
 821 482 821 482 804 499 c 128,-1,49
 787 516 787 516 765 516 c 2,50,-1
 705 516 l 2,51,52
 693 516 693 516 682 510 c 2,53,-1
 176 216 l 1,54,-1
 92 216 l 2,55,56
 68 216 68 216 52 199 c 128,-1,57
 36 182 36 182 36 158 c 0,58,59
 36 136 36 136 53 120 c 128,-1,60
 70 104 70 104 92 104 c 2,61,-1
 109 104 l 1,62,21
 109 115 109 115 115 120.5 c 128,-1,22
EndSplineSet
EndChar

StartChar: F.ss03
Encoding: 65575 -1 101
Width: 856
Flags: W
LayerCount: 2
Back
Fore
SplineSet
163 501 m 2,1,-1
 164 507 l 1,2,-1
 197 632 l 2,3,4
 200 645 200 645 211 651 c 2,5,-1
 243 668 l 2,6,7
 246 670 246 670 249 670 c 0,8,9
 251 670 251 670 251 668 c 0,10,11
 251 667 251 667 246 650 c 2,12,-1
 220 556 l 1,13,-1
 479 706 l 2,14,15
 483 708 483 708 486 708 c 0,16,17
 493 708 493 708 498 699 c 2,18,-1
 503 690 l 2,19,20
 508 681 508 681 508 677 c 0,21,22
 508 672 508 672 501 668 c 2,23,-1
 242 518 l 1,24,-1
 351 491 l 2,25,26
 356 490 356 490 356 487 c 256,27,28
 356 484 356 484 351 481 c 2,29,-1
 320 463 l 2,30,31
 314 460 314 460 308 460 c 0,32,33
 301 460 301 460 298 461 c 2,34,-1
 171 495 l 2,35,0
 163 497 163 497 163 501 c 2,1,-1
832.5 398 m 128,-1,37
 809 372 809 372 773 368 c 1,38,-1
 773 300 l 1,39,-1
 248 0 l 1,40,-1
 78 0 l 1,41,-1
 78 69 l 1,42,43
 44 74 44 74 22 99.5 c 128,-1,44
 0 125 0 125 0 158 c 0,45,46
 0 196 0 196 26 223.5 c 128,-1,47
 52 251 52 251 92 251 c 2,48,-1
 166 251 l 1,49,-1
 665 542 l 2,50,51
 680 551 680 551 691 551 c 2,52,-1
 764 551 l 2,53,54
 803 551 803 551 829.5 524.5 c 128,-1,55
 856 498 856 498 856 461 c 256,56,36
 856 424 856 424 832.5 398 c 128,-1,37
115 120.5 m 128,-1,58
 121 126 121 126 129 126 c 2,59,-1
 233 126 l 1,60,-1
 233 171 l 2,61,62
 233 179 233 179 239 185 c 128,-1,63
 245 191 245 191 253 191 c 2,64,-1
 357 191 l 1,65,-1
 357 243 l 2,66,67
 357 251 357 251 363 257 c 128,-1,68
 369 263 369 263 377 263 c 2,69,-1
 481 263 l 1,70,-1
 481 313 l 2,71,72
 481 321 481 321 487 327 c 128,-1,73
 493 333 493 333 501 333 c 2,74,-1
 605 333 l 1,75,-1
 605 384 l 2,76,77
 605 392 605 392 611 398 c 128,-1,78
 617 404 617 404 625 404 c 2,79,-1
 765 404 l 2,80,81
 787 404 787 404 804 420.5 c 128,-1,82
 821 437 821 437 821 460 c 0,83,84
 821 482 821 482 804 499 c 128,-1,85
 787 516 787 516 765 516 c 2,86,-1
 705 516 l 2,87,88
 693 516 693 516 682 510 c 2,89,-1
 176 216 l 1,90,-1
 92 216 l 2,91,92
 68 216 68 216 52 199 c 128,-1,93
 36 182 36 182 36 158 c 0,94,95
 36 136 36 136 53 120 c 128,-1,96
 70 104 70 104 92 104 c 2,97,-1
 109 104 l 1,98,57
 109 115 109 115 115 120.5 c 128,-1,58
EndSplineSet
EndChar

StartChar: G.ss03
Encoding: 65576 -1 102
Width: 856
Flags: W
LayerCount: 2
Back
Fore
SplineSet
499 689 m 256,1,2
 499 685 499 685 498 683 c 2,3,-1
 465 558 l 2,4,5
 460 544 460 544 451 539 c 2,6,-1
 419 522 l 2,7,8
 416 520 416 520 413 520 c 0,9,10
 411 520 411 520 411 522 c 0,11,12
 411 526 411 526 415 538 c 2,13,-1
 442 634 l 1,14,-1
 183 484 l 2,15,16
 179 482 179 482 176 482 c 0,17,18
 168 482 168 482 162 494 c 2,19,-1
 158 502 l 2,20,21
 154 510 154 510 154 513 c 0,22,23
 154 518 154 518 161 522 c 2,24,-1
 420 672 l 1,25,-1
 311 699 l 2,26,27
 306 700 306 700 306 703 c 0,28,29
 306 707 306 707 311 709 c 2,30,-1
 342 727 l 2,31,32
 348 730 348 730 354 730 c 0,33,34
 362 730 362 730 364 729 c 2,35,-1
 491 695 l 2,36,0
 499 693 499 693 499 689 c 256,1,2
832.5 398 m 128,-1,38
 809 372 809 372 773 368 c 1,39,-1
 773 300 l 1,40,-1
 248 0 l 1,41,-1
 78 0 l 1,42,-1
 78 69 l 1,43,44
 44 74 44 74 22 99.5 c 128,-1,45
 0 125 0 125 0 158 c 0,46,47
 0 196 0 196 26 223.5 c 128,-1,48
 52 251 52 251 92 251 c 2,49,-1
 166 251 l 1,50,-1
 665 542 l 2,51,52
 680 551 680 551 691 551 c 2,53,-1
 764 551 l 2,54,55
 803 551 803 551 829.5 524.5 c 128,-1,56
 856 498 856 498 856 461 c 256,57,37
 856 424 856 424 832.5 398 c 128,-1,38
115 120.5 m 128,-1,59
 121 126 121 126 129 126 c 2,60,-1
 233 126 l 1,61,-1
 233 171 l 2,62,63
 233 179 233 179 239 185 c 128,-1,64
 245 191 245 191 253 191 c 2,65,-1
 357 191 l 1,66,-1
 357 243 l 2,67,68
 357 251 357 251 363 257 c 128,-1,69
 369 263 369 263 377 263 c 2,70,-1
 481 263 l 1,71,-1
 481 313 l 2,72,73
 481 321 481 321 487 327 c 128,-1,74
 493 333 493 333 501 333 c 2,75,-1
 605 333 l 1,76,-1
 605 384 l 2,77,78
 605 392 605 392 611 398 c 128,-1,79
 617 404 617 404 625 404 c 2,80,-1
 765 404 l 2,81,82
 787 404 787 404 804 420.5 c 128,-1,83
 821 437 821 437 821 460 c 0,84,85
 821 482 821 482 804 499 c 128,-1,86
 787 516 787 516 765 516 c 2,87,-1
 705 516 l 2,88,89
 693 516 693 516 682 510 c 2,90,-1
 176 216 l 1,91,-1
 92 216 l 2,92,93
 68 216 68 216 52 199 c 128,-1,94
 36 182 36 182 36 158 c 0,95,96
 36 136 36 136 53 120 c 128,-1,97
 70 104 70 104 92 104 c 2,98,-1
 109 104 l 1,99,58
 109 115 109 115 115 120.5 c 128,-1,59
EndSplineSet
EndChar

StartChar: A.ss04
Encoding: 65577 -1 103
Width: 817
Flags: W
LayerCount: 2
Back
Fore
SplineSet
582 523 m 2,0,1
 523 523 523 523 483.5 502 c 128,-1,2
 444 481 444 481 408 445 c 1,3,4
 363 490 363 490 327.5 506.5 c 128,-1,5
 292 523 292 523 234 523 c 2,6,-1
 90 523 l 2,7,8
 73 523 73 523 66.5 519.5 c 128,-1,9
 60 516 60 516 60 506 c 2,10,-1
 60 46 l 2,11,12
 60 37 60 37 66.5 33.5 c 128,-1,13
 73 30 73 30 90 30 c 2,14,-1
 273 30 l 2,15,16
 353 30 353 30 380 -9 c 1,17,-1
 438 -9 l 1,18,19
 462 30 462 30 544 30 c 2,20,-1
 727 30 l 2,21,22
 744 30 744 30 750.5 33.5 c 128,-1,23
 757 37 757 37 757 46 c 2,24,-1
 757 506 l 2,25,26
 757 516 757 516 750.5 519.5 c 128,-1,27
 744 523 744 523 727 523 c 2,28,-1
 582 523 l 2,0,1
332.5 91 m 128,-1,30
 307 97 307 97 273 97 c 2,31,-1
 137 97 l 1,32,-1
 137 445 l 1,33,-1
 244 445 l 2,34,35
 303 445 303 445 336 412 c 128,-1,36
 369 379 369 379 369 319 c 2,37,-1
 369 78 l 1,38,29
 358 85 358 85 332.5 91 c 128,-1,30
679 97 m 1,39,-1
 544 97 l 2,40,41
 510 97 510 97 484 91 c 128,-1,42
 458 85 458 85 447 78 c 1,43,-1
 447 319 l 2,44,45
 447 380 447 380 481.5 412.5 c 128,-1,46
 516 445 516 445 573 445 c 2,47,-1
 679 445 l 1,48,-1
 679 97 l 1,39,-1
EndSplineSet
EndChar

StartChar: B.ss04
Encoding: 65578 -1 104
Width: 797
Flags: W
LayerCount: 2
Back
Fore
SplineSet
56.5 519.5 m 128,-1,1
 63 523 63 523 80 523 c 2,2,-1
 717 523 l 2,3,4
 734 523 734 523 740.5 519.5 c 128,-1,5
 747 516 747 516 747 507 c 2,6,-1
 747 16 l 2,7,8
 747 7 747 7 740.5 3.5 c 128,-1,9
 734 0 734 0 717 0 c 2,10,-1
 80 0 l 2,11,12
 63 0 63 0 56.5 3.5 c 128,-1,13
 50 7 50 7 50 16 c 2,14,-1
 50 507 l 2,15,0
 50 516 50 516 56.5 519.5 c 128,-1,1
147 453 m 1,16,-1
 161 447 l 1,17,-1
 398 261 l 1,18,-1
 636 447 l 1,19,-1
 650 453 l 1,20,-1
 147 453 l 1,16,-1
673 386 m 1,21,-1
 660 374 l 1,22,-1
 446 211 l 2,23,24
 436 203 436 203 427.5 200 c 128,-1,25
 419 197 419 197 407 197 c 2,26,-1
 391 197 l 2,27,28
 380 197 380 197 372 200 c 128,-1,29
 364 203 364 203 353 211 c 2,30,-1
 137 374 l 1,31,-1
 124 386 l 1,32,-1
 124 67 l 1,33,-1
 673 67 l 1,34,-1
 673 386 l 1,21,-1
EndSplineSet
EndChar

StartChar: C.ss04
Encoding: 65579 -1 105
Width: 651
Flags: W
LayerCount: 2
Back
Fore
SplineSet
594.5 3.5 m 128,-1,1
 588 0 588 0 571 0 c 2,2,-1
 89 0 l 2,3,4
 72 0 72 0 65.5 3.5 c 128,-1,5
 59 7 59 7 59 16 c 2,6,-1
 59 329 l 2,7,8
 59 337 59 337 67 343 c 128,-1,9
 75 349 75 349 89 349 c 2,10,-1
 98 349 l 1,11,12
 81 361 81 361 71.5 382.5 c 128,-1,13
 62 404 62 404 62 428 c 0,14,15
 62 469 62 469 89.5 498 c 128,-1,16
 117 527 117 527 162 527 c 0,17,18
 215 527 215 527 243 484 c 2,19,-1
 330 358 l 1,20,-1
 417 484 l 2,21,22
 445 527 445 527 497 527 c 0,23,24
 541 527 541 527 570 498.5 c 128,-1,25
 599 470 599 470 599 430 c 0,26,27
 599 406 599 406 589.5 384 c 128,-1,28
 580 362 580 362 563 349 c 1,29,-1
 572 349 l 2,30,31
 586 349 586 349 593.5 343 c 128,-1,32
 601 337 601 337 601 329 c 2,33,-1
 601 16 l 2,34,0
 601 7 601 7 594.5 3.5 c 128,-1,1
214 465 m 2,35,36
 195 494 195 494 161 494 c 0,37,38
 136 494 136 494 118 476.5 c 128,-1,39
 100 459 100 459 100 433 c 0,40,41
 100 401 100 401 125.5 375 c 128,-1,42
 151 349 151 349 204 349 c 2,43,-1
 291 349 l 1,44,-1
 214 465 l 2,35,36
535.5 375.5 m 128,-1,46
 561 402 561 402 561 435 c 0,47,48
 561 461 561 461 542 477.5 c 128,-1,49
 523 494 523 494 499 494 c 0,50,51
 485 494 485 494 470.5 487 c 128,-1,52
 456 480 456 480 446 465 c 2,53,-1
 369 349 l 1,54,-1
 456 349 l 2,55,45
 510 349 510 349 535.5 375.5 c 128,-1,46
136 194 m 1,56,-1
 311 194 l 1,57,-1
 311 281 l 1,58,-1
 136 281 l 1,59,-1
 136 194 l 1,56,-1
349 194 m 1,60,-1
 524 194 l 1,61,-1
 524 281 l 1,62,-1
 349 281 l 1,63,-1
 349 194 l 1,60,-1
136 68 m 1,64,-1
 311 68 l 1,65,-1
 311 156 l 1,66,-1
 136 156 l 1,67,-1
 136 68 l 1,64,-1
524 156 m 1,68,-1
 349 156 l 1,69,-1
 349 68 l 1,70,-1
 524 68 l 1,71,-1
 524 156 l 1,68,-1
EndSplineSet
EndChar

StartChar: D.ss04
Encoding: 65580 -1 106
Width: 801
Flags: W
LayerCount: 2
Back
Fore
SplineSet
635 845 m 1,0,-1
 606 816 l 1,1,-1
 596 816 l 1,2,-1
 578 835 l 1,3,-1
 578 835 l 1,4,-1
 559 816 l 1,5,-1
 549 816 l 1,6,-1
 530 835 l 1,7,-1
 530 835 l 1,8,-1
 510 816 l 1,9,-1
 405 816 l 1,10,11
 405 795 405 795 395 782 c 128,-1,12
 385 769 385 769 367 768 c 2,13,-1
 242 759 l 2,14,15
 220 759 220 759 209 766 c 128,-1,16
 198 773 198 773 193 787 c 0,17,18
 184 811 184 811 184 845 c 0,19,20
 184 878 184 878 193 902 c 0,21,22
 198 916 198 916 209.5 923.5 c 128,-1,23
 221 931 221 931 242 931 c 2,24,-1
 367 921 l 2,25,26
 405 918 405 918 405 883 c 1,27,-1
 596 883 l 2,28,29
 608 883 608 883 616 874 c 2,30,-1
 635 854 l 1,31,-1
 635 845 l 1,0,-1
269 886.5 m 128,-1,33
 268 889 268 889 261 889 c 2,34,-1
 242 889 l 2,35,36
 235 889 235 889 233.5 886.5 c 128,-1,37
 232 884 232 884 232 870 c 2,38,-1
 232 821 l 2,39,40
 232 807 232 807 233.5 804.5 c 128,-1,41
 235 802 235 802 242 802 c 2,42,-1
 261 802 l 2,43,44
 268 802 268 802 269 804.5 c 128,-1,45
 270 807 270 807 270 821 c 2,46,-1
 270 870 l 2,47,32
 270 884 270 884 269 886.5 c 128,-1,33
56.5 696.5 m 128,-1,49
 63 700 63 700 80 700 c 2,50,-1
 721 700 l 2,51,52
 738 700 738 700 744.5 696.5 c 128,-1,53
 751 693 751 693 751 684 c 2,54,-1
 751 16 l 2,55,56
 751 7 751 7 744.5 3.5 c 128,-1,57
 738 0 738 0 721 0 c 2,58,-1
 80 0 l 2,59,60
 63 0 63 0 56.5 3.5 c 128,-1,61
 50 7 50 7 50 16 c 2,62,-1
 50 684 l 2,63,48
 50 693 50 693 56.5 696.5 c 128,-1,49
674 624 m 1,64,-1
 127 624 l 1,65,-1
 127 67 l 1,66,-1
 674 67 l 1,67,-1
 674 624 l 1,64,-1
596 115 m 2,69,-1
 203 115 l 2,70,71
 174 115 174 115 174 144 c 0,72,73
 174 163 174 163 180 289 c 0,74,75
 181 308 181 308 184 370 c 0,76,77
 185 397 185 397 207 417 c 128,-1,78
 229 437 229 437 252 437 c 2,79,-1
 328 437 l 1,80,-1
 328 504 l 2,81,82
 328 514 328 514 329.5 518.5 c 128,-1,83
 331 523 331 523 338 523 c 2,84,-1
 463 523 l 2,85,86
 470 523 470 523 471.5 518.5 c 128,-1,87
 473 514 473 514 473 504 c 2,88,-1
 473 437 l 1,89,-1
 549 437 l 2,90,91
 572 437 572 437 593.5 417 c 128,-1,92
 615 397 615 397 616 370 c 0,93,94
 619 308 619 308 620 289 c 0,95,96
 626 163 626 163 626 144 c 0,97,68
 626 115 626 115 596 115 c 2,69,-1
434 488 m 1,98,-1
 367 488 l 1,99,-1
 367 437 l 1,100,-1
 434 437 l 1,101,-1
 434 488 l 1,98,-1
EndSplineSet
EndChar

StartChar: E.ss04
Encoding: 65581 -1 107
Width: 552
Flags: W
LayerCount: 2
Back
Fore
SplineSet
135 568 m 1,0,-1
 187 568 l 2,1,2
 203 568 203 568 210.5 564 c 128,-1,3
 218 560 218 560 218 551 c 0,4,5
 206 466 206 466 178.5 284 c 128,-1,6
 151 102 151 102 138 14 c 0,7,8
 136 6 136 6 133.5 3 c 128,-1,9
 131 0 131 0 124 0 c 2,10,-1
 113 0 l 2,11,12
 106 0 106 0 103 3 c 128,-1,13
 100 6 100 6 98 14 c 0,14,15
 85 102 85 102 58.5 284 c 128,-1,16
 32 466 32 466 20 551 c 0,17,18
 20 560 20 560 26.5 564 c 128,-1,19
 33 568 33 568 51 568 c 2,20,-1
 100 568 l 1,21,-1
 100 699 l 2,22,23
 100 724 100 724 118 742 c 128,-1,24
 136 760 136 760 161 760 c 0,25,26
 187 760 187 760 204.5 742.5 c 128,-1,27
 222 725 222 725 222 699 c 0,28,29
 222 692 222 692 217.5 689 c 128,-1,30
 213 686 213 686 204 686 c 0,31,32
 194 686 194 686 190.5 689 c 128,-1,33
 187 692 187 692 187 699 c 0,34,35
 187 710 187 710 179.5 718 c 128,-1,36
 172 726 172 726 161 726 c 0,37,38
 151 726 151 726 143 718 c 128,-1,39
 135 710 135 710 135 699 c 2,40,-1
 135 568 l 1,0,-1
375 491.5 m 128,-1,42
 380 488 380 488 392 488 c 2,43,-1
 417 488 l 2,44,45
 437 488 437 488 437 508 c 0,46,47
 437 527 437 527 445 539.5 c 128,-1,48
 453 552 453 552 480 574 c 0,49,50
 510 599 510 599 524 619 c 128,-1,51
 538 639 538 639 538 669 c 0,52,53
 538 713 538 713 507.5 736.5 c 128,-1,54
 477 760 477 760 426 760 c 0,55,56
 389 760 389 760 360 750 c 0,57,58
 343 744 343 744 326.5 732.5 c 128,-1,59
 310 721 310 721 310 711 c 0,60,61
 310 702 310 702 321 685 c 0,62,63
 333 669 333 669 342 669 c 0,64,65
 344 669 344 669 360 677 c 0,66,67
 364 679 364 679 369 681.5 c 128,-1,68
 374 684 374 684 380 686 c 0,69,70
 401 694 401 694 420 694 c 0,71,72
 458 694 458 694 458 664 c 0,73,74
 458 645 458 645 417 604 c 0,75,76
 393 579 393 579 381.5 556 c 128,-1,77
 370 533 370 533 370 503 c 0,78,41
 370 495 370 495 375 491.5 c 128,-1,42
393 373 m 2,80,-1
 409 373 l 2,81,82
 440 373 440 373 440 390 c 2,83,-1
 440 437 l 2,84,85
 440 454 440 454 409 454 c 2,86,-1
 393 454 l 2,87,88
 362 454 362 454 362 437 c 2,89,-1
 362 390 l 2,90,79
 362 373 362 373 393 373 c 2,80,-1
291 316 m 2,91,92
 291 322 291 322 294.5 327 c 128,-1,93
 298 332 298 332 305 332 c 2,94,-1
 425 332 l 2,95,96
 432 332 432 332 436 326.5 c 128,-1,97
 440 321 440 321 440 316 c 2,98,-1
 440 247 l 1,99,-1
 459 247 l 2,100,101
 484 247 484 247 504.5 229 c 128,-1,102
 525 211 525 211 529 182 c 0,103,104
 531 172 531 172 533 154 c 0,105,106
 552 28 552 28 552 25 c 0,107,108
 552 15 552 15 546 7.5 c 128,-1,109
 540 0 540 0 523 0 c 2,110,-1
 207 0 l 2,111,112
 190 0 190 0 184 7.5 c 128,-1,113
 178 15 178 15 178 25 c 0,114,115
 178 28 178 28 197 154 c 0,116,117
 199 172 199 172 201 182 c 0,118,119
 205 211 205 211 225.5 229 c 128,-1,120
 246 247 246 247 271 247 c 2,121,-1
 291 247 l 1,122,-1
 291 316 l 2,91,92
401 298 m 1,123,-1
 329 298 l 1,124,-1
 329 247 l 1,125,-1
 401 247 l 1,126,-1
 401 298 l 1,123,-1
EndSplineSet
EndChar

StartChar: F.ss04
Encoding: 65582 -1 108
Width: 572
Flags: W
LayerCount: 2
Back
Fore
SplineSet
532 19 m 2,0,1
 532 12 532 12 524.5 6 c 128,-1,2
 517 0 517 0 504 0 c 2,3,-1
 34 0 l 2,4,5
 15 0 15 0 7.5 2.5 c 128,-1,6
 0 5 0 5 0 13 c 2,7,-1
 0 39 l 2,8,9
 0 59 0 59 23 71.5 c 128,-1,10
 46 84 46 84 76 84 c 2,11,-1
 333 84 l 1,12,-1
 333 171 l 1,13,-1
 108 171 l 2,14,15
 100 171 100 171 94 179.5 c 128,-1,16
 88 188 88 188 88 203 c 2,17,-1
 88 224 l 2,18,19
 88 240 88 240 94 248 c 128,-1,20
 100 256 100 256 108 256 c 2,21,-1
 396 256 l 1,22,-1
 396 412 l 1,23,-1
 285 472 l 1,24,-1
 257 390 l 2,25,26
 250 370 250 370 221 370 c 1,27,-1
 195 332 l 2,28,29
 188 322 188 322 176 322 c 0,30,31
 166 322 166 322 160.5 328.5 c 128,-1,32
 155 335 155 335 155 342 c 0,33,34
 155 348 155 348 161 390 c 1,35,36
 155 395 155 395 151.5 401.5 c 128,-1,37
 148 408 148 408 148 413 c 0,38,39
 148 417 148 417 151 425 c 2,40,-1
 238 679 l 2,41,42
 240 685 240 685 245 689 c 128,-1,43
 250 693 250 693 256 693 c 0,44,45
 266 693 266 693 275 689 c 1,46,-1
 289 726 l 2,47,48
 295 740 295 740 311 740 c 0,49,50
 321 740 321 740 329.5 733 c 128,-1,51
 338 726 338 726 338 717 c 0,52,53
 338 716 338 716 336 708 c 2,54,-1
 322 670 l 1,55,56
 343 661 343 661 343 650 c 0,57,58
 343 642 343 642 340 634 c 2,59,-1
 312 549 l 1,60,-1
 456 466 l 2,61,62
 532 419 532 419 532 323 c 2,63,-1
 532 19 l 2,0,1
455.5 100 m 128,-1,65
 466 110 466 110 466 124 c 0,66,67
 466 139 466 139 455.5 149.5 c 128,-1,68
 445 160 445 160 431 160 c 0,69,70
 416 160 416 160 406 149.5 c 128,-1,71
 396 139 396 139 396 124 c 0,72,73
 396 110 396 110 406 100 c 128,-1,74
 416 90 416 90 431 90 c 0,75,64
 445 90 445 90 455.5 100 c 128,-1,65
EndSplineSet
EndChar

StartChar: G.ss04
Encoding: 65583 -1 109
Width: 569
Flags: W
LayerCount: 2
Back
Fore
SplineSet
205 174 m 1,0,-1
 205 29 l 2,1,2
 205 13 205 13 215 6.5 c 128,-1,3
 225 0 225 0 254 0 c 2,4,-1
 328 0 l 2,5,6
 357 0 357 0 366.5 6.5 c 128,-1,7
 376 13 376 13 376 29 c 2,8,-1
 376 174 l 1,9,-1
 529 174 l 2,10,11
 544 174 544 174 551.5 187.5 c 128,-1,12
 559 201 559 201 559 230 c 2,13,-1
 559 287 l 2,14,15
 559 346 559 346 529 346 c 2,16,-1
 376 346 l 1,17,-1
 376 494 l 2,18,19
 376 509 376 509 366 516 c 128,-1,20
 356 523 356 523 328 523 c 2,21,-1
 254 523 l 2,22,23
 224 523 224 523 214.5 516.5 c 128,-1,24
 205 510 205 510 205 494 c 2,25,-1
 205 346 l 1,26,-1
 52 346 l 2,27,28
 37 346 37 346 30.5 332 c 128,-1,29
 24 318 24 318 24 287 c 2,30,-1
 24 230 l 2,31,32
 24 200 24 200 30.5 187 c 128,-1,33
 37 174 37 174 52 174 c 2,34,-1
 205 174 l 1,0,-1
EndSplineSet
EndChar

StartChar: H.ss04
Encoding: 65584 -1 110
Width: 352
Flags: W
LayerCount: 2
Back
Fore
SplineSet
229 710 m 2,0,1
 214 709 214 709 206 699 c 128,-1,2
 198 689 198 689 198 680 c 2,3,-1
 198 253 l 2,4,5
 198 244 198 244 206 234 c 128,-1,6
 214 224 214 224 229 223 c 2,7,-1
 258 222 l 2,8,9
 273 221 273 221 279 215.5 c 128,-1,10
 285 210 285 210 287 198 c 0,11,12
 302 69 302 69 302 18 c 0,13,14
 302 8 302 8 295.5 4 c 128,-1,15
 289 0 289 0 273 0 c 2,16,-1
 235 0 l 2,17,18
 198 0 198 0 167.5 12 c 128,-1,19
 137 24 137 24 121 47 c 0,20,21
 93 87 93 87 71.5 212.5 c 128,-1,22
 50 338 50 338 50 428 c 2,23,-1
 50 506 l 2,24,25
 50 596 50 596 71 720.5 c 128,-1,26
 92 845 92 845 121 886 c 0,27,28
 137 909 137 909 167.5 921 c 128,-1,29
 198 933 198 933 235 933 c 2,30,-1
 273 933 l 2,31,32
 289 933 289 933 295.5 929 c 128,-1,33
 302 925 302 925 302 915 c 0,34,35
 302 864 302 864 287 735 c 0,36,37
 285 723 285 723 279 717.5 c 128,-1,38
 273 712 273 712 258 711 c 2,39,-1
 229 710 l 2,0,1
EndSplineSet
EndChar

StartChar: I.ss04
Encoding: 65585 -1 111
Width: 579
Flags: W
LayerCount: 2
Back
Fore
SplineSet
452.5 791.5 m 128,-1,1
 448 797 448 797 440 797 c 2,2,-1
 387 797 l 2,3,4
 379 797 379 797 374.5 791.5 c 128,-1,5
 370 786 370 786 370 779 c 2,6,-1
 370 759 l 1,7,-1
 88 759 l 2,8,9
 50 759 50 759 50 735 c 2,10,-1
 50 33 l 2,11,12
 50 18 50 18 58.5 11 c 128,-1,13
 67 4 67 4 88 4 c 2,14,-1
 505 4 l 2,15,16
 534 4 534 4 534 33 c 2,17,-1
 534 735 l 2,18,19
 534 746 534 746 524.5 752.5 c 128,-1,20
 515 759 515 759 495 759 c 2,21,-1
 457 759 l 1,22,-1
 457 779 l 2,23,0
 457 786 457 786 452.5 791.5 c 128,-1,1
128 323 m 1,24,-1
 128 681 l 1,25,-1
 457 681 l 1,26,-1
 457 323 l 1,27,-1
 128 323 l 1,24,-1
211 262 m 128,-1,29
 215 260 215 260 215 254 c 2,30,-1
 215 235 l 2,31,32
 215 229 215 229 211 227 c 128,-1,33
 207 225 207 225 198 225 c 2,34,-1
 145 225 l 2,35,36
 136 225 136 225 132 227 c 128,-1,37
 128 229 128 229 128 235 c 2,38,-1
 128 254 l 2,39,40
 128 260 128 260 132 262 c 128,-1,41
 136 264 136 264 145 264 c 2,42,-1
 198 264 l 2,43,28
 207 264 207 264 211 262 c 128,-1,29
332 262 m 128,-1,45
 336 260 336 260 336 254 c 2,46,-1
 336 235 l 2,47,48
 336 229 336 229 332 227 c 128,-1,49
 328 225 328 225 319 225 c 2,50,-1
 266 225 l 2,51,52
 257 225 257 225 253 227 c 128,-1,53
 249 229 249 229 249 235 c 2,54,-1
 249 254 l 2,55,56
 249 260 249 260 253 262 c 128,-1,57
 257 264 257 264 266 264 c 2,58,-1
 319 264 l 2,59,44
 328 264 328 264 332 262 c 128,-1,45
453 262 m 128,-1,61
 457 260 457 260 457 254 c 2,62,-1
 457 235 l 2,63,64
 457 229 457 229 453 227 c 128,-1,65
 449 225 449 225 440 225 c 2,66,-1
 387 225 l 2,67,68
 378 225 378 225 374 227 c 128,-1,69
 370 229 370 229 370 235 c 2,70,-1
 370 254 l 2,71,72
 370 260 370 260 374 262 c 128,-1,73
 378 264 378 264 387 264 c 2,74,-1
 440 264 l 2,75,60
 449 264 449 264 453 262 c 128,-1,61
211 185 m 128,-1,77
 215 183 215 183 215 177 c 2,78,-1
 215 158 l 2,79,80
 215 152 215 152 211 150 c 128,-1,81
 207 148 207 148 198 148 c 2,82,-1
 145 148 l 2,83,84
 136 148 136 148 132 150 c 128,-1,85
 128 152 128 152 128 158 c 2,86,-1
 128 177 l 2,87,88
 128 183 128 183 132 185 c 128,-1,89
 136 187 136 187 145 187 c 2,90,-1
 198 187 l 2,91,76
 207 187 207 187 211 185 c 128,-1,77
332 185 m 128,-1,93
 336 183 336 183 336 177 c 2,94,-1
 336 158 l 2,95,96
 336 152 336 152 332 150 c 128,-1,97
 328 148 328 148 319 148 c 2,98,-1
 266 148 l 2,99,100
 257 148 257 148 253 150 c 128,-1,101
 249 152 249 152 249 158 c 2,102,-1
 249 177 l 2,103,104
 249 183 249 183 253 185 c 128,-1,105
 257 187 257 187 266 187 c 2,106,-1
 319 187 l 2,107,92
 328 187 328 187 332 185 c 128,-1,93
453 185 m 128,-1,109
 457 183 457 183 457 177 c 2,110,-1
 457 158 l 2,111,112
 457 152 457 152 453 150 c 128,-1,113
 449 148 449 148 440 148 c 2,114,-1
 387 148 l 2,115,116
 378 148 378 148 374 150 c 128,-1,117
 370 152 370 152 370 158 c 2,118,-1
 370 177 l 2,119,120
 370 183 370 183 374 185 c 128,-1,121
 378 187 378 187 387 187 c 2,122,-1
 440 187 l 2,123,108
 449 187 449 187 453 185 c 128,-1,109
211 108 m 128,-1,125
 215 106 215 106 215 100 c 2,126,-1
 215 81 l 2,127,128
 215 75 215 75 211 73 c 128,-1,129
 207 71 207 71 198 71 c 2,130,-1
 145 71 l 2,131,132
 136 71 136 71 132 73 c 128,-1,133
 128 75 128 75 128 81 c 2,134,-1
 128 100 l 2,135,136
 128 106 128 106 132 108 c 128,-1,137
 136 110 136 110 145 110 c 2,138,-1
 198 110 l 2,139,124
 207 110 207 110 211 108 c 128,-1,125
332 108 m 128,-1,141
 336 106 336 106 336 100 c 2,142,-1
 336 81 l 2,143,144
 336 75 336 75 332 73 c 128,-1,145
 328 71 328 71 319 71 c 2,146,-1
 266 71 l 2,147,148
 257 71 257 71 253 73 c 128,-1,149
 249 75 249 75 249 81 c 2,150,-1
 249 100 l 2,151,152
 249 106 249 106 253 108 c 128,-1,153
 257 110 257 110 266 110 c 2,154,-1
 319 110 l 2,155,140
 328 110 328 110 332 108 c 128,-1,141
453 108 m 128,-1,157
 457 106 457 106 457 100 c 2,158,-1
 457 81 l 2,159,160
 457 75 457 75 453 73 c 128,-1,161
 449 71 449 71 440 71 c 2,162,-1
 387 71 l 2,163,164
 378 71 378 71 374 73 c 128,-1,165
 370 75 370 75 370 81 c 2,166,-1
 370 100 l 2,167,168
 370 106 370 106 374 108 c 128,-1,169
 378 110 378 110 387 110 c 2,170,-1
 440 110 l 2,171,156
 449 110 449 110 453 108 c 128,-1,157
EndSplineSet
EndChar

StartChar: J.ss04
Encoding: 65586 -1 112
Width: 584
Flags: W
LayerCount: 2
Back
Fore
SplineSet
50 735 m 2,1,-1
 50 33 l 2,2,3
 50 18 50 18 58.5 11 c 128,-1,4
 67 4 67 4 88 4 c 2,5,-1
 505 4 l 2,6,7
 534 4 534 4 534 33 c 2,8,-1
 534 735 l 2,9,10
 534 746 534 746 524.5 752.5 c 128,-1,11
 515 759 515 759 495 759 c 2,12,-1
 88 759 l 2,13,0
 50 759 50 759 50 735 c 2,1,-1
128 187 m 1,14,-1
 128 680 l 1,15,-1
 457 680 l 1,16,-1
 457 187 l 1,17,-1
 128 187 l 1,14,-1
270.5 70.5 m 128,-1,19
 262 79 262 79 262 91 c 256,20,21
 262 103 262 103 270.5 111.5 c 128,-1,22
 279 120 279 120 291 120 c 256,23,24
 303 120 303 120 311.5 111.5 c 128,-1,25
 320 103 320 103 320 91 c 256,26,27
 320 79 320 79 311.5 70.5 c 128,-1,28
 303 62 303 62 291 62 c 256,29,18
 279 62 279 62 270.5 70.5 c 128,-1,19
EndSplineSet
EndChar

StartChar: K.ss04
Encoding: 65587 -1 113
Width: 736
Flags: W
LayerCount: 2
Back
Fore
SplineSet
514 98 m 128,-1,1
 516 100 516 100 516 106 c 2,2,-1
 516 116 l 2,3,4
 516 122 516 122 514 124 c 128,-1,5
 512 126 512 126 507 126 c 2,6,-1
 435 126 l 1,7,-1
 435 194 l 1,8,-1
 688 194 l 2,9,10
 707 194 707 194 711.5 198.5 c 128,-1,11
 716 203 716 203 716 213 c 2,12,-1
 716 727 l 2,13,14
 716 756 716 756 688 756 c 2,15,-1
 48 756 l 2,16,17
 20 756 20 756 20 727 c 2,18,-1
 20 213 l 2,19,20
 20 205 20 205 27 199.5 c 128,-1,21
 34 194 34 194 48 194 c 2,22,-1
 309 194 l 1,23,-1
 309 126 l 1,24,-1
 237 126 l 2,25,26
 232 126 232 126 230 124 c 128,-1,27
 228 122 228 122 228 116 c 2,28,-1
 228 106 l 2,29,30
 228 100 228 100 230 98 c 128,-1,31
 232 96 232 96 237 96 c 2,32,-1
 507 96 l 2,33,0
 512 96 512 96 514 98 c 128,-1,1
97 262 m 1,34,-1
 97 678 l 1,35,-1
 639 678 l 1,36,-1
 639 262 l 1,37,-1
 97 262 l 1,34,-1
598 0 m 2,38,39
 580 0 580 0 572 2.5 c 128,-1,40
 564 5 564 5 564 13 c 2,41,-1
 564 32 l 2,42,43
 564 52 564 52 587 64.5 c 128,-1,44
 610 77 610 77 640 77 c 0,45,46
 671 77 671 77 693.5 64 c 128,-1,47
 716 51 716 51 716 32 c 2,48,-1
 716 13 l 2,49,50
 716 5 716 5 708.5 2.5 c 128,-1,51
 701 0 701 0 682 0 c 2,52,-1
 598 0 l 2,38,39
523.5 60 m 128,-1,54
 528 54 528 54 528 42 c 2,55,-1
 528 25 l 2,56,57
 528 13 528 13 523.5 6.5 c 128,-1,58
 519 0 519 0 513 0 c 2,59,-1
 35 0 l 2,60,61
 29 0 29 0 24.5 6 c 128,-1,62
 20 12 20 12 20 24 c 2,63,-1
 20 42 l 2,64,65
 20 54 20 54 24.5 60 c 128,-1,66
 29 66 29 66 35 66 c 2,67,-1
 513 66 l 2,68,53
 519 66 519 66 523.5 60 c 128,-1,54
EndSplineSet
EndChar

StartChar: L.ss04
Encoding: 65588 -1 114
Width: 458
Flags: W
LayerCount: 2
Back
Fore
SplineSet
155 698 m 1,0,-1
 155 930 l 2,1,2
 155 940 155 940 139 940 c 0,3,4
 122 940 122 940 122 930 c 2,5,-1
 122 698 l 1,6,-1
 99 698 l 1,7,-1
 99 930 l 2,8,9
 99 940 99 940 83 940 c 0,10,11
 76 940 76 940 71.5 937 c 128,-1,12
 67 934 67 934 67 930 c 2,13,-1
 67 698 l 1,14,-1
 46 698 l 1,15,-1
 46 930 l 2,16,17
 46 940 46 940 30 940 c 256,18,19
 14 940 14 940 14 930 c 2,20,-1
 7 655 l 2,21,22
 7 634 7 634 19.5 611.5 c 128,-1,23
 32 589 32 589 49 572 c 0,24,25
 79 542 79 542 79 523 c 2,26,-1
 69 20 l 2,27,28
 69 10 69 10 78.5 5 c 128,-1,29
 88 0 88 0 103 0 c 2,30,-1
 120 0 l 2,31,32
 136 0 136 0 146 5.5 c 128,-1,33
 156 11 156 11 156 20 c 2,34,-1
 146 523 l 2,35,36
 146 545 146 545 175 572 c 0,37,38
 192 588 192 588 204.5 610.5 c 128,-1,39
 217 633 217 633 217 655 c 2,40,-1
 209 930 l 2,41,42
 209 940 209 940 193 940 c 256,43,44
 177 940 177 940 177 930 c 2,45,-1
 177 698 l 1,46,-1
 155 698 l 1,0,-1
320.5 5 m 128,-1,48
 330 0 330 0 345 0 c 2,49,-1
 362 0 l 2,50,51
 378 0 378 0 388 5.5 c 128,-1,52
 398 11 398 11 398 20 c 2,53,-1
 398 911 l 2,54,55
 398 928 398 928 392.5 934 c 128,-1,56
 387 940 387 940 370 940 c 0,57,58
 347 940 347 940 325 919 c 128,-1,59
 303 898 303 898 289 860.5 c 128,-1,60
 275 823 275 823 275 776 c 2,61,-1
 275 429 l 2,62,63
 275 397 275 397 311 397 c 2,64,-1
 321 397 l 1,65,-1
 311 20 l 2,66,47
 311 10 311 10 320.5 5 c 128,-1,48
EndSplineSet
EndChar

StartChar: M.ss04
Encoding: 65589 -1 115
Width: 720
Flags: W
LayerCount: 2
Back
Fore
SplineSet
36 12.5 m 128,-1,1
 0 25 0 25 0 37 c 2,2,-1
 0 52 l 2,3,4
 0 59 0 59 8.5 62.5 c 128,-1,5
 17 66 17 66 38 66 c 2,6,-1
 209 66 l 1,7,8
 181 73 181 73 163.5 99 c 128,-1,9
 146 125 146 125 141 162 c 2,10,-1
 104 481 l 1,11,-1
 103 501 l 2,12,13
 103 509 103 509 111 516 c 128,-1,14
 119 523 119 523 132 523 c 2,15,-1
 647 523 l 2,16,17
 669 523 669 523 677 513.5 c 128,-1,18
 685 504 685 504 685 476 c 0,19,20
 685 467 685 467 681 411 c 0,21,22
 681 395 681 395 679 371 c 0,23,24
 677 351 677 351 671 338.5 c 128,-1,25
 665 326 665 326 650 314 c 2,26,-1
 523 209 l 1,27,-1
 517 162 l 2,28,29
 512 126 512 126 494.5 100 c 128,-1,30
 477 74 477 74 455 66 c 1,31,-1
 652 66 l 2,32,33
 673 66 673 66 681.5 62.5 c 128,-1,34
 690 59 690 59 690 52 c 2,35,-1
 690 37 l 2,36,37
 690 23 690 23 660 11.5 c 128,-1,38
 630 0 630 0 595 0 c 2,39,-1
 95 0 l 2,40,0
 72 0 72 0 36 12.5 c 128,-1,1
619 359 m 1,41,-1
 625 467 l 1,42,-1
 551 467 l 1,43,-1
 532 292 l 1,44,-1
 619 359 l 1,41,-1
EndSplineSet
EndChar

StartChar: N.ss04
Encoding: 65590 -1 116
Width: 723
Flags: W
LayerCount: 2
Back
Fore
SplineSet
345 340 m 1,0,-1
 345 372 l 1,1,2
 319 378 319 378 302.5 398 c 128,-1,3
 286 418 286 418 286 450 c 256,4,5
 286 482 286 482 310 505 c 128,-1,6
 334 528 334 528 366 528 c 0,7,8
 399 528 399 528 421.5 505.5 c 128,-1,9
 444 483 444 483 444 450 c 1,10,-1
 404 450 l 1,11,12
 404 466 404 466 393.5 477 c 128,-1,13
 383 488 383 488 366 488 c 0,14,15
 350 488 350 488 338 477 c 128,-1,16
 326 466 326 466 326 450 c 256,17,18
 326 434 326 434 336 422 c 128,-1,19
 346 410 346 410 364 405 c 0,20,21
 384 399 384 399 384 376 c 2,22,-1
 384 340 l 1,23,-1
 713 67 l 2,24,25
 719 62 719 62 721 57.5 c 128,-1,26
 723 53 723 53 723 45 c 0,27,28
 723 31 723 31 712 15.5 c 128,-1,29
 701 0 701 0 688 0 c 2,30,-1
 35 0 l 2,31,32
 22 0 22 0 11 15.5 c 128,-1,33
 0 31 0 31 0 45 c 0,34,35
 0 53 0 53 2 57.5 c 128,-1,36
 4 62 4 62 10 67 c 2,37,-1
 345 340 l 1,0,-1
364 301 m 1,38,-1
 75 67 l 1,39,-1
 646 67 l 1,40,-1
 364 301 l 1,38,-1
EndSplineSet
EndChar

StartChar: O.ss04
Encoding: 65591 -1 117
Width: 748
Flags: W
LayerCount: 2
Back
Fore
SplineSet
649 110 m 2,1,-1
 639 110 l 2,2,3
 627 110 627 110 627 117 c 2,4,-1
 627 223 l 2,5,6
 627 242 627 242 612.5 256.5 c 128,-1,7
 598 271 598 271 579 271 c 2,8,-1
 410 271 l 2,9,10
 372 271 372 271 340 290 c 128,-1,11
 308 309 308 309 289.5 341.5 c 128,-1,12
 271 374 271 374 271 412 c 0,13,14
 271 449 271 449 289.5 481 c 128,-1,15
 308 513 308 513 340 531.5 c 128,-1,16
 372 550 372 550 410 550 c 0,17,18
 449 550 449 550 481 531.5 c 128,-1,19
 513 513 513 513 531.5 481.5 c 128,-1,20
 550 450 550 450 550 412 c 2,21,-1
 550 408 l 2,22,23
 550 402 550 402 537 402 c 2,24,-1
 531 402 l 2,25,26
 515 402 515 402 515 408 c 2,27,-1
 515 412 l 2,28,29
 515 455 515 455 484.5 484.5 c 128,-1,30
 454 514 454 514 410 514 c 0,31,32
 367 514 367 514 335.5 484 c 128,-1,33
 304 454 304 454 304 412 c 0,34,35
 304 368 304 368 335.5 337.5 c 128,-1,36
 367 307 367 307 410 307 c 2,37,-1
 579 307 l 2,38,39
 614 307 614 307 638 282.5 c 128,-1,40
 662 258 662 258 662 223 c 2,41,-1
 662 117 l 2,42,0
 662 110 662 110 649 110 c 2,1,-1
704 110 m 2,44,-1
 697 110 l 2,45,46
 682 110 682 110 682 116 c 2,47,-1
 682 223 l 2,48,49
 682 267 682 267 652 298 c 128,-1,50
 622 329 622 329 579 329 c 2,51,-1
 410 329 l 2,52,53
 376 329 376 329 351.5 353 c 128,-1,54
 327 377 327 377 327 413 c 2,55,-1
 327 414 l 2,56,57
 327 417 327 417 330 419.5 c 128,-1,58
 333 422 333 422 339 422 c 2,59,-1
 348 422 l 2,60,61
 356 422 356 422 359.5 420.5 c 128,-1,62
 363 419 363 419 363 414 c 2,63,-1
 363 413 l 2,64,65
 363 393 363 393 377 379 c 128,-1,66
 391 365 391 365 410 365 c 2,67,-1
 579 365 l 2,68,69
 617 365 617 365 649 346 c 128,-1,70
 681 327 681 327 700 294 c 128,-1,71
 719 261 719 261 719 223 c 2,72,-1
 719 117 l 2,73,43
 719 110 719 110 704 110 c 2,44,-1
603 -1 m 1,74,-1
 24 -1 l 2,75,76
 10 -1 10 -1 10 28 c 2,77,-1
 10 51 l 2,78,79
 10 77 10 77 24 77 c 2,80,-1
 603 77 l 1,81,-1
 603 -1 l 1,74,-1
627 77 m 1,82,-1
 662 77 l 1,83,-1
 662 -1 l 1,84,-1
 627 -1 l 1,85,-1
 627 77 l 1,82,-1
723.5 7 m 128,-1,87
 720 -1 720 -1 714 -1 c 2,88,-1
 682 -1 l 1,89,-1
 682 77 l 1,90,-1
 714 77 l 2,91,92
 727 77 727 77 727 51 c 2,93,-1
 727 28 l 2,94,86
 727 15 727 15 723.5 7 c 128,-1,87
EndSplineSet
EndChar

StartChar: A.ss05
Encoding: 65592 -1 118
Width: 756
Flags: W
LayerCount: 2
Back
Fore
SplineSet
557 660 m 128,-1,1
 639 612 639 612 687.5 529.5 c 128,-1,2
 736 447 736 447 736 350 c 256,3,4
 736 253 736 253 687.5 170.5 c 128,-1,5
 639 88 639 88 557 40 c 128,-1,6
 475 -8 475 -8 378 -8 c 256,7,8
 281 -8 281 -8 198.5 40 c 128,-1,9
 116 88 116 88 68 170.5 c 128,-1,10
 20 253 20 253 20 350 c 256,11,12
 20 447 20 447 68 529.5 c 128,-1,13
 116 612 116 612 198.5 660 c 128,-1,14
 281 708 281 708 378 708 c 256,15,0
 475 708 475 708 557 660 c 128,-1,1
238 592 m 128,-1,17
 174 554 174 554 136 490 c 128,-1,18
 98 426 98 426 98 350 c 256,19,20
 98 274 98 274 136 210 c 128,-1,21
 174 146 174 146 238 108 c 128,-1,22
 302 70 302 70 378 70 c 256,23,24
 454 70 454 70 518 108 c 128,-1,25
 582 146 582 146 620 210 c 128,-1,26
 658 274 658 274 658 350 c 256,27,28
 658 426 658 426 620 490 c 128,-1,29
 582 554 582 554 518 592 c 128,-1,30
 454 630 454 630 378 630 c 256,31,16
 302 630 302 630 238 592 c 128,-1,17
420 523 m 2,33,-1
 420 478 l 2,34,35
 420 461 420 461 387 461 c 2,36,-1
 371 461 l 2,37,38
 338 461 338 461 338 478 c 2,39,-1
 338 523 l 2,40,41
 338 541 338 541 371 541 c 2,42,-1
 387 541 l 2,43,32
 420 541 420 541 420 523 c 2,33,-1
420 406 m 2,45,-1
 420 173 l 2,46,47
 420 155 420 155 387 155 c 2,48,-1
 371 155 l 2,49,50
 338 155 338 155 338 173 c 2,51,-1
 338 406 l 2,52,53
 338 424 338 424 371 424 c 2,54,-1
 387 424 l 2,55,44
 420 424 420 424 420 406 c 2,45,-1
EndSplineSet
EndChar

StartChar: B.ss05
Encoding: 65593 -1 119
Width: 756
Flags: W
LayerCount: 2
Back
Fore
SplineSet
198.5 660 m 128,-1,1
 116 612 116 612 68 529.5 c 128,-1,2
 20 447 20 447 20 350 c 256,3,4
 20 253 20 253 68 170.5 c 128,-1,5
 116 88 116 88 198.5 40 c 128,-1,6
 281 -8 281 -8 378 -8 c 256,7,8
 475 -8 475 -8 557.5 40 c 128,-1,9
 640 88 640 88 688 170.5 c 128,-1,10
 736 253 736 253 736 350 c 256,11,12
 736 447 736 447 688 529.5 c 128,-1,13
 640 612 640 612 557.5 660 c 128,-1,14
 475 708 475 708 378 708 c 256,15,0
 281 708 281 708 198.5 660 c 128,-1,1
518 591.5 m 128,-1,17
 582 554 582 554 619.5 490 c 128,-1,18
 657 426 657 426 657 350 c 256,19,20
 657 274 657 274 619.5 210 c 128,-1,21
 582 146 582 146 518 108.5 c 128,-1,22
 454 71 454 71 378 71 c 256,23,24
 302 71 302 71 238 108.5 c 128,-1,25
 174 146 174 146 136.5 210 c 128,-1,26
 99 274 99 274 99 350 c 256,27,28
 99 426 99 426 136.5 490 c 128,-1,29
 174 554 174 554 238 591.5 c 128,-1,30
 302 629 302 629 378 629 c 256,31,16
 454 629 454 629 518 591.5 c 128,-1,17
532 523 m 2,33,-1
 532 173 l 2,34,35
 532 155 532 155 497 155 c 2,36,-1
 477 155 l 2,37,38
 443 155 443 155 443 173 c 2,39,-1
 443 315 l 1,40,-1
 313 315 l 1,41,-1
 313 173 l 2,42,43
 313 155 313 155 279 155 c 2,44,-1
 259 155 l 2,45,46
 224 155 224 155 224 173 c 2,47,-1
 224 523 l 2,48,49
 224 541 224 541 259 541 c 2,50,-1
 279 541 l 2,51,52
 313 541 313 541 313 523 c 2,53,-1
 313 390 l 1,54,-1
 443 390 l 1,55,-1
 443 523 l 2,56,57
 443 541 443 541 477 541 c 2,58,-1
 497 541 l 2,59,32
 532 541 532 541 532 523 c 2,33,-1
EndSplineSet
EndChar

StartChar: C.ss05
Encoding: 65594 -1 120
Width: 756
Flags: W
LayerCount: 2
Back
Fore
SplineSet
557 660 m 128,-1,1
 639 612 639 612 687.5 529.5 c 128,-1,2
 736 447 736 447 736 350 c 256,3,4
 736 253 736 253 687.5 170.5 c 128,-1,5
 639 88 639 88 557 40 c 128,-1,6
 475 -8 475 -8 378 -8 c 256,7,8
 281 -8 281 -8 198.5 40 c 128,-1,9
 116 88 116 88 68 170.5 c 128,-1,10
 20 253 20 253 20 350 c 256,11,12
 20 447 20 447 68 529.5 c 128,-1,13
 116 612 116 612 198.5 660 c 128,-1,14
 281 708 281 708 378 708 c 256,15,0
 475 708 475 708 557 660 c 128,-1,1
238 592 m 128,-1,17
 174 554 174 554 136 490 c 128,-1,18
 98 426 98 426 98 350 c 256,19,20
 98 274 98 274 136 210 c 128,-1,21
 174 146 174 146 238 108 c 128,-1,22
 302 70 302 70 378 70 c 256,23,24
 454 70 454 70 518 108 c 128,-1,25
 582 146 582 146 620 210 c 128,-1,26
 658 274 658 274 658 350 c 256,27,28
 658 426 658 426 620 490 c 128,-1,29
 582 554 582 554 518 592 c 128,-1,30
 454 630 454 630 378 630 c 256,31,16
 302 630 302 630 238 592 c 128,-1,17
333.5 250 m 128,-1,33
 326 254 326 254 326 264 c 0,34,35
 326 292 326 292 341.5 319 c 128,-1,36
 357 346 357 346 388 379 c 0,37,38
 408 401 408 401 417.5 414.5 c 128,-1,39
 427 428 427 428 427 439 c 0,40,41
 427 455 427 455 415 465 c 128,-1,42
 403 475 403 475 379 475 c 0,43,44
 353 475 353 475 320 460 c 0,45,46
 310 455 310 455 307 455 c 0,47,48
 294 455 294 455 280 475.5 c 128,-1,49
 266 496 266 496 266 508 c 0,50,51
 266 534 266 534 304 547 c 128,-1,52
 342 560 342 560 388 560 c 0,53,54
 453 560 453 560 490.5 529 c 128,-1,55
 528 498 528 498 528 445 c 0,56,57
 528 408 528 408 510 384 c 128,-1,58
 492 360 492 360 459 334 c 0,59,60
 434 313 434 313 421 297 c 128,-1,61
 408 281 408 281 407 262 c 0,62,63
 406 253 406 253 398 249.5 c 128,-1,64
 390 246 390 246 373 246 c 2,65,-1
 358 246 l 2,66,32
 341 246 341 246 333.5 250 c 128,-1,33
415 186 m 2,68,-1
 415 132 l 2,69,70
 415 111 415 111 376 111 c 2,71,-1
 355 111 l 2,72,73
 317 111 317 111 317 132 c 2,74,-1
 317 186 l 2,75,76
 317 207 317 207 355 207 c 2,77,-1
 376 207 l 2,78,67
 415 207 415 207 415 186 c 2,68,-1
EndSplineSet
EndChar

StartChar: D.ss05
Encoding: 65595 -1 121
Width: 756
Flags: W
LayerCount: 2
Back
Fore
SplineSet
557 660 m 128,-1,1
 639 612 639 612 687.5 529.5 c 128,-1,2
 736 447 736 447 736 350 c 256,3,4
 736 253 736 253 687.5 170.5 c 128,-1,5
 639 88 639 88 557 40 c 128,-1,6
 475 -8 475 -8 378 -8 c 256,7,8
 281 -8 281 -8 198.5 40 c 128,-1,9
 116 88 116 88 68 170.5 c 128,-1,10
 20 253 20 253 20 350 c 256,11,12
 20 447 20 447 68 529.5 c 128,-1,13
 116 612 116 612 198.5 660 c 128,-1,14
 281 708 281 708 378 708 c 256,15,0
 475 708 475 708 557 660 c 128,-1,1
238 592 m 128,-1,17
 174 554 174 554 136 490 c 128,-1,18
 98 426 98 426 98 350 c 256,19,20
 98 274 98 274 136 210 c 128,-1,21
 174 146 174 146 238 108 c 128,-1,22
 302 70 302 70 378 70 c 256,23,24
 454 70 454 70 518 108 c 128,-1,25
 582 146 582 146 620 210 c 128,-1,26
 658 274 658 274 658 350 c 256,27,28
 658 426 658 426 620 490 c 128,-1,29
 582 554 582 554 518 592 c 128,-1,30
 454 630 454 630 378 630 c 256,31,16
 302 630 302 630 238 592 c 128,-1,17
392 578 m 0,33,34
 407 578 407 578 407 562 c 2,35,-1
 407 544 l 1,36,37
 445 543 445 543 470.5 531 c 128,-1,38
 496 519 496 519 496 506 c 0,39,40
 496 495 496 495 485.5 476.5 c 128,-1,41
 475 458 475 458 466 458 c 0,42,43
 463 458 463 458 455 461 c 0,44,45
 430 471 430 471 407 472 c 1,46,-1
 407 387 l 1,47,48
 464 364 464 364 488.5 339.5 c 128,-1,49
 513 315 513 315 513 272 c 0,50,51
 513 215 513 215 483 185 c 128,-1,52
 453 155 453 155 407 149 c 1,53,-1
 407 124 l 2,54,55
 407 108 407 108 393 108 c 0,56,57
 376 108 376 108 376 124 c 2,58,-1
 376 149 l 1,59,60
 340 150 340 150 313 158 c 128,-1,61
 286 166 286 166 271.5 176.5 c 128,-1,62
 257 187 257 187 257 197 c 0,63,64
 257 210 257 210 270 228 c 128,-1,65
 283 246 283 246 291 246 c 0,66,67
 294 246 294 246 298.5 244 c 128,-1,68
 303 242 303 242 307 240 c 0,69,70
 326 231 326 231 341 226 c 128,-1,71
 356 221 356 221 376 221 c 1,72,-1
 376 312 l 1,73,74
 315 335 315 335 290 360 c 128,-1,75
 265 385 265 385 265 431 c 0,76,77
 265 482 265 482 296.5 510.5 c 128,-1,78
 328 539 328 539 376 544 c 1,79,-1
 376 562 l 2,80,32
 376 578 376 578 392 578 c 0,33,34
347 440 m 256,82,83
 347 419 347 419 376 402 c 1,84,-1
 376 469 l 1,85,81
 347 461 347 461 347 440 c 256,82,83
431 261 m 0,87,88
 431 282 431 282 407 298 c 1,89,-1
 407 227 l 1,90,86
 431 237 431 237 431 261 c 0,87,88
EndSplineSet
EndChar

StartChar: E.ss05
Encoding: 65596 -1 122
Width: 756
Flags: W
LayerCount: 2
Back
Fore
SplineSet
557 660 m 128,-1,1
 639 612 639 612 687.5 529.5 c 128,-1,2
 736 447 736 447 736 350 c 256,3,4
 736 253 736 253 687.5 170.5 c 128,-1,5
 639 88 639 88 557 40 c 128,-1,6
 475 -8 475 -8 378 -8 c 256,7,8
 281 -8 281 -8 198.5 40 c 128,-1,9
 116 88 116 88 68 170.5 c 128,-1,10
 20 253 20 253 20 350 c 256,11,12
 20 447 20 447 68 529.5 c 128,-1,13
 116 612 116 612 198.5 660 c 128,-1,14
 281 708 281 708 378 708 c 256,15,0
 475 708 475 708 557 660 c 128,-1,1
238 592 m 128,-1,17
 174 554 174 554 136 490 c 128,-1,18
 98 426 98 426 98 350 c 256,19,20
 98 274 98 274 136 210 c 128,-1,21
 174 146 174 146 238 108 c 128,-1,22
 302 70 302 70 378 70 c 256,23,24
 454 70 454 70 518 108 c 128,-1,25
 582 146 582 146 620 210 c 128,-1,26
 658 274 658 274 658 350 c 256,27,28
 658 426 658 426 620 490 c 128,-1,29
 582 554 582 554 518 592 c 128,-1,30
 454 630 454 630 378 630 c 256,31,16
 302 630 302 630 238 592 c 128,-1,17
496.5 536.5 m 128,-1,33
 500 530 500 530 500 515 c 2,34,-1
 500 497 l 2,35,36
 500 482 500 482 496.5 475.5 c 128,-1,37
 493 469 493 469 484 469 c 2,38,-1
 343 469 l 1,39,-1
 343 388 l 1,40,-1
 469 388 l 2,41,42
 486 388 486 388 486 361 c 2,43,-1
 486 343 l 2,44,45
 486 316 486 316 469 316 c 2,46,-1
 343 316 l 1,47,-1
 343 226 l 1,48,-1
 484 226 l 2,49,50
 501 226 501 226 501 198 c 2,51,-1
 501 180 l 2,52,53
 501 166 501 166 497 159.5 c 128,-1,54
 493 153 493 153 484 153 c 2,55,-1
 280 153 l 2,56,57
 268 153 268 153 263 158 c 128,-1,58
 258 163 258 163 258 175 c 2,59,-1
 258 520 l 2,60,61
 258 532 258 532 263 537.5 c 128,-1,62
 268 543 268 543 280 543 c 2,63,-1
 484 543 l 2,64,32
 493 543 493 543 496.5 536.5 c 128,-1,33
EndSplineSet
Substitution2: "Single Substitution lookup 14 subtable" K.ss05
Substitution2: "'aalt' Access All Alternates lookup 0 subtable" K.ss05
EndChar

StartChar: F.ss05
Encoding: 65597 -1 123
Width: 756
Flags: W
LayerCount: 2
Back
Fore
SplineSet
557 660 m 128,-1,1
 639 612 639 612 687.5 529.5 c 128,-1,2
 736 447 736 447 736 350 c 256,3,4
 736 253 736 253 687.5 170.5 c 128,-1,5
 639 88 639 88 557 40 c 128,-1,6
 475 -8 475 -8 378 -8 c 256,7,8
 281 -8 281 -8 198.5 40 c 128,-1,9
 116 88 116 88 68 170.5 c 128,-1,10
 20 253 20 253 20 350 c 256,11,12
 20 447 20 447 68 529.5 c 128,-1,13
 116 612 116 612 198.5 660 c 128,-1,14
 281 708 281 708 378 708 c 256,15,0
 475 708 475 708 557 660 c 128,-1,1
238 592 m 128,-1,17
 174 554 174 554 136 490 c 128,-1,18
 98 426 98 426 98 350 c 256,19,20
 98 274 98 274 136 210 c 128,-1,21
 174 146 174 146 238 108 c 128,-1,22
 302 70 302 70 378 70 c 256,23,24
 454 70 454 70 518 108 c 128,-1,25
 582 146 582 146 620 210 c 128,-1,26
 658 274 658 274 658 350 c 256,27,28
 658 426 658 426 620 490 c 128,-1,29
 582 554 582 554 518 592 c 128,-1,30
 454 630 454 630 378 630 c 256,31,16
 302 630 302 630 238 592 c 128,-1,17
501 515.5 m 128,-1,33
 541 490 541 490 541 420 c 0,34,35
 541 372 541 372 518 345 c 128,-1,36
 495 318 495 318 466.5 308.5 c 128,-1,37
 438 299 438 299 416 299 c 2,38,-1
 357 299 l 1,39,-1
 357 173 l 2,40,41
 357 163 357 163 349 159 c 128,-1,42
 341 155 341 155 324 155 c 2,43,-1
 305 155 l 2,44,45
 288 155 288 155 280 159 c 128,-1,46
 272 163 272 163 272 173 c 2,47,-1
 272 518 l 2,48,49
 272 541 272 541 294 541 c 2,50,-1
 410 541 l 2,51,32
 461 541 461 541 501 515.5 c 128,-1,33
406 372 m 2,52,53
 426 372 426 372 440.5 382.5 c 128,-1,54
 455 393 455 393 455 420 c 256,55,56
 455 447 455 447 440.5 458 c 128,-1,57
 426 469 426 469 406 469 c 2,58,-1
 357 469 l 1,59,-1
 357 372 l 1,60,-1
 406 372 l 2,52,53
EndSplineSet
Substitution2: "Single Substitution lookup 14 subtable" L.ss05
Substitution2: "'aalt' Access All Alternates lookup 0 subtable" L.ss05
EndChar

StartChar: G.ss05
Encoding: 65598 -1 124
Width: 756
Flags: W
LayerCount: 2
Back
Fore
SplineSet
557 660 m 128,-1,1
 639 612 639 612 687.5 529.5 c 128,-1,2
 736 447 736 447 736 350 c 256,3,4
 736 253 736 253 687.5 170.5 c 128,-1,5
 639 88 639 88 557 40 c 128,-1,6
 475 -8 475 -8 378 -8 c 256,7,8
 281 -8 281 -8 198.5 40 c 128,-1,9
 116 88 116 88 68 170.5 c 128,-1,10
 20 253 20 253 20 350 c 256,11,12
 20 447 20 447 68 529.5 c 128,-1,13
 116 612 116 612 198.5 660 c 128,-1,14
 281 708 281 708 378 708 c 256,15,0
 475 708 475 708 557 660 c 128,-1,1
238 592 m 128,-1,17
 174 554 174 554 136 490 c 128,-1,18
 98 426 98 426 98 350 c 256,19,20
 98 274 98 274 136 210 c 128,-1,21
 174 146 174 146 238 108 c 128,-1,22
 302 70 302 70 378 70 c 256,23,24
 454 70 454 70 518 108 c 128,-1,25
 582 146 582 146 620 210 c 128,-1,26
 658 274 658 274 658 350 c 256,27,28
 658 426 658 426 620 490 c 128,-1,29
 582 554 582 554 518 592 c 128,-1,30
 454 630 454 630 378 630 c 256,31,16
 302 630 302 630 238 592 c 128,-1,17
462 255 m 2,33,-1
 416 348 l 1,34,-1
 420 425 l 1,35,-1
 440 396 l 2,36,37
 444 391 444 391 448 388.5 c 128,-1,38
 452 386 452 386 459 384 c 2,39,-1
 491 375 l 2,40,41
 497 373 497 373 505 373 c 0,42,43
 511 373 511 373 515.5 378 c 128,-1,44
 520 383 520 383 520 391 c 0,45,46
 520 401 520 401 509 404 c 2,47,-1
 466 417 l 1,48,-1
 429 481 l 2,49,50
 421 495 421 495 406 503 c 1,51,-1
 407 519 l 1,52,53
 417 524 417 524 418 534 c 2,54,-1
 422 571 l 2,55,56
 422 579 422 579 414.5 585 c 128,-1,57
 407 591 407 591 396 591 c 0,58,59
 386 591 386 591 379.5 585.5 c 128,-1,60
 373 580 373 580 372 571 c 2,61,-1
 370 537 l 2,62,63
 370 531 370 531 377 521 c 1,64,65
 377 512 377 512 365 506 c 0,66,67
 351 501 351 501 338 483 c 2,68,-1
 298 432 l 2,69,70
 294 426 294 426 292 419.5 c 128,-1,71
 290 413 290 413 289 406.5 c 128,-1,72
 288 400 288 400 287 396 c 2,73,-1
 284 370 l 2,74,75
 281 357 281 357 281 346 c 0,76,77
 281 340 281 340 286.5 336.5 c 128,-1,78
 292 333 292 333 298 333 c 0,79,80
 314 333 314 333 315 350 c 2,81,-1
 321 407 l 1,82,-1
 350 433 l 1,83,-1
 340 344 l 1,84,-1
 315 228 l 1,85,-1
 269 151 l 2,86,87
 263 141 263 141 263 138 c 0,88,89
 263 132 263 132 273 125 c 0,90,91
 284 117 284 117 288 117 c 0,92,93
 294 117 294 117 297 122 c 2,94,-1
 340 188 l 2,95,96
 355 212 355 212 359 224 c 2,97,-1
 384 296 l 1,98,-1
 425 230 l 1,99,-1
 441 122 l 2,100,101
 442 111 442 111 464 111 c 0,102,103
 472 111 472 111 477 113.5 c 128,-1,104
 482 116 482 116 482 120 c 0,105,106
 482 128 482 128 476.5 170 c 128,-1,107
 471 212 471 212 468 234 c 0,108,32
 467 246 467 246 462 255 c 2,33,-1
EndSplineSet
Substitution2: "Single Substitution lookup 14 subtable" M.ss05
Substitution2: "'aalt' Access All Alternates lookup 0 subtable" M.ss05
EndChar

StartChar: H.ss05
Encoding: 65599 -1 125
Width: 756
Flags: W
LayerCount: 2
Back
Fore
SplineSet
557 660 m 128,-1,1
 639 612 639 612 687.5 529.5 c 128,-1,2
 736 447 736 447 736 350 c 256,3,4
 736 253 736 253 687.5 170.5 c 128,-1,5
 639 88 639 88 557 40 c 128,-1,6
 475 -8 475 -8 378 -8 c 256,7,8
 281 -8 281 -8 198.5 40 c 128,-1,9
 116 88 116 88 68 170.5 c 128,-1,10
 20 253 20 253 20 350 c 256,11,12
 20 447 20 447 68 529.5 c 128,-1,13
 116 612 116 612 198.5 660 c 128,-1,14
 281 708 281 708 378 708 c 256,15,0
 475 708 475 708 557 660 c 128,-1,1
238 592 m 128,-1,17
 174 554 174 554 136 490 c 128,-1,18
 98 426 98 426 98 350 c 256,19,20
 98 274 98 274 136 210 c 128,-1,21
 174 146 174 146 238 108 c 128,-1,22
 302 70 302 70 378 70 c 256,23,24
 454 70 454 70 518 108 c 128,-1,25
 582 146 582 146 620 210 c 128,-1,26
 658 274 658 274 658 350 c 256,27,28
 658 426 658 426 620 490 c 128,-1,29
 582 554 582 554 518 592 c 128,-1,30
 454 630 454 630 378 630 c 256,31,16
 302 630 302 630 238 592 c 128,-1,17
517 405 m 1,32,-1
 559 405 l 2,33,34
 578 405 578 405 585 421 c 0,35,36
 591 435 591 435 591 442 c 256,37,38
 591 449 591 449 581 455 c 2,39,-1
 520 490 l 1,40,-1
 520 519 l 2,41,42
 520 523 520 523 515 523 c 0,43,44
 512 523 512 523 509 520 c 2,45,-1
 420 408 l 1,46,-1
 204 430 l 1,47,48
 204 419 204 419 212.5 406 c 128,-1,49
 221 393 221 393 232 389 c 1,50,51
 228 329 228 329 224 269 c 128,-1,52
 220 209 220 209 219 183 c 0,53,54
 219 169 219 169 243 169 c 0,55,56
 268 169 268 169 271 183 c 2,57,-1
 291 307 l 1,58,59
 338 287 338 287 386 287 c 2,60,-1
 436 287 l 1,61,-1
 445 183 l 2,62,63
 446 169 446 169 474 169 c 0,64,65
 501 169 501 169 501 183 c 2,66,-1
 501 355 l 1,67,-1
 517 405 l 1,32,-1
EndSplineSet
Substitution2: "Single Substitution lookup 14 subtable" N.ss05
Substitution2: "'aalt' Access All Alternates lookup 0 subtable" N.ss05
EndChar

StartChar: I.ss05
Encoding: 65600 -1 126
Width: 756
Flags: W
LayerCount: 2
Back
Fore
SplineSet
557 660 m 128,-1,1
 639 612 639 612 687.5 529.5 c 128,-1,2
 736 447 736 447 736 350 c 256,3,4
 736 253 736 253 687.5 170.5 c 128,-1,5
 639 88 639 88 557 40 c 128,-1,6
 475 -8 475 -8 378 -8 c 256,7,8
 281 -8 281 -8 198.5 40 c 128,-1,9
 116 88 116 88 68 170.5 c 128,-1,10
 20 253 20 253 20 350 c 256,11,12
 20 447 20 447 68 529.5 c 128,-1,13
 116 612 116 612 198.5 660 c 128,-1,14
 281 708 281 708 378 708 c 256,15,0
 475 708 475 708 557 660 c 128,-1,1
238 592 m 128,-1,17
 174 554 174 554 136 490 c 128,-1,18
 98 426 98 426 98 350 c 256,19,20
 98 274 98 274 136 210 c 128,-1,21
 174 146 174 146 238 108 c 128,-1,22
 302 70 302 70 378 70 c 256,23,24
 454 70 454 70 518 108 c 128,-1,25
 582 146 582 146 620 210 c 128,-1,26
 658 274 658 274 658 350 c 256,27,28
 658 426 658 426 620 490 c 128,-1,29
 582 554 582 554 518 592 c 128,-1,30
 454 630 454 630 378 630 c 256,31,16
 302 630 302 630 238 592 c 128,-1,17
486 513 m 2,33,-1
 486 175 l 2,34,35
 486 164 486 164 470 164 c 2,36,-1
 287 164 l 2,37,38
 271 164 271 164 271 175 c 2,39,-1
 271 513 l 2,40,41
 271 523 271 523 289 523 c 2,42,-1
 410 523 l 1,43,-1
 414 535 l 2,44,45
 416 541 416 541 426 541 c 2,46,-1
 431 541 l 2,47,48
 443 541 443 541 444 535 c 2,49,-1
 447 523 l 1,50,-1
 468 523 l 2,51,32
 486 523 486 523 486 513 c 2,33,-1
456 494 m 1,52,-1
 301 494 l 1,53,-1
 301 320 l 1,54,-1
 456 320 l 1,55,-1
 456 494 l 1,52,-1
343 281 m 2,56,57
 343 284 343 284 340.5 284.5 c 128,-1,58
 338 285 338 285 333 285 c 2,59,-1
 310 285 l 2,60,61
 306 285 306 285 303.5 284.5 c 128,-1,62
 301 284 301 284 301 281 c 2,63,-1
 301 269 l 2,64,65
 301 265 301 265 310 265 c 2,66,-1
 333 265 l 2,67,68
 343 265 343 265 343 269 c 2,69,-1
 343 281 l 2,56,57
400 281 m 2,70,71
 400 284 400 284 397 284.5 c 128,-1,72
 394 285 394 285 390 285 c 2,73,-1
 367 285 l 2,74,75
 362 285 362 285 359.5 284.5 c 128,-1,76
 357 284 357 284 357 281 c 2,77,-1
 357 269 l 2,78,79
 357 265 357 265 367 265 c 2,80,-1
 390 265 l 2,81,82
 400 265 400 265 400 269 c 2,83,-1
 400 281 l 2,70,71
456 281 m 2,84,85
 456 284 456 284 453.5 284.5 c 128,-1,86
 451 285 451 285 446 285 c 2,87,-1
 423 285 l 2,88,89
 419 285 419 285 416.5 284.5 c 128,-1,90
 414 284 414 284 414 281 c 2,91,-1
 414 269 l 2,92,93
 414 265 414 265 423 265 c 2,94,-1
 446 265 l 2,95,96
 456 265 456 265 456 269 c 2,97,-1
 456 281 l 2,84,85
343 246 m 2,98,99
 343 249 343 249 340.5 249.5 c 128,-1,100
 338 250 338 250 333 250 c 2,101,-1
 310 250 l 2,102,103
 306 250 306 250 303.5 249.5 c 128,-1,104
 301 249 301 249 301 246 c 2,105,-1
 301 234 l 2,106,107
 301 232 301 232 303.5 231.5 c 128,-1,108
 306 231 306 231 310 231 c 2,109,-1
 333 231 l 2,110,111
 338 231 338 231 340.5 231.5 c 128,-1,112
 343 232 343 232 343 234 c 2,113,-1
 343 246 l 2,98,99
400 246 m 2,114,115
 400 249 400 249 397 249.5 c 128,-1,116
 394 250 394 250 390 250 c 2,117,-1
 367 250 l 2,118,119
 362 250 362 250 359.5 249.5 c 128,-1,120
 357 249 357 249 357 246 c 2,121,-1
 357 234 l 2,122,123
 357 232 357 232 359.5 231.5 c 128,-1,124
 362 231 362 231 367 231 c 2,125,-1
 390 231 l 2,126,127
 400 231 400 231 400 234 c 2,128,-1
 400 246 l 2,114,115
456 246 m 2,129,130
 456 249 456 249 453.5 249.5 c 128,-1,131
 451 250 451 250 446 250 c 2,132,-1
 423 250 l 2,133,134
 419 250 419 250 416.5 249.5 c 128,-1,135
 414 249 414 249 414 246 c 2,136,-1
 414 234 l 2,137,138
 414 232 414 232 416.5 231.5 c 128,-1,139
 419 231 419 231 423 231 c 2,140,-1
 446 231 l 2,141,142
 451 231 451 231 453.5 231.5 c 128,-1,143
 456 232 456 232 456 234 c 2,144,-1
 456 246 l 2,129,130
343 211 m 2,145,146
 343 214 343 214 340.5 214.5 c 128,-1,147
 338 215 338 215 333 215 c 2,148,-1
 310 215 l 2,149,150
 306 215 306 215 303.5 214.5 c 128,-1,151
 301 214 301 214 301 211 c 2,152,-1
 301 199 l 2,153,154
 301 197 301 197 303.5 196.5 c 128,-1,155
 306 196 306 196 310 196 c 2,156,-1
 333 196 l 2,157,158
 338 196 338 196 340.5 196.5 c 128,-1,159
 343 197 343 197 343 199 c 2,160,-1
 343 211 l 2,145,146
400 211 m 2,161,162
 400 214 400 214 397 214.5 c 128,-1,163
 394 215 394 215 390 215 c 2,164,-1
 367 215 l 2,165,166
 362 215 362 215 359.5 214.5 c 128,-1,167
 357 214 357 214 357 211 c 2,168,-1
 357 199 l 2,169,170
 357 197 357 197 359.5 196.5 c 128,-1,171
 362 196 362 196 367 196 c 2,172,-1
 390 196 l 2,173,174
 400 196 400 196 400 199 c 2,175,-1
 400 211 l 2,161,162
456 211 m 2,176,177
 456 214 456 214 453.5 214.5 c 128,-1,178
 451 215 451 215 446 215 c 2,179,-1
 423 215 l 2,180,181
 419 215 419 215 416.5 214.5 c 128,-1,182
 414 214 414 214 414 211 c 2,183,-1
 414 199 l 2,184,185
 414 197 414 197 416.5 196.5 c 128,-1,186
 419 196 419 196 423 196 c 2,187,-1
 446 196 l 2,188,189
 451 196 451 196 453.5 196.5 c 128,-1,190
 456 197 456 197 456 199 c 2,191,-1
 456 211 l 2,176,177
EndSplineSet
Substitution2: "Single Substitution lookup 14 subtable" O.ss05
Substitution2: "'aalt' Access All Alternates lookup 0 subtable" O.ss05
EndChar

StartChar: J.ss05
Encoding: 65601 -1 127
Width: 756
Flags: W
LayerCount: 2
Back
Fore
SplineSet
557 660 m 128,-1,1
 639 612 639 612 687.5 529.5 c 128,-1,2
 736 447 736 447 736 350 c 256,3,4
 736 253 736 253 687.5 170.5 c 128,-1,5
 639 88 639 88 557 40 c 128,-1,6
 475 -8 475 -8 378 -8 c 256,7,8
 281 -8 281 -8 198.5 40 c 128,-1,9
 116 88 116 88 68 170.5 c 128,-1,10
 20 253 20 253 20 350 c 256,11,12
 20 447 20 447 68 529.5 c 128,-1,13
 116 612 116 612 198.5 660 c 128,-1,14
 281 708 281 708 378 708 c 256,15,0
 475 708 475 708 557 660 c 128,-1,1
238 592 m 128,-1,17
 174 554 174 554 136 490 c 128,-1,18
 98 426 98 426 98 350 c 256,19,20
 98 274 98 274 136 210 c 128,-1,21
 174 146 174 146 238 108 c 128,-1,22
 302 70 302 70 378 70 c 256,23,24
 454 70 454 70 518 108 c 128,-1,25
 582 146 582 146 620 210 c 128,-1,26
 658 274 658 274 658 350 c 256,27,28
 658 426 658 426 620 490 c 128,-1,29
 582 554 582 554 518 592 c 128,-1,30
 454 630 454 630 378 630 c 256,31,16
 302 630 302 630 238 592 c 128,-1,17
545 302 m 2,33,-1
 540 302 l 2,34,35
 532 302 532 302 532 307 c 2,36,-1
 532 371 l 2,37,38
 532 383 532 383 523.5 391.5 c 128,-1,39
 515 400 515 400 503 400 c 2,40,-1
 401 400 l 2,41,42
 366 400 366 400 341 425 c 128,-1,43
 316 450 316 450 316 485 c 256,44,45
 316 520 316 520 341 545 c 128,-1,46
 366 570 366 570 401 570 c 256,47,48
 436 570 436 570 461 545 c 128,-1,49
 486 520 486 520 486 485 c 2,50,-1
 486 484 l 2,51,52
 486 480 486 480 477 480 c 2,53,-1
 473 480 l 2,54,55
 464 480 464 480 464 484 c 2,56,-1
 464 485 l 2,57,58
 464 511 464 511 445.5 529.5 c 128,-1,59
 427 548 427 548 401 548 c 256,60,61
 375 548 375 548 356 529.5 c 128,-1,62
 337 511 337 511 337 485 c 256,63,64
 337 459 337 459 356 440.5 c 128,-1,65
 375 422 375 422 401 422 c 2,66,-1
 503 422 l 2,67,68
 524 422 524 422 538.5 407 c 128,-1,69
 553 392 553 392 553 371 c 2,70,-1
 553 307 l 2,71,32
 553 302 553 302 545 302 c 2,33,-1
579 302 m 2,73,-1
 574 302 l 2,74,75
 566 302 566 302 566 306 c 2,76,-1
 566 371 l 2,77,78
 566 397 566 397 547.5 416 c 128,-1,79
 529 435 529 435 503 435 c 2,80,-1
 401 435 l 2,81,82
 380 435 380 435 365 449.5 c 128,-1,83
 350 464 350 464 350 486 c 2,84,-1
 350 487 l 2,85,86
 350 491 350 491 358 491 c 2,87,-1
 363 491 l 2,88,89
 367 491 367 491 369.5 490.5 c 128,-1,90
 372 490 372 490 372 487 c 2,91,-1
 372 486 l 2,92,93
 372 474 372 474 380.5 465.5 c 128,-1,94
 389 457 389 457 401 457 c 2,95,-1
 503 457 l 2,96,97
 538 457 538 457 563 432 c 128,-1,98
 588 407 588 407 588 371 c 2,99,-1
 588 307 l 2,100,72
 588 302 588 302 579 302 c 2,73,-1
518 235 m 1,101,-1
 165 235 l 2,102,103
 156 235 156 235 156 252 c 2,104,-1
 156 266 l 2,105,106
 156 282 156 282 165 282 c 2,107,-1
 518 282 l 1,108,-1
 518 235 l 1,101,-1
532 282 m 1,109,-1
 553 282 l 1,110,-1
 553 235 l 1,111,-1
 532 235 l 1,112,-1
 532 282 l 1,109,-1
584 235 m 2,114,-1
 566 235 l 1,115,-1
 566 282 l 1,116,-1
 584 282 l 2,117,118
 593 282 593 282 593 266 c 2,119,-1
 593 252 l 2,120,113
 593 235 593 235 584 235 c 2,114,-1
EndSplineSet
Substitution2: "Single Substitution lookup 14 subtable" P.ss05
Substitution2: "'aalt' Access All Alternates lookup 0 subtable" P.ss05
EndChar

StartChar: K.ss05
Encoding: 65602 -1 128
Width: 756
Flags: W
LayerCount: 2
Back
Fore
SplineSet
496.5 536.5 m 128,-1,1
 500 530 500 530 500 515 c 2,2,-1
 500 497 l 2,3,4
 500 482 500 482 496.5 475.5 c 128,-1,5
 493 469 493 469 484 469 c 2,6,-1
 343 469 l 1,7,-1
 343 388 l 1,8,-1
 469 388 l 2,9,10
 486 388 486 388 486 361 c 2,11,-1
 486 343 l 2,12,13
 486 316 486 316 469 316 c 2,14,-1
 343 316 l 1,15,-1
 343 226 l 1,16,-1
 484 226 l 2,17,18
 501 226 501 226 501 198 c 2,19,-1
 501 180 l 2,20,21
 501 166 501 166 497 159.5 c 128,-1,22
 493 153 493 153 484 153 c 2,23,-1
 280 153 l 2,24,25
 268 153 268 153 263 158 c 128,-1,26
 258 163 258 163 258 175 c 2,27,-1
 258 520 l 2,28,29
 258 532 258 532 263 537.5 c 128,-1,30
 268 543 268 543 280 543 c 2,31,-1
 484 543 l 2,32,0
 493 543 493 543 496.5 536.5 c 128,-1,1
EndSplineSet
Position2: "Single Positioning lookup 2 subtable" dx=0 dy=0 dh=-756 dv=0
EndChar

StartChar: L.ss05
Encoding: 65603 -1 129
Width: 756
Flags: W
LayerCount: 2
Back
Fore
SplineSet
501 515.5 m 128,-1,1
 541 490 541 490 541 420 c 0,2,3
 541 372 541 372 518 345 c 128,-1,4
 495 318 495 318 466.5 308.5 c 128,-1,5
 438 299 438 299 416 299 c 2,6,-1
 357 299 l 1,7,-1
 357 173 l 2,8,9
 357 163 357 163 349 159 c 128,-1,10
 341 155 341 155 324 155 c 2,11,-1
 305 155 l 2,12,13
 288 155 288 155 280 159 c 128,-1,14
 272 163 272 163 272 173 c 2,15,-1
 272 518 l 2,16,17
 272 541 272 541 294 541 c 2,18,-1
 410 541 l 2,19,0
 461 541 461 541 501 515.5 c 128,-1,1
406 372 m 2,20,21
 426 372 426 372 440.5 382.5 c 128,-1,22
 455 393 455 393 455 420 c 256,23,24
 455 447 455 447 440.5 458 c 128,-1,25
 426 469 426 469 406 469 c 2,26,-1
 357 469 l 1,27,-1
 357 372 l 1,28,-1
 406 372 l 2,20,21
EndSplineSet
Position2: "Single Positioning lookup 2 subtable" dx=0 dy=0 dh=-756 dv=0
EndChar

StartChar: M.ss05
Encoding: 65604 -1 130
Width: 756
Flags: W
LayerCount: 2
Back
Fore
SplineSet
462 255 m 2,1,-1
 416 348 l 1,2,-1
 420 425 l 1,3,-1
 440 396 l 2,4,5
 444 391 444 391 448 388.5 c 128,-1,6
 452 386 452 386 459 384 c 2,7,-1
 491 375 l 2,8,9
 497 373 497 373 505 373 c 0,10,11
 511 373 511 373 515.5 378 c 128,-1,12
 520 383 520 383 520 391 c 0,13,14
 520 401 520 401 509 404 c 2,15,-1
 466 417 l 1,16,-1
 429 481 l 2,17,18
 421 495 421 495 406 503 c 1,19,-1
 407 519 l 1,20,21
 417 524 417 524 418 534 c 2,22,-1
 422 571 l 2,23,24
 422 579 422 579 414.5 585 c 128,-1,25
 407 591 407 591 396 591 c 0,26,27
 386 591 386 591 379.5 585.5 c 128,-1,28
 373 580 373 580 372 571 c 2,29,-1
 370 537 l 2,30,31
 370 531 370 531 377 521 c 1,32,33
 377 512 377 512 365 506 c 0,34,35
 351 501 351 501 338 483 c 2,36,-1
 298 432 l 2,37,38
 294 426 294 426 292 419.5 c 128,-1,39
 290 413 290 413 289 406.5 c 128,-1,40
 288 400 288 400 287 396 c 2,41,-1
 284 370 l 2,42,43
 281 357 281 357 281 346 c 0,44,45
 281 340 281 340 286.5 336.5 c 128,-1,46
 292 333 292 333 298 333 c 0,47,48
 314 333 314 333 315 350 c 2,49,-1
 321 407 l 1,50,-1
 350 433 l 1,51,-1
 340 344 l 1,52,-1
 315 228 l 1,53,-1
 269 151 l 2,54,55
 263 141 263 141 263 138 c 0,56,57
 263 132 263 132 273 125 c 0,58,59
 284 117 284 117 288 117 c 0,60,61
 294 117 294 117 297 122 c 2,62,-1
 340 188 l 2,63,64
 355 212 355 212 359 224 c 2,65,-1
 384 296 l 1,66,-1
 425 230 l 1,67,-1
 441 122 l 2,68,69
 442 111 442 111 464 111 c 0,70,71
 472 111 472 111 477 113.5 c 128,-1,72
 482 116 482 116 482 120 c 0,73,74
 482 128 482 128 476.5 170 c 128,-1,75
 471 212 471 212 468 234 c 0,76,0
 467 246 467 246 462 255 c 2,1,-1
EndSplineSet
Position2: "Single Positioning lookup 2 subtable" dx=0 dy=0 dh=-756 dv=0
EndChar

StartChar: N.ss05
Encoding: 65605 -1 131
Width: 756
Flags: W
LayerCount: 2
Back
Fore
SplineSet
517 405 m 1,0,-1
 559 405 l 2,1,2
 578 405 578 405 585 421 c 0,3,4
 591 435 591 435 591 442 c 256,5,6
 591 449 591 449 581 455 c 2,7,-1
 520 490 l 1,8,-1
 520 519 l 2,9,10
 520 523 520 523 515 523 c 0,11,12
 512 523 512 523 509 520 c 2,13,-1
 420 408 l 1,14,-1
 204 430 l 1,15,16
 204 419 204 419 212.5 406 c 128,-1,17
 221 393 221 393 232 389 c 1,18,19
 228 329 228 329 224 269 c 128,-1,20
 220 209 220 209 219 183 c 0,21,22
 219 169 219 169 243 169 c 0,23,24
 268 169 268 169 271 183 c 2,25,-1
 291 307 l 1,26,27
 338 287 338 287 386 287 c 2,28,-1
 436 287 l 1,29,-1
 445 183 l 2,30,31
 446 169 446 169 474 169 c 0,32,33
 501 169 501 169 501 183 c 2,34,-1
 501 355 l 1,35,-1
 517 405 l 1,0,-1
EndSplineSet
Position2: "Single Positioning lookup 2 subtable" dx=0 dy=0 dh=-756 dv=0
EndChar

StartChar: O.ss05
Encoding: 65606 -1 132
Width: 756
Flags: W
LayerCount: 2
Back
Fore
SplineSet
486 513 m 2,1,-1
 486 175 l 2,2,3
 486 164 486 164 470 164 c 2,4,-1
 287 164 l 2,5,6
 271 164 271 164 271 175 c 2,7,-1
 271 513 l 2,8,9
 271 523 271 523 289 523 c 2,10,-1
 410 523 l 1,11,-1
 414 535 l 2,12,13
 416 541 416 541 426 541 c 2,14,-1
 431 541 l 2,15,16
 443 541 443 541 444 535 c 2,17,-1
 447 523 l 1,18,-1
 468 523 l 2,19,0
 486 523 486 523 486 513 c 2,1,-1
456 494 m 1,20,-1
 301 494 l 1,21,-1
 301 320 l 1,22,-1
 456 320 l 1,23,-1
 456 494 l 1,20,-1
343 281 m 2,24,25
 343 284 343 284 340.5 284.5 c 128,-1,26
 338 285 338 285 333 285 c 2,27,-1
 310 285 l 2,28,29
 306 285 306 285 303.5 284.5 c 128,-1,30
 301 284 301 284 301 281 c 2,31,-1
 301 269 l 2,32,33
 301 265 301 265 310 265 c 2,34,-1
 333 265 l 2,35,36
 343 265 343 265 343 269 c 2,37,-1
 343 281 l 2,24,25
400 281 m 2,38,39
 400 284 400 284 397 284.5 c 128,-1,40
 394 285 394 285 390 285 c 2,41,-1
 367 285 l 2,42,43
 362 285 362 285 359.5 284.5 c 128,-1,44
 357 284 357 284 357 281 c 2,45,-1
 357 269 l 2,46,47
 357 265 357 265 367 265 c 2,48,-1
 390 265 l 2,49,50
 400 265 400 265 400 269 c 2,51,-1
 400 281 l 2,38,39
456 281 m 2,52,53
 456 284 456 284 453.5 284.5 c 128,-1,54
 451 285 451 285 446 285 c 2,55,-1
 423 285 l 2,56,57
 419 285 419 285 416.5 284.5 c 128,-1,58
 414 284 414 284 414 281 c 2,59,-1
 414 269 l 2,60,61
 414 265 414 265 423 265 c 2,62,-1
 446 265 l 2,63,64
 456 265 456 265 456 269 c 2,65,-1
 456 281 l 2,52,53
343 246 m 2,66,67
 343 249 343 249 340.5 249.5 c 128,-1,68
 338 250 338 250 333 250 c 2,69,-1
 310 250 l 2,70,71
 306 250 306 250 303.5 249.5 c 128,-1,72
 301 249 301 249 301 246 c 2,73,-1
 301 234 l 2,74,75
 301 232 301 232 303.5 231.5 c 128,-1,76
 306 231 306 231 310 231 c 2,77,-1
 333 231 l 2,78,79
 338 231 338 231 340.5 231.5 c 128,-1,80
 343 232 343 232 343 234 c 2,81,-1
 343 246 l 2,66,67
400 246 m 2,82,83
 400 249 400 249 397 249.5 c 128,-1,84
 394 250 394 250 390 250 c 2,85,-1
 367 250 l 2,86,87
 362 250 362 250 359.5 249.5 c 128,-1,88
 357 249 357 249 357 246 c 2,89,-1
 357 234 l 2,90,91
 357 232 357 232 359.5 231.5 c 128,-1,92
 362 231 362 231 367 231 c 2,93,-1
 390 231 l 2,94,95
 400 231 400 231 400 234 c 2,96,-1
 400 246 l 2,82,83
456 246 m 2,97,98
 456 249 456 249 453.5 249.5 c 128,-1,99
 451 250 451 250 446 250 c 2,100,-1
 423 250 l 2,101,102
 419 250 419 250 416.5 249.5 c 128,-1,103
 414 249 414 249 414 246 c 2,104,-1
 414 234 l 2,105,106
 414 232 414 232 416.5 231.5 c 128,-1,107
 419 231 419 231 423 231 c 2,108,-1
 446 231 l 2,109,110
 451 231 451 231 453.5 231.5 c 128,-1,111
 456 232 456 232 456 234 c 2,112,-1
 456 246 l 2,97,98
343 211 m 2,113,114
 343 214 343 214 340.5 214.5 c 128,-1,115
 338 215 338 215 333 215 c 2,116,-1
 310 215 l 2,117,118
 306 215 306 215 303.5 214.5 c 128,-1,119
 301 214 301 214 301 211 c 2,120,-1
 301 199 l 2,121,122
 301 197 301 197 303.5 196.5 c 128,-1,123
 306 196 306 196 310 196 c 2,124,-1
 333 196 l 2,125,126
 338 196 338 196 340.5 196.5 c 128,-1,127
 343 197 343 197 343 199 c 2,128,-1
 343 211 l 2,113,114
400 211 m 2,129,130
 400 214 400 214 397 214.5 c 128,-1,131
 394 215 394 215 390 215 c 2,132,-1
 367 215 l 2,133,134
 362 215 362 215 359.5 214.5 c 128,-1,135
 357 214 357 214 357 211 c 2,136,-1
 357 199 l 2,137,138
 357 197 357 197 359.5 196.5 c 128,-1,139
 362 196 362 196 367 196 c 2,140,-1
 390 196 l 2,141,142
 400 196 400 196 400 199 c 2,143,-1
 400 211 l 2,129,130
456 211 m 2,144,145
 456 214 456 214 453.5 214.5 c 128,-1,146
 451 215 451 215 446 215 c 2,147,-1
 423 215 l 2,148,149
 419 215 419 215 416.5 214.5 c 128,-1,150
 414 214 414 214 414 211 c 2,151,-1
 414 199 l 2,152,153
 414 197 414 197 416.5 196.5 c 128,-1,154
 419 196 419 196 423 196 c 2,155,-1
 446 196 l 2,156,157
 451 196 451 196 453.5 196.5 c 128,-1,158
 456 197 456 197 456 199 c 2,159,-1
 456 211 l 2,144,145
EndSplineSet
Position2: "Single Positioning lookup 2 subtable" dx=0 dy=0 dh=-756 dv=0
EndChar

StartChar: P.ss05
Encoding: 65607 -1 133
Width: 756
Flags: W
LayerCount: 2
Back
Fore
SplineSet
545 302 m 2,1,-1
 540 302 l 2,2,3
 532 302 532 302 532 307 c 2,4,-1
 532 371 l 2,5,6
 532 383 532 383 523.5 391.5 c 128,-1,7
 515 400 515 400 503 400 c 2,8,-1
 401 400 l 2,9,10
 366 400 366 400 341 425 c 128,-1,11
 316 450 316 450 316 485 c 256,12,13
 316 520 316 520 341 545 c 128,-1,14
 366 570 366 570 401 570 c 256,15,16
 436 570 436 570 461 545 c 128,-1,17
 486 520 486 520 486 485 c 2,18,-1
 486 484 l 2,19,20
 486 480 486 480 477 480 c 2,21,-1
 473 480 l 2,22,23
 464 480 464 480 464 484 c 2,24,-1
 464 485 l 2,25,26
 464 511 464 511 445.5 529.5 c 128,-1,27
 427 548 427 548 401 548 c 256,28,29
 375 548 375 548 356 529.5 c 128,-1,30
 337 511 337 511 337 485 c 256,31,32
 337 459 337 459 356 440.5 c 128,-1,33
 375 422 375 422 401 422 c 2,34,-1
 503 422 l 2,35,36
 524 422 524 422 538.5 407 c 128,-1,37
 553 392 553 392 553 371 c 2,38,-1
 553 307 l 2,39,0
 553 302 553 302 545 302 c 2,1,-1
579 302 m 2,41,-1
 574 302 l 2,42,43
 566 302 566 302 566 306 c 2,44,-1
 566 371 l 2,45,46
 566 397 566 397 547.5 416 c 128,-1,47
 529 435 529 435 503 435 c 2,48,-1
 401 435 l 2,49,50
 380 435 380 435 365 449.5 c 128,-1,51
 350 464 350 464 350 486 c 2,52,-1
 350 487 l 2,53,54
 350 491 350 491 358 491 c 2,55,-1
 363 491 l 2,56,57
 367 491 367 491 369.5 490.5 c 128,-1,58
 372 490 372 490 372 487 c 2,59,-1
 372 486 l 2,60,61
 372 474 372 474 380.5 465.5 c 128,-1,62
 389 457 389 457 401 457 c 2,63,-1
 503 457 l 2,64,65
 538 457 538 457 563 432 c 128,-1,66
 588 407 588 407 588 371 c 2,67,-1
 588 307 l 2,68,40
 588 302 588 302 579 302 c 2,41,-1
518 235 m 1,69,-1
 165 235 l 2,70,71
 156 235 156 235 156 252 c 2,72,-1
 156 266 l 2,73,74
 156 282 156 282 165 282 c 2,75,-1
 518 282 l 1,76,-1
 518 235 l 1,69,-1
532 282 m 1,77,-1
 553 282 l 1,78,-1
 553 235 l 1,79,-1
 532 235 l 1,80,-1
 532 282 l 1,77,-1
584 235 m 2,82,-1
 566 235 l 1,83,-1
 566 282 l 1,84,-1
 584 282 l 2,85,86
 593 282 593 282 593 266 c 2,87,-1
 593 252 l 2,88,81
 593 235 593 235 584 235 c 2,82,-1
EndSplineSet
Position2: "Single Positioning lookup 2 subtable" dx=0 dy=0 dh=-756 dv=0
EndChar

StartChar: X.ss05
Encoding: 65608 -1 134
Width: 756
Flags: W
LayerCount: 2
Back
Fore
SplineSet
557.5 660 m 128,-1,1
 640 612 640 612 688 529.5 c 128,-1,2
 736 447 736 447 736 350 c 256,3,4
 736 253 736 253 688 170.5 c 128,-1,5
 640 88 640 88 557.5 40 c 128,-1,6
 475 -8 475 -8 378 -8 c 256,7,8
 281 -8 281 -8 198.5 40 c 128,-1,9
 116 88 116 88 68 170.5 c 128,-1,10
 20 253 20 253 20 350 c 256,11,12
 20 447 20 447 68 529.5 c 128,-1,13
 116 612 116 612 198.5 660 c 128,-1,14
 281 708 281 708 378 708 c 256,15,0
 475 708 475 708 557.5 660 c 128,-1,1
639.5 252 m 128,-1,17
 657 299 657 299 657 350 c 0,18,19
 657 426 657 426 619.5 490 c 128,-1,20
 582 554 582 554 518 591.5 c 128,-1,21
 454 629 454 629 378 629 c 0,22,23
 326 629 326 629 279.5 611.5 c 128,-1,24
 233 594 233 594 196 561 c 1,25,-1
 590 168 l 1,26,16
 622 205 622 205 639.5 252 c 128,-1,17
149 510 m 1,27,28
 125 475 125 475 112 434 c 128,-1,29
 99 393 99 393 99 350 c 0,30,31
 99 274 99 274 136.5 210 c 128,-1,32
 174 146 174 146 238 108.5 c 128,-1,33
 302 71 302 71 378 71 c 0,34,35
 466 71 466 71 538 122 c 1,36,-1
 149 510 l 1,27,28
EndSplineSet
EndChar

StartChar: a
Encoding: 97 97 135
Width: 545
Flags: W
LayerCount: 2
Back
Fore
SplineSet
418.5 487.5 m 128,-1,1
 470 445 470 445 470 369 c 2,2,-1
 470 160 l 2,3,4
 470 93 470 93 476 62.5 c 128,-1,5
 482 32 482 32 482 26 c 0,6,7
 482 12 482 12 453.5 5.5 c 128,-1,8
 425 -1 425 -1 403 -1 c 0,9,10
 387 -1 387 -1 380.5 14 c 128,-1,11
 374 29 374 29 370.5 46 c 128,-1,12
 367 63 367 63 366 69 c 1,13,14
 341 39 341 39 301.5 16 c 128,-1,15
 262 -7 262 -7 207 -7 c 0,16,17
 131 -7 131 -7 88.5 32 c 128,-1,18
 46 71 46 71 46 141 c 0,19,20
 46 236 46 236 125.5 280 c 128,-1,21
 205 324 205 324 358 325 c 1,22,-1
 358 366 l 2,23,24
 358 438 358 438 262 438 c 0,25,26
 222 438 222 438 192 429 c 128,-1,27
 162 420 162 420 142 410.5 c 128,-1,28
 122 401 122 401 119 401 c 0,29,30
 107 401 107 401 91.5 425.5 c 128,-1,31
 76 450 76 450 76 464 c 0,32,33
 76 479 76 479 102 494.5 c 128,-1,34
 128 510 128 510 171.5 520 c 128,-1,35
 215 530 215 530 265 530 c 0,36,0
 367 530 367 530 418.5 487.5 c 128,-1,1
214 223.5 m 128,-1,38
 161 205 161 205 161 151 c 0,39,40
 161 120 161 120 179 102.5 c 128,-1,41
 197 85 197 85 231 85 c 0,42,43
 304 85 304 85 358 152 c 1,44,-1
 358 242 l 1,45,37
 267 242 267 242 214 223.5 c 128,-1,38
EndSplineSet
Substitution2: "Single Substitution lookup 14 subtable" ordfeminine
Substitution2: "'ss06' Style Set 6 lookup 13 subtable" one.ss01
Substitution2: "'ss05' Style Set 5 lookup 11 subtable" A.ss05
Substitution2: "'ss04' Style Set 4 lookup 10 subtable" A.ss04
Substitution2: "'ss03' Style Set 3 lookup 9 subtable" a.ss03
Substitution2: "'ss02' Style Set 2 lookup 8 subtable" A.ss02
Substitution2: "'ss01' Style Set 1 lookup 7 subtable" a.ss01
Substitution2: "'salt' Stylistic Alternatives lookup 6 subtable" a.ss01
AlternateSubs2: "'aalt' Access All Alternates lookup 1 subtable" ordfeminine a.ss01 A.ss02 a.ss03 A.ss04 A.ss05
EndChar

StartChar: ae
Encoding: 230 230 142
Width: 829
Flags: W
LayerCount: 2
Back
Fore
SplineSet
724 464.5 m 128,-1,1
 776 399 776 399 776 282 c 0,2,3
 776 271 776 271 761 252.5 c 128,-1,4
 746 234 746 234 736 234 c 2,5,-1
 447 234 l 1,6,7
 451 156 451 156 485.5 120.5 c 128,-1,8
 520 85 520 85 583 85 c 0,9,10
 619 85 619 85 646 93.5 c 128,-1,11
 673 102 673 102 694 112 c 128,-1,12
 715 122 715 122 718 122 c 0,13,14
 730 122 730 122 745.5 98 c 128,-1,15
 761 74 761 74 761 61 c 0,16,17
 761 44 761 44 733.5 28 c 128,-1,18
 706 12 706 12 663.5 2.5 c 128,-1,19
 621 -7 621 -7 581 -7 c 0,20,21
 457 -7 457 -7 392 58 c 1,22,23
 362 32 362 32 315.5 12.5 c 128,-1,24
 269 -7 269 -7 212 -7 c 0,25,26
 135 -7 135 -7 89 32.5 c 128,-1,27
 43 72 43 72 43 141 c 0,28,29
 43 312 43 312 332 317 c 1,30,31
 338 369 338 369 354 403 c 1,32,33
 331 438 331 438 259 438 c 0,34,35
 222 438 222 438 193 429.5 c 128,-1,36
 164 421 164 421 136 408 c 0,37,38
 119 401 119 401 116 401 c 0,39,40
 104 401 104 401 88.5 425.5 c 128,-1,41
 73 450 73 450 73 464 c 0,42,43
 73 479 73 479 99 494.5 c 128,-1,44
 125 510 125 510 168.5 520 c 128,-1,45
 212 530 212 530 262 530 c 0,46,47
 366 530 366 530 418 487 c 1,48,49
 476 530 476 530 566 530 c 0,50,0
 672 530 672 530 724 464.5 c 128,-1,1
446 317 m 1,52,-1
 663 317 l 1,53,54
 663 376 663 376 637.5 407 c 128,-1,55
 612 438 612 438 564 438 c 0,56,51
 458 438 458 438 446 317 c 1,52,-1
204 214 m 128,-1,58
 158 196 158 196 158 151 c 0,59,60
 158 120 158 120 176 102.5 c 128,-1,61
 194 85 194 85 228 85 c 0,62,63
 264 85 264 85 294.5 98.5 c 128,-1,64
 325 112 325 112 347 135 c 1,65,66
 332 177 332 177 329 233 c 1,67,57
 250 232 250 232 204 214 c 128,-1,58
EndSplineSet
EndChar

StartChar: b
Encoding: 98 98 143
Width: 569
Flags: W
LayerCount: 2
Back
Fore
SplineSet
189 727 m 2,1,-1
 189 488 l 1,2,3
 246 530 246 530 314 530 c 0,4,5
 409 530 409 530 465 459 c 128,-1,6
 521 388 521 388 521 262 c 0,7,8
 521 181 521 181 497 120 c 128,-1,9
 473 59 473 59 430 26 c 128,-1,10
 387 -7 387 -7 330 -7 c 0,11,12
 286 -7 286 -7 248 12.5 c 128,-1,13
 210 32 210 32 181 68 c 1,14,15
 176 38 176 38 168 16 c 0,16,17
 164 5 164 5 154.5 1.5 c 128,-1,18
 145 -2 145 -2 128 -2 c 2,19,-1
 120 -2 l 2,20,21
 77 -2 77 -2 77 24 c 2,22,-1
 77 727 l 2,23,24
 77 753 77 753 126 753 c 2,25,-1
 140 753 l 2,26,0
 189 753 189 753 189 727 c 2,1,-1
236 428 m 128,-1,28
 210 419 210 419 189 403 c 1,29,-1
 189 152 l 1,30,31
 213 122 213 122 242 104.5 c 128,-1,32
 271 87 271 87 301 87 c 0,33,34
 352 87 352 87 379 133.5 c 128,-1,35
 406 180 406 180 406 266 c 0,36,37
 406 350 406 350 376.5 393 c 128,-1,38
 347 436 347 436 289 437 c 0,39,27
 262 437 262 437 236 428 c 128,-1,28
EndSplineSet
Substitution2: "'ss06' Style Set 6 lookup 13 subtable" two.ss01
Substitution2: "'ss05' Style Set 5 lookup 11 subtable" B.ss05
Substitution2: "'ss04' Style Set 4 lookup 10 subtable" B.ss04
Substitution2: "'ss03' Style Set 3 lookup 9 subtable" B.ss03
Substitution2: "'ss02' Style Set 2 lookup 8 subtable" B.ss02
Substitution2: "'ss01' Style Set 1 lookup 7 subtable" b.ss01
Substitution2: "'salt' Stylistic Alternatives lookup 6 subtable" b.ss01
AlternateSubs2: "'aalt' Access All Alternates lookup 1 subtable" b.ss01 B.ss02 B.ss03 B.ss04 B.ss05
EndChar

StartChar: c
Encoding: 99 99 144
Width: 485
Flags: W
LayerCount: 2
Back
Fore
SplineSet
402 514 m 128,-1,1
 451 498 451 498 451 474 c 0,2,3
 451 461 451 461 435.5 435.5 c 128,-1,4
 420 410 420 410 410 410 c 0,5,6
 407 410 407 410 395 415 c 0,7,8
 349 438 349 438 296 438 c 0,9,10
 231 438 231 438 198 396 c 128,-1,11
 165 354 165 354 165 264 c 0,12,13
 165 170 165 170 196 127.5 c 128,-1,14
 227 85 227 85 299 85 c 0,15,16
 355 85 355 85 406 109 c 0,17,18
 416 114 416 114 420 114 c 0,19,20
 432 114 432 114 446.5 90 c 128,-1,21
 461 66 461 66 461 52 c 0,22,23
 461 26 461 26 406.5 9.5 c 128,-1,24
 352 -7 352 -7 297 -7 c 0,25,26
 171 -7 171 -7 109.5 57.5 c 128,-1,27
 48 122 48 122 48 261 c 0,28,29
 48 401 48 401 114 465.5 c 128,-1,30
 180 530 180 530 294 530 c 0,31,0
 353 530 353 530 402 514 c 128,-1,1
EndSplineSet
Substitution2: "'ss06' Style Set 6 lookup 13 subtable" three.ss01
Substitution2: "'ss05' Style Set 5 lookup 11 subtable" C.ss05
Substitution2: "'ss04' Style Set 4 lookup 10 subtable" C.ss04
Substitution2: "'ss03' Style Set 3 lookup 9 subtable" C.ss03
Substitution2: "'ss02' Style Set 2 lookup 8 subtable" C.ss02
Substitution2: "'ss01' Style Set 1 lookup 7 subtable" c.ss01
Substitution2: "'salt' Stylistic Alternatives lookup 6 subtable" c.ss01
AlternateSubs2: "'aalt' Access All Alternates lookup 1 subtable" c.ss01 C.ss02 C.ss03 C.ss04 C.ss05
EndChar

StartChar: ccedilla
Encoding: 231 231 145
Width: 485
Flags: W
LayerCount: 2
Back
Fore
SplineSet
415 12.5 m 128,-1,1
 369 -3 369 -3 315 -6 c 1,2,-1
 305 -43 l 1,3,4
 336 -44 336 -44 362.5 -61 c 128,-1,5
 389 -78 389 -78 389 -117 c 0,6,7
 389 -211 389 -211 272 -211 c 0,8,9
 230 -211 230 -211 190 -198 c 128,-1,10
 150 -185 150 -185 150 -165 c 0,11,12
 150 -149 150 -149 157.5 -140 c 128,-1,13
 165 -131 165 -131 175 -131 c 0,14,15
 184 -131 184 -131 203 -138 c 0,16,17
 236 -151 236 -151 261 -151 c 0,18,19
 281 -151 281 -151 292.5 -145.5 c 128,-1,20
 304 -140 304 -140 304 -124 c 0,21,22
 304 -111 304 -111 295 -104.5 c 128,-1,23
 286 -98 286 -98 269 -92 c 0,24,25
 256 -87 256 -87 249.5 -82.5 c 128,-1,26
 243 -78 243 -78 243 -71 c 0,27,28
 243 -65 243 -65 250.5 -41 c 128,-1,29
 258 -17 258 -17 262 -6 c 1,30,31
 154 2 154 2 101 67 c 128,-1,32
 48 132 48 132 48 261 c 0,33,34
 48 401 48 401 114 465.5 c 128,-1,35
 180 530 180 530 294 530 c 0,36,37
 353 530 353 530 402 514 c 128,-1,38
 451 498 451 498 451 474 c 0,39,40
 451 461 451 461 435.5 435.5 c 128,-1,41
 420 410 420 410 410 410 c 0,42,43
 407 410 407 410 395 415 c 0,44,45
 349 438 349 438 296 438 c 0,46,47
 231 438 231 438 198 396 c 128,-1,48
 165 354 165 354 165 264 c 0,49,50
 165 170 165 170 196 127.5 c 128,-1,51
 227 85 227 85 299 85 c 0,52,53
 355 85 355 85 406 109 c 0,54,55
 416 114 416 114 420 114 c 0,56,57
 432 114 432 114 446.5 90 c 128,-1,58
 461 66 461 66 461 52 c 0,59,0
 461 28 461 28 415 12.5 c 128,-1,1
EndSplineSet
EndChar

